<svg width="131" height="19" fill="none" viewBox="0 0 131 19" xmlns="http://www.w3.org/2000/svg"><path d="M2.693 6.8v8.336l8.48-8.896V18h-1.36V9.664l-8.48 8.896V6.8h1.36Zm19.014 0V18h-1.36V8.08h-4.96v6.08c0 .683-.107 1.317-.32 1.904-.203.587-.512 1.056-.928 1.408-.405.352-.912.528-1.52.528v-1.168a1 1 0 0 0 .8-.384c.224-.267.395-.624.512-1.072.117-.459.176-.97.176-1.536V6.8h7.6Zm2.563 0h1.36v4.48h1.68c.726 0 1.37.139 1.936.416.576.267 1.03.65 1.36 1.152.342.501.512 1.099.512 1.792 0 .683-.17 1.28-.512 1.792-.33.501-.784.89-1.36 1.168-.565.267-1.21.4-1.936.4h-3.04V6.8Zm3.04 5.76h-1.68v4.16h1.68c.726 0 1.312-.176 1.76-.528.459-.352.688-.87.688-1.552 0-.693-.23-1.21-.688-1.552-.448-.352-1.034-.528-1.76-.528ZM39.436 6.8V18h-1.36v-4.48h-1.36L33.596 18h-1.68l3.344-4.608c-.79-.192-1.435-.565-1.936-1.12-.49-.565-.736-1.27-.736-2.112 0-.693.165-1.29.496-1.792.341-.501.8-.885 1.376-1.152.576-.277 1.221-.416 1.936-.416h3.04Zm-3.04 5.52h1.68V8h-1.68c-.715 0-1.302.187-1.76.56-.459.373-.688.907-.688 1.6 0 .683.23 1.216.688 1.6.458.373 1.045.56 1.76.56Zm5.433 2.48v-1.2h12v1.2h-12Zm21.242-.08c0 .736-.17 1.35-.512 1.84-.33.48-.784.843-1.36 1.088-.565.235-1.21.352-1.936.352h-3.04V6.8h2.88c1.003 0 1.808.23 2.416.688.608.459.912 1.163.912 2.112 0 .576-.165 1.061-.496 1.456-.33.384-.784.661-1.36.832.736.15 1.334.459 1.792.928.47.459.704 1.093.704 1.904ZM59.103 8h-1.52v3.328h1.52c.566 0 1.035-.144 1.408-.432.374-.288.56-.693.56-1.216 0-.533-.186-.944-.56-1.232C60.138 8.149 59.67 8 59.103 8Zm-1.52 8.8h1.68c.726 0 1.312-.187 1.76-.56.459-.384.688-.917.688-1.6 0-.693-.229-1.221-.688-1.584-.448-.363-1.034-.544-1.76-.544h-1.68V16.8Zm7.562-10h6.4v1.28h-5.04v3.2h4.72v1.28h-4.72v4.16h5.04V18h-6.4V6.8Zm7.677 1.28V6.8h7.12v1.28h-2.88V18h-1.36V8.08h-2.88ZM81.38 6.8h3.04c.725 0 1.37.139 1.936.416a3.2 3.2 0 0 1 1.36 1.152c.34.501.512 1.099.512 1.792 0 .683-.171 1.28-.512 1.792a3.31 3.31 0 0 1-1.36 1.168c-.566.267-1.211.4-1.936.4h-1.68V18h-1.36V6.8Zm3.04 1.28h-1.68v4.16h1.68c.725 0 1.312-.176 1.76-.528.458-.352.688-.87.688-1.552 0-.693-.23-1.21-.688-1.552-.448-.352-1.035-.528-1.76-.528Zm5.085 4.32c0-.821.139-1.579.416-2.272a5.483 5.483 0 0 1 1.2-1.824 5.403 5.403 0 0 1 1.808-1.216 5.642 5.642 0 0 1 2.256-.448c.822 0 1.574.15 2.256.448a5.402 5.402 0 0 1 1.808 1.216 5.28 5.28 0 0 1 1.184 1.824c.288.693.432 1.45.432 2.272 0 .81-.144 1.568-.432 2.272a5.45 5.45 0 0 1-1.184 1.84 5.74 5.74 0 0 1-1.808 1.216c-.682.288-1.434.432-2.256.432-.81 0-1.562-.144-2.256-.432a5.74 5.74 0 0 1-1.808-1.216 5.664 5.664 0 0 1-1.2-1.84 6.143 6.143 0 0 1-.416-2.272Zm1.44 0c0 .843.182 1.595.544 2.256.374.661.88 1.184 1.52 1.568.64.384 1.366.576 2.176.576.822 0 1.547-.192 2.176-.576a4.086 4.086 0 0 0 1.504-1.568c.374-.661.56-1.413.56-2.256 0-.843-.186-1.595-.56-2.256a4.086 4.086 0 0 0-1.504-1.568C96.731 8.192 96.007 8 95.185 8c-.81 0-1.536.192-2.176.576a4.207 4.207 0 0 0-1.52 1.568c-.362.661-.544 1.413-.544 2.256Zm18.689 2.32c0 .736-.171 1.35-.512 1.84-.331.48-.784.843-1.36 1.088-.565.235-1.211.352-1.936.352h-3.04V6.8h2.88c1.003 0 1.808.23 2.416.688.608.459.912 1.163.912 2.112 0 .576-.165 1.061-.496 1.456-.331.384-.784.661-1.36.832.736.15 1.333.459 1.792.928.469.459.704 1.093.704 1.904ZM105.666 8h-1.52v3.328h1.52c.565 0 1.035-.144 1.408-.432.373-.288.56-.693.56-1.216 0-.533-.187-.944-.56-1.232-.373-.299-.843-.448-1.408-.448Zm-1.52 8.8h1.68c.725 0 1.312-.187 1.76-.56.459-.384.688-.917.688-1.6 0-.693-.229-1.221-.688-1.584-.448-.363-1.035-.544-1.76-.544h-1.68V16.8ZM114.11 4.7c0 .32.067.603.2.85.14.247.327.443.56.59.24.14.51.21.81.21.373 0 .707-.083 1-.25.293-.167.493-.363.6-.59v1c-.16.187-.39.333-.69.44-.293.1-.597.15-.91.15-.447 0-.85-.103-1.21-.31a2.335 2.335 0 0 1-.86-.85 2.478 2.478 0 0 1-.31-1.24c0-.467.103-.88.31-1.24.213-.36.5-.643.86-.85.36-.207.763-.31 1.21-.31.313 0 .617.053.91.16.3.1.53.243.69.43v1c-.107-.227-.307-.423-.6-.59a1.988 1.988 0 0 0-1-.25c-.3 0-.57.07-.81.21-.233.14-.42.337-.56.59-.133.247-.2.53-.2.85Zm4.775-1.22-.39-.61a3.7 3.7 0 0 1 .7-.38c.294-.127.647-.19 1.06-.19.527 0 .954.123 1.28.37.327.24.49.583.49 1.03V7h-.8v-.66c-.14.247-.35.437-.63.57-.28.127-.593.19-.94.19-.286 0-.55-.053-.79-.16a1.389 1.389 0 0 1-.58-.47c-.14-.213-.21-.477-.21-.79 0-.487.174-.863.52-1.13.354-.273.834-.41 1.44-.41.267 0 .5.033.7.1.2.067.364.143.49.23V3.7c0-.233-.1-.407-.3-.52a1.242 1.242 0 0 0-.67-.18c-.326 0-.61.06-.85.18a4.73 4.73 0 0 0-.52.3Zm0 2.17c0 .247.094.433.28.56.194.12.424.18.69.18.4 0 .727-.09.98-.27.26-.187.39-.493.39-.92v-.18c-.34-.18-.723-.27-1.15-.27-.406 0-.706.08-.9.24-.193.16-.29.38-.29.66Zm4.914-5.6h.71c0 .087.023.19.07.31a.747.747 0 0 0 .26.31c.127.087.307.13.54.13.233 0 .413-.043.54-.13a.747.747 0 0 0 .26-.31.873.873 0 0 0 .07-.31h.71c0 .227-.06.45-.18.67-.113.213-.287.39-.52.53-.233.133-.527.2-.88.2-.347 0-.64-.067-.88-.2a1.445 1.445 0 0 1-.53-.53 1.453 1.453 0 0 1-.17-.67Zm.43 2.35v2.98l3.05-3.33V7h-.8V4.02l-3.05 3.33V2.4h.8Zm3.899 0h2.7v.75h-.95V7h-.8V3.15h-.95V2.4Z" fill="#fff"/></svg>
