<svg width="116" height="19" fill="none" viewBox="0 0 116 19" xmlns="http://www.w3.org/2000/svg"><path d="M1.364 6.8h1.36V18h-1.36V6.8Zm3.922 0h1.36v9.92h4.4V18h-5.76V6.8Zm7.203 0h1.36V18h-1.36V6.8ZM24.091 18l-1.424-3.36h-4.512L16.73 18h-1.52l5.2-11.76L25.61 18h-1.52Zm-3.68-8.672-1.712 4.032h3.424L20.41 9.328Zm6.402 5.472v-1.2h12v1.2h-12Zm18.395.672 3.68-8.672h1.52l-5.2 11.76-5.2-11.76h1.52l3.68 8.672ZM51.77 6.8h6.4v1.28h-5.04v3.2h4.72v1.28h-4.72v4.16h5.04V18h-6.4V6.8Zm7.677 1.28V6.8h7.12v1.28h-2.88V18h-1.36V8.08h-2.88Zm8.558-1.28h3.04c.725 0 1.37.139 1.936.416a3.2 3.2 0 0 1 1.36 1.152c.34.501.512 1.099.512 1.792 0 .843-.251 1.547-.752 2.112-.491.555-1.131.928-1.92 1.12L75.525 18h-1.68l-3.12-4.48h-1.36V18h-1.36V6.8Zm3.04 1.2h-1.68v4.32h1.68c.725 0 1.312-.187 1.76-.56.458-.384.688-.917.688-1.6 0-.693-.23-1.227-.688-1.6-.448-.373-1.035-.56-1.76-.56Zm5.273 4.4c0-.821.138-1.579.416-2.272a5.483 5.483 0 0 1 1.2-1.824 5.403 5.403 0 0 1 1.808-1.216 5.642 5.642 0 0 1 2.256-.448c.821 0 1.573.15 2.256.448a5.402 5.402 0 0 1 1.808 1.216c.512.512.906 1.12 1.184 1.824.288.693.432 1.45.432 2.272 0 .81-.144 1.568-.432 2.272a5.456 5.456 0 0 1-1.184 1.84 5.74 5.74 0 0 1-1.808 1.216c-.683.288-1.435.432-2.256.432-.81 0-1.563-.144-2.256-.432a5.74 5.74 0 0 1-1.808-1.216 5.664 5.664 0 0 1-1.2-1.84 6.143 6.143 0 0 1-.416-2.272Zm1.44 0c0 .843.181 1.595.544 2.256.373.661.88 1.184 1.52 1.568.64.384 1.365.576 2.176.576.821 0 1.546-.192 2.176-.576a4.086 4.086 0 0 0 1.504-1.568c.373-.661.56-1.413.56-2.256 0-.843-.187-1.595-.56-2.256a4.086 4.086 0 0 0-1.504-1.568C83.544 8.192 82.819 8 81.998 8c-.81 0-1.536.192-2.176.576a4.207 4.207 0 0 0-1.52 1.568c-.363.661-.544 1.413-.544 2.256Zm15.356 3.072 3.68-8.672h1.52l-5.2 11.76-5.2-11.76h1.52l3.68 8.672ZM101.94 5.69c.14.213.31.397.51.55.207.153.453.23.74.23.227 0 .403-.05.53-.15.133-.107.2-.25.2-.43a.541.541 0 0 0-.16-.4 1.15 1.15 0 0 0-.39-.28 5.1 5.1 0 0 0-.51-.22c-.2-.08-.403-.173-.61-.28a1.77 1.77 0 0 1-.51-.43c-.133-.18-.2-.403-.2-.67 0-.273.07-.5.21-.68.147-.18.333-.313.56-.4a2.05 2.05 0 0 1 .72-.13c.367 0 .7.087 1 .26.3.173.52.387.66.64l-.64.41a1.577 1.577 0 0 0-.48-.43 1.21 1.21 0 0 0-.64-.17.808.808 0 0 0-.43.11.37.37 0 0 0-.18.34c0 .187.097.34.29.46.2.113.423.22.67.32.267.107.51.223.73.35.22.12.393.267.52.44.133.173.2.397.2.67 0 .4-.147.733-.44 1-.287.267-.667.4-1.14.4-.307 0-.583-.053-.83-.16a2.14 2.14 0 0 1-.63-.43 2.066 2.066 0 0 1-.38-.53l.63-.39ZM105.783.6c0-.153.054-.283.16-.39a.555.555 0 0 1 .78 0 .53.53 0 0 1 .16.39.551.551 0 0 1-.16.39.555.555 0 0 1-.78 0 .556.556 0 0 1-.16-.39Zm.15 1.9h.8v4.6h-.8V2.5Zm1.748 0h.75V.9h.8v1.6h.75v.75h-.75V7.1h-.8V3.25h-.75V2.5Zm4.882 4.7c-.426 0-.806-.1-1.14-.3a2.167 2.167 0 0 1-.77-.85c-.18-.36-.27-.777-.27-1.25 0-.48.094-.9.28-1.26.194-.36.46-.64.8-.84.347-.2.747-.3 1.2-.3.674 0 1.204.21 1.59.63.387.42.58.997.58 1.73 0 .047-.003.097-.01.15V5h-3.62c.034.46.177.817.43 1.07.254.253.597.38 1.03.38.627 0 1.107-.277 1.44-.83l.65.41c-.48.78-1.21 1.17-2.19 1.17Zm.1-4.1c-.393 0-.713.107-.96.32-.246.207-.403.507-.47.9h2.73c-.026-.367-.16-.66-.4-.88-.233-.227-.533-.34-.9-.34Z" fill="#fff"/></svg>
