<svg width="18" height="16" viewBox="0 0 18 16" fill="none" xmlns="http://www.w3.org/2000/svg"><path d="M15.79 6.163v6.009c0 .333-.118.618-.355.855a1.166 1.166 0 0 1-.855.356H3.44c-.332 0-.617-.119-.855-.356a1.166 1.166 0 0 1-.355-.855V6.163c.222.248.477.467.764.659 1.826 1.24 3.08 2.111 3.761 2.61.288.212.521.378.7.496.18.119.418.24.715.363.298.124.575.186.833.186h.015c.257 0 .535-.062.832-.186.298-.123.536-.244.716-.363.179-.118.412-.284.7-.495.857-.621 2.113-1.491 3.768-2.611.288-.197.54-.416.757-.659Zm0-2.225a2 2 0 0 1-.37 1.143 3.598 3.598 0 0 1-.923.931 6082.747 6082.747 0 0 0-3.542 2.46l-.321.23c-.164.119-.3.215-.41.288a7.87 7.87 0 0 1-.393.246c-.153.09-.299.159-.435.204a1.203 1.203 0 0 1-.378.068h-.015c-.116 0-.242-.022-.379-.068a2.293 2.293 0 0 1-.435-.204 7.861 7.861 0 0 1-.393-.246 15.815 15.815 0 0 1-.409-.288 33.512 33.512 0 0 0-.322-.23c-.459-.323-1.12-.784-1.982-1.382-.863-.597-1.38-.957-1.552-1.078a3.757 3.757 0 0 1-.885-.874c-.278-.37-.416-.715-.416-1.033 0-.394.104-.721.314-.984.21-.262.508-.393.897-.393h11.14c.327 0 .61.118.85.355s.36.523.36.855Z" fill="#fff"/></svg>
