<svg xmlns="http://www.w3.org/2000/svg" width="16" height="16" viewBox="0 0 16 16" fill="none"><path d="M11.7 9.428c-.403-.087-.722.1-1.004.264-.288.168-.838.614-1.154.499-1.613-.663-3.13-2.076-3.787-3.696-.116-.322.328-.874.495-1.168.162-.282.346-.604.262-1.01-.077-.365-1.053-1.609-1.399-1.948-.227-.225-.46-.348-.7-.368-.901-.039-1.907 1.163-2.084 1.45-.441.614-.439 1.43.008 2.42 1.077 2.656 5.151 6.666 7.818 7.784.493.23.943.345 1.347.345.396 0 .748-.11 1.05-.329.23-.131 1.48-1.187 1.447-2.112-.019-.236-.143-.472-.364-.7-.336-.35-1.572-1.354-1.935-1.431z" fill="#fff" style="stroke-width:.960035"/></svg>
