<svg baseProfile="tiny" xmlns="http://www.w3.org/2000/svg" width="200" height="200" viewBox="0 0 200 200"><path shape-rendering="optimizeSpeed" fill="#fff" d="M0 0h200v200H0z"/><path shape-rendering="optimizeSpeed" d="M16 16h8v8h-8zM24 16h8v8h-8zM32 16h8v8h-8zM40 16h8v8h-8zM48 16h8v8h-8zM56 16h8v8h-8zM64 16h8v8h-8zM80 16h8v8h-8zM104 16h8v8h-8zM128 16h8v8h-8zM136 16h8v8h-8zM144 16h8v8h-8zM152 16h8v8h-8zM160 16h8v8h-8zM168 16h8v8h-8zM176 16h8v8h-8zM16 24h8v8h-8zM64 24h8v8h-8zM128 24h8v8h-8zM176 24h8v8h-8zM16 32h8v8h-8zM32 32h8v8h-8zM40 32h8v8h-8zM48 32h8v8h-8zM64 32h8v8h-8zM80 32h8v8h-8zM88 32h8v8h-8zM96 32h8v8h-8zM104 32h8v8h-8zM128 32h8v8h-8zM144 32h8v8h-8zM152 32h8v8h-8zM160 32h8v8h-8zM176 32h8v8h-8zM16 40h8v8h-8zM32 40h8v8h-8zM40 40h8v8h-8zM48 40h8v8h-8zM64 40h8v8h-8zM80 40h8v8h-8zM88 40h8v8h-8zM96 40h8v8h-8zM128 40h8v8h-8zM144 40h8v8h-8zM152 40h8v8h-8zM160 40h8v8h-8zM176 40h8v8h-8zM16 48h8v8h-8zM32 48h8v8h-8zM40 48h8v8h-8zM48 48h8v8h-8zM64 48h8v8h-8zM80 48h8v8h-8zM88 48h8v8h-8zM104 48h8v8h-8zM112 48h8v8h-8zM128 48h8v8h-8zM144 48h8v8h-8zM152 48h8v8h-8zM160 48h8v8h-8zM176 48h8v8h-8zM16 56h8v8h-8zM64 56h8v8h-8zM88 56h8v8h-8zM96 56h8v8h-8zM104 56h8v8h-8zM128 56h8v8h-8zM176 56h8v8h-8zM16 64h8v8h-8zM24 64h8v8h-8zM32 64h8v8h-8zM40 64h8v8h-8zM48 64h8v8h-8zM56 64h8v8h-8zM64 64h8v8h-8zM80 64h8v8h-8zM96 64h8v8h-8zM112 64h8v8h-8zM128 64h8v8h-8zM136 64h8v8h-8zM144 64h8v8h-8zM152 64h8v8h-8zM160 64h8v8h-8zM168 64h8v8h-8zM176 64h8v8h-8zM112 72h8v8h-8zM16 80h8v8h-8zM24 80h8v8h-8zM32 80h8v8h-8zM40 80h8v8h-8zM64 80h8v8h-8zM80 80h8v8h-8zM96 80h8v8h-8zM120 80h8v8h-8zM144 80h8v8h-8zM152 80h8v8h-8zM160 80h8v8h-8zM176 80h8v8h-8zM16 88h8v8h-8zM24 88h8v8h-8zM40 88h8v8h-8zM48 88h8v8h-8zM72 88h8v8h-8zM80 88h8v8h-8zM88 88h8v8h-8zM104 88h8v8h-8zM136 88h8v8h-8zM152 88h8v8h-8zM176 88h8v8h-8zM24 96h8v8h-8zM32 96h8v8h-8zM40 96h8v8h-8zM48 96h8v8h-8zM64 96h8v8h-8zM72 96h8v8h-8zM96 96h8v8h-8zM128 96h8v8h-8zM136 96h8v8h-8zM160 96h8v8h-8zM168 96h8v8h-8zM176 96h8v8h-8zM16 104h8v8h-8zM24 104h8v8h-8zM32 104h8v8h-8zM72 104h8v8h-8zM80 104h8v8h-8zM88 104h8v8h-8zM112 104h8v8h-8zM144 104h8v8h-8zM152 104h8v8h-8zM176 104h8v8h-8zM16 112h8v8h-8zM32 112h8v8h-8zM56 112h8v8h-8zM64 112h8v8h-8zM72 112h8v8h-8zM104 112h8v8h-8zM128 112h8v8h-8zM80 120h8v8h-8zM96 120h8v8h-8zM104 120h8v8h-8zM112 120h8v8h-8zM136 120h8v8h-8zM144 120h8v8h-8zM160 120h8v8h-8zM16 128h8v8h-8zM24 128h8v8h-8zM32 128h8v8h-8zM40 128h8v8h-8zM48 128h8v8h-8zM56 128h8v8h-8zM64 128h8v8h-8zM136 128h8v8h-8zM144 128h8v8h-8zM160 128h8v8h-8zM16 136h8v8h-8zM64 136h8v8h-8zM104 136h8v8h-8zM112 136h8v8h-8zM120 136h8v8h-8zM144 136h8v8h-8zM152 136h8v8h-8zM160 136h8v8h-8zM168 136h8v8h-8zM16 144h8v8h-8zM32 144h8v8h-8zM40 144h8v8h-8zM48 144h8v8h-8zM64 144h8v8h-8zM88 144h8v8h-8zM96 144h8v8h-8zM160 144h8v8h-8zM176 144h8v8h-8zM16 152h8v8h-8zM32 152h8v8h-8zM40 152h8v8h-8zM48 152h8v8h-8zM64 152h8v8h-8zM80 152h8v8h-8zM112 152h8v8h-8zM128 152h8v8h-8zM152 152h8v8h-8zM16 160h8v8h-8zM32 160h8v8h-8zM40 160h8v8h-8zM48 160h8v8h-8zM64 160h8v8h-8zM80 160h8v8h-8zM88 160h8v8h-8zM104 160h8v8h-8zM112 160h8v8h-8zM160 160h8v8h-8zM16 168h8v8h-8zM64 168h8v8h-8zM80 168h8v8h-8zM88 168h8v8h-8zM96 168h8v8h-8zM104 168h8v8h-8zM112 168h8v8h-8zM120 168h8v8h-8zM128 168h8v8h-8zM136 168h8v8h-8zM176 168h8v8h-8zM16 176h8v8h-8zM24 176h8v8h-8zM32 176h8v8h-8zM40 176h8v8h-8zM48 176h8v8h-8zM56 176h8v8h-8zM64 176h8v8h-8zM80 176h8v8h-8zM88 176h8v8h-8zM104 176h8v8h-8zM128 176h8v8h-8zM144 176h8v8h-8zM160 176h8v8h-8z"/></svg>
