<svg baseProfile="tiny" xmlns="http://www.w3.org/2000/svg" width="200" height="200" viewBox="0 0 200 200"><path shape-rendering="optimizeSpeed" fill="#fff" d="M0 0h200v200H0z"/><path shape-rendering="optimizeSpeed" d="M12 12h7v7h-7zM19 12h7v7h-7zM26 12h7v7h-7zM33 12h7v7h-7zM40 12h7v7h-7zM47 12h7v7h-7zM54 12h7v7h-7zM68 12h7v7h-7zM75 12h7v7h-7zM103 12h7v7h-7zM110 12h7v7h-7zM117 12h7v7h-7zM124 12h7v7h-7zM138 12h7v7h-7zM145 12h7v7h-7zM152 12h7v7h-7zM159 12h7v7h-7zM166 12h7v7h-7zM173 12h7v7h-7zM180 12h7v7h-7zM12 19h7v7h-7zM54 19h7v7h-7zM75 19h7v7h-7zM82 19h7v7h-7zM89 19h7v7h-7zM110 19h7v7h-7zM124 19h7v7h-7zM138 19h7v7h-7zM180 19h7v7h-7zM12 26h7v7h-7zM26 26h7v7h-7zM33 26h7v7h-7zM40 26h7v7h-7zM54 26h7v7h-7zM68 26h7v7h-7zM96 26h7v7h-7zM103 26h7v7h-7zM117 26h7v7h-7zM138 26h7v7h-7zM152 26h7v7h-7zM159 26h7v7h-7zM166 26h7v7h-7zM180 26h7v7h-7zM12 33h7v7h-7zM26 33h7v7h-7zM33 33h7v7h-7zM40 33h7v7h-7zM54 33h7v7h-7zM68 33h7v7h-7zM89 33h7v7h-7zM96 33h7v7h-7zM103 33h7v7h-7zM138 33h7v7h-7zM152 33h7v7h-7zM159 33h7v7h-7zM166 33h7v7h-7zM180 33h7v7h-7zM12 40h7v7h-7zM26 40h7v7h-7zM33 40h7v7h-7zM40 40h7v7h-7zM54 40h7v7h-7zM68 40h7v7h-7zM82 40h7v7h-7zM89 40h7v7h-7zM96 40h7v7h-7zM117 40h7v7h-7zM138 40h7v7h-7zM152 40h7v7h-7zM159 40h7v7h-7zM166 40h7v7h-7zM180 40h7v7h-7zM12 47h7v7h-7zM54 47h7v7h-7zM82 47h7v7h-7zM110 47h7v7h-7zM124 47h7v7h-7zM138 47h7v7h-7zM180 47h7v7h-7zM12 54h7v7h-7zM19 54h7v7h-7zM26 54h7v7h-7zM33 54h7v7h-7zM40 54h7v7h-7zM47 54h7v7h-7zM54 54h7v7h-7zM68 54h7v7h-7zM82 54h7v7h-7zM96 54h7v7h-7zM110 54h7v7h-7zM124 54h7v7h-7zM138 54h7v7h-7zM145 54h7v7h-7zM152 54h7v7h-7zM159 54h7v7h-7zM166 54h7v7h-7zM173 54h7v7h-7zM180 54h7v7h-7zM82 61h7v7h-7zM96 61h7v7h-7zM117 61h7v7h-7zM12 68h7v7h-7zM19 68h7v7h-7zM26 68h7v7h-7zM33 68h7v7h-7zM54 68h7v7h-7zM68 68h7v7h-7zM82 68h7v7h-7zM89 68h7v7h-7zM103 68h7v7h-7zM110 68h7v7h-7zM131 68h7v7h-7zM152 68h7v7h-7zM159 68h7v7h-7zM166 68h7v7h-7zM180 68h7v7h-7zM19 75h7v7h-7zM40 75h7v7h-7zM47 75h7v7h-7zM61 75h7v7h-7zM110 75h7v7h-7zM124 75h7v7h-7zM145 75h7v7h-7zM173 75h7v7h-7zM12 82h7v7h-7zM19 82h7v7h-7zM54 82h7v7h-7zM61 82h7v7h-7zM75 82h7v7h-7zM82 82h7v7h-7zM89 82h7v7h-7zM110 82h7v7h-7zM124 82h7v7h-7zM131 82h7v7h-7zM145 82h7v7h-7zM12 89h7v7h-7zM19 89h7v7h-7zM33 89h7v7h-7zM47 89h7v7h-7zM68 89h7v7h-7zM75 89h7v7h-7zM82 89h7v7h-7zM96 89h7v7h-7zM103 89h7v7h-7zM110 89h7v7h-7zM124 89h7v7h-7zM131 89h7v7h-7zM159 89h7v7h-7zM166 89h7v7h-7zM12 96h7v7h-7zM19 96h7v7h-7zM33 96h7v7h-7zM40 96h7v7h-7zM54 96h7v7h-7zM61 96h7v7h-7zM68 96h7v7h-7zM75 96h7v7h-7zM82 96h7v7h-7zM89 96h7v7h-7zM96 96h7v7h-7zM110 96h7v7h-7zM117 96h7v7h-7zM124 96h7v7h-7zM138 96h7v7h-7zM145 96h7v7h-7zM152 96h7v7h-7zM166 96h7v7h-7zM173 96h7v7h-7zM180 96h7v7h-7zM33 103h7v7h-7zM40 103h7v7h-7zM47 103h7v7h-7zM68 103h7v7h-7zM75 103h7v7h-7zM89 103h7v7h-7zM96 103h7v7h-7zM117 103h7v7h-7zM124 103h7v7h-7zM131 103h7v7h-7zM138 103h7v7h-7zM145 103h7v7h-7zM152 103h7v7h-7zM180 103h7v7h-7zM19 110h7v7h-7zM33 110h7v7h-7zM40 110h7v7h-7zM47 110h7v7h-7zM54 110h7v7h-7zM82 110h7v7h-7zM96 110h7v7h-7zM110 110h7v7h-7zM131 110h7v7h-7zM138 110h7v7h-7zM152 110h7v7h-7zM166 110h7v7h-7zM173 110h7v7h-7zM12 117h7v7h-7zM26 117h7v7h-7zM33 117h7v7h-7zM40 117h7v7h-7zM47 117h7v7h-7zM68 117h7v7h-7zM82 117h7v7h-7zM110 117h7v7h-7zM124 117h7v7h-7zM145 117h7v7h-7zM152 117h7v7h-7zM180 117h7v7h-7zM54 124h7v7h-7zM61 124h7v7h-7zM82 124h7v7h-7zM89 124h7v7h-7zM96 124h7v7h-7zM117 124h7v7h-7zM124 124h7v7h-7zM131 124h7v7h-7zM138 124h7v7h-7zM145 124h7v7h-7zM152 124h7v7h-7zM159 124h7v7h-7zM166 124h7v7h-7zM173 124h7v7h-7zM180 124h7v7h-7zM68 131h7v7h-7zM82 131h7v7h-7zM96 131h7v7h-7zM103 131h7v7h-7zM124 131h7v7h-7zM152 131h7v7h-7zM166 131h7v7h-7zM180 131h7v7h-7zM12 138h7v7h-7zM19 138h7v7h-7zM26 138h7v7h-7zM33 138h7v7h-7zM40 138h7v7h-7zM47 138h7v7h-7zM54 138h7v7h-7zM82 138h7v7h-7zM103 138h7v7h-7zM124 138h7v7h-7zM138 138h7v7h-7zM152 138h7v7h-7zM166 138h7v7h-7zM173 138h7v7h-7zM180 138h7v7h-7zM12 145h7v7h-7zM54 145h7v7h-7zM82 145h7v7h-7zM124 145h7v7h-7zM152 145h7v7h-7zM180 145h7v7h-7zM12 152h7v7h-7zM26 152h7v7h-7zM33 152h7v7h-7zM40 152h7v7h-7zM54 152h7v7h-7zM82 152h7v7h-7zM96 152h7v7h-7zM103 152h7v7h-7zM110 152h7v7h-7zM124 152h7v7h-7zM131 152h7v7h-7zM138 152h7v7h-7zM145 152h7v7h-7zM152 152h7v7h-7zM159 152h7v7h-7zM173 152h7v7h-7zM180 152h7v7h-7zM12 159h7v7h-7zM26 159h7v7h-7zM33 159h7v7h-7zM40 159h7v7h-7zM54 159h7v7h-7zM68 159h7v7h-7zM75 159h7v7h-7zM89 159h7v7h-7zM96 159h7v7h-7zM103 159h7v7h-7zM110 159h7v7h-7zM131 159h7v7h-7zM138 159h7v7h-7zM152 159h7v7h-7zM159 159h7v7h-7zM166 159h7v7h-7zM173 159h7v7h-7zM180 159h7v7h-7zM12 166h7v7h-7zM26 166h7v7h-7zM33 166h7v7h-7zM40 166h7v7h-7zM54 166h7v7h-7zM68 166h7v7h-7zM75 166h7v7h-7zM82 166h7v7h-7zM89 166h7v7h-7zM110 166h7v7h-7zM117 166h7v7h-7zM131 166h7v7h-7zM138 166h7v7h-7zM152 166h7v7h-7zM166 166h7v7h-7zM173 166h7v7h-7zM12 173h7v7h-7zM54 173h7v7h-7zM68 173h7v7h-7zM103 173h7v7h-7zM131 173h7v7h-7zM138 173h7v7h-7zM152 173h7v7h-7zM166 173h7v7h-7zM12 180h7v7h-7zM19 180h7v7h-7zM26 180h7v7h-7zM33 180h7v7h-7zM40 180h7v7h-7zM47 180h7v7h-7zM54 180h7v7h-7zM68 180h7v7h-7zM110 180h7v7h-7zM131 180h7v7h-7zM138 180h7v7h-7zM145 180h7v7h-7zM152 180h7v7h-7zM159 180h7v7h-7zM166 180h7v7h-7zM173 180h7v7h-7zM180 180h7v7h-7z"/></svg>
