<svg fill="#fff" xmlns="http://www.w3.org/2000/svg" width="30" height="30" viewBox="0 0 30 30"><path d="M26.884 16.579c.069-.518.116-1.043.116-1.579 0-6.627-5.373-12-12-12-.536 0-1.061.047-1.579.116A7.454 7.454 0 0 0 9.5 2 7.5 7.5 0 0 0 2 9.5c0 1.439.413 2.779 1.116 3.921A11.927 11.927 0 0 0 3 15c0 6.627 5.373 12 12 12 .536 0 1.061-.047 1.579-.116A7.454 7.454 0 0 0 20.5 28a7.5 7.5 0 0 0 7.5-7.5 7.454 7.454 0 0 0-1.116-3.921zM15.149 22c-3.896 0-6.133-2.042-6.133-4.046 0-1.022 1.07-1.349 1.498-1.349.989 0 1.318.807 1.498 1.177 1.005 2.066 1.971 1.794 2.923 1.884.841.079 2.815-.292 2.815-1.734 0-.138.217-1.076-1.487-1.541-1.089-.298-3.009-.663-4.589-1.271-1.486-.572-2.358-1.75-2.358-3.268 0-.759.389-3.852 5.651-3.852 3.512 0 5.384 1.799 5.384 3.382 0 .364-.139.685-.418.974a1.529 1.529 0 0 1-1.926.161c-.217-.139-.396-.428-.61-.803-.258-.471-.68-1.381-2.623-1.381-1.885 0-2.408.899-2.408 1.274 0 1.26 2.405 1.525 3.051 1.692 2.358.608 5.566 1.167 5.566 4.346 0 3.65-3.798 4.355-5.834 4.355z"/></svg>
