<svg width="17" height="16" viewBox="0 0 17 16" fill="none" xmlns="http://www.w3.org/2000/svg"><path d="M2.683 7.872c4.19-1.843 9.611-4.09 10.36-4.401 1.963-.814 2.565-.658 2.264 1.145-.215 1.295-.838 5.585-1.334 8.255-.294 1.583-.954 1.771-1.993 1.086-.499-.33-3.02-1.996-3.566-2.388-.5-.356-1.188-.785-.325-1.63.308-.301 2.322-2.225 3.892-3.722.206-.197-.053-.52-.29-.362-2.116 1.403-5.049 3.35-5.422 3.604-.564.383-1.106.558-2.078.279-.735-.211-1.453-.463-1.732-.559-1.076-.369-.82-.847.224-1.307Z" fill="#fff"/></svg>
