<svg xmlns="http://www.w3.org/2000/svg" width="30" height="30" viewBox="0 0 30 30"><path fill="#fff" d="M25.362 8.32c-.409-1.459-1.218-2.614-2.405-3.431-1.498-1.032-3.221-1.398-4.709-1.62-2.059-.307-3.924-.35-5.7-.133-1.666.204-2.92.53-4.065 1.056-2.243 1.03-3.589 2.698-4 4.956a31.004 31.004 0 0 0-.412 3.032c-.18 2.185-.017 4.119.499 5.911.502 1.747 1.38 2.996 2.684 3.816.333.209.757.36 1.169.506.206.073.404.145.577.221v3.53a.835.835 0 0 0 1.419.599l3.257-3.168c.142-.162.142-.162.288-.165a99.47 99.47 0 0 0 3.38-.126c1.369-.075 2.955-.207 4.449-.83 1.367-.571 2.365-1.477 2.964-2.692.625-1.268.997-2.642 1.136-4.199.244-2.738.07-5.114-.531-7.263zm-5.671 10.42c-.327.535-.817.905-1.393 1.145-.421.176-.851.139-1.266-.037-3.484-1.474-6.215-3.798-8.021-7.137-.372-.688-.631-1.437-.928-2.164-.061-.15-.056-.325-.083-.488.026-1.175.927-1.836 1.837-2.036.348-.077.656.046.914.293a8.042 8.042 0 0 1 1.704 2.358c.186.389.102.733-.215 1.022-.065.06-.134.116-.205.169-.723.544-.829.955-.444 1.774.656 1.393 1.745 2.328 3.154 2.908.371.153.721.077 1.005-.224.038-.04.081-.079.109-.125.556-.927 1.361-.835 2.105-.306.489.347.963.713 1.447 1.067.734.541.728 1.049.28 1.781zm-4.18-9.597c-.187 0-.375.015-.559.046a.572.572 0 1 1-.188-1.128 4.494 4.494 0 0 1 5.174 5.176.572.572 0 0 1-1.127-.189 3.35 3.35 0 0 0-3.3-3.905zM18 12.857a.571.571 0 0 1-1.142 0c0-.945-.769-1.714-1.714-1.714a.571.571 0 0 1 0-1.142A2.859 2.859 0 0 1 18 12.857zm3.846.697a.57.57 0 0 1-.684.431.571.571 0 0 1-.431-.683 5.045 5.045 0 0 0-6.034-6.034.57.57 0 1 1-.252-1.114 6.188 6.188 0 0 1 7.401 7.4z"/></svg>
