<svg width="17" height="16" viewBox="0 0 17 16" fill="none" xmlns="http://www.w3.org/2000/svg"><g clip-path="url(#a)"><path d="M15.995 11.734c-.6-1.078-2.143-2.373-2.78-2.937a.414.414 0 0 1-.034-.592c1.216-1.306 2.188-2.807 2.523-3.714a.618.618 0 0 0-.589-.824h-1.25c-.413 0-.655.148-.77.383-1.01 2.07-1.877 2.967-2.483 3.49a.526.526 0 0 1-.87-.396v-2.76a.695.695 0 0 0-.698-.691L6.76 3.667a.346.346 0 0 0-.28.554l.378.541c.142.188.219.416.219.65l-.002 2.44c0 .424-.515.632-.82.334-1.033-1.006-1.93-3.06-2.252-4.042a.696.696 0 0 0-.662-.477l-1.232-.003c-.462 0-.8.438-.675.88 1.126 3.952 3.437 7.712 7.554 8.12a.694.694 0 0 0 .756-.692V10.69c0-.367.288-.683.659-.693h.039c1.088 0 2.308 1.585 2.735 2.326a.69.69 0 0 0 .6.344h1.658a.631.631 0 0 0 .56-.933Z" fill="#fff"/></g><defs><clipPath id="a"><path fill="#fff" transform="translate(.74)" d="M0 0h16v16H0z"/></clipPath></defs></svg>
