<svg width="9" height="6" fill="none" viewBox="0 0 9 6" xmlns="http://www.w3.org/2000/svg"><path d="m4.023.13-1.66 1.38H.458c-.248 0-.448.167-.448.373v2.234c0 .206.2.373.448.373h1.905l1.66 1.38c.28.233.765.07.765-.263V.393c0-.333-.485-.496-.765-.263ZM8.968 3c0-.986-.598-1.892-1.6-2.425-.21-.11-.486-.059-.619.116-.132.175-.07.407.139.518C7.63 1.603 8.073 2.272 8.073 3S7.63 4.397 6.888 4.791c-.21.111-.27.343-.139.518.122.16.395.235.619.116 1.002-.533 1.6-1.439 1.6-2.425ZM6.322 1.807c-.216-.098-.488-.033-.608.147s-.04.406.176.506c.241.11.39.317.39.54 0 .223-.149.43-.39.54-.216.1-.295.326-.176.506.12.181.393.245.609.147.527-.241.854-.698.854-1.193 0-.495-.327-.952-.855-1.193Z" fill="#fff"/></svg>
