<svg width="17" height="16" viewBox="0 0 17 16" fill="none" xmlns="http://www.w3.org/2000/svg"><path d="M8.74 1.6A6.4 6.4 0 0 0 2.34 8c0 1.2.338 2.32.913 3.28l-.855 3.12 3.186-.837c.932.53 2.008.837 3.156.837a6.4 6.4 0 0 0 0-12.8ZM6.55 5.015c.104 0 .21-.001.303.004.114.002.238.01.357.274.141.312.45 1.096.489 1.176.04.08.067.173.012.277-.052.106-.08.171-.156.265-.08.092-.167.206-.239.275-.08.08-.161.167-.07.325.092.159.41.678.882 1.097.605.541 1.116.707 1.275.787.159.08.25.067.343-.04.094-.104.396-.46.503-.62.104-.159.21-.131.354-.079.146.052.925.436 1.084.516.16.08.263.119.303.183.041.067.041.384-.09.754-.132.37-.779.727-1.069.752-.293.028-.566.132-1.903-.394-1.613-.636-2.63-2.287-2.71-2.394-.079-.104-.645-.859-.645-1.638 0-.78.41-1.164.553-1.323a.583.583 0 0 1 .424-.197Z" fill="#fff"/></svg>
