<svg width="16" height="16" viewBox="0 0 16 16" fill="none" xmlns="http://www.w3.org/2000/svg"><g clip-path="url(#a)"><path d="M0 0h1.067v7.467H0V0Zm1.067 6.4h6.4v1.067h-6.4V6.4ZM6.4 0h1.067v6.4H6.4V0ZM1.067 0H6.4v1.067H1.067V0Zm1.066 2.133h3.2v3.2h-3.2v-3.2ZM8.533 0H9.6v1.067H8.533V0Zm2.134 0h1.066v1.067h-1.066V0ZM12.8 0h1.067v1.067H12.8V0Zm-2.133 3.2h1.066v1.067h-1.066V3.2ZM8.533 2.133H9.6v2.134H8.533V2.133Zm3.2 0h2.134V3.2h-2.134V2.133ZM13.867 3.2h1.066v1.067h-1.066V3.2Zm1.066 4.267H16v1.066h-1.067V7.467Zm0-7.467H16v6.4h-1.067V0Zm-3.2 6.4h3.2v1.067h-3.2V6.4ZM12.8 5.333h2.133V6.4H12.8V5.333Zm0-1.066h1.067v1.066H12.8V4.267ZM8.533 5.333h3.2V6.4h-3.2V5.333ZM9.6 6.4h1.067v4.267H9.6V6.4Zm1.067 2.133H12.8V9.6h-2.133V8.533Zm-1.067 3.2h1.067V12.8H9.6v-1.067ZM4.267 12.8h1.066v1.067H4.267V12.8ZM3.2 14.933h1.067V16H3.2v-1.067Zm-3.2 0h1.067V16H0v-1.067ZM0 12.8h1.067v1.067H0V12.8Zm1.067 0h1.066V16H1.067v-3.2ZM9.6 14.933h1.067V16H9.6v-1.067ZM10.667 9.6h1.066v5.333h-1.066V9.6Zm1.066 3.2H12.8V16h-1.067v-3.2Zm1.067 0h1.067v1.067H12.8V12.8Zm1.067 1.067h1.066v1.066h-1.066v-1.066Zm1.066-1.067H16v1.067h-1.067V12.8ZM12.8 10.667h1.067v1.066H12.8v-1.066ZM8.533 12.8H9.6v2.133H8.533V12.8ZM6.4 11.733h1.067v2.134H6.4v-2.134Zm7.467 0h1.066V12.8h-1.066v-1.067Zm-1.067 3.2H16V16h-3.2v-1.067ZM6.4 9.6h2.133v1.067H6.4V9.6ZM0 8.533h6.4V9.6H0V8.533ZM2.133 9.6h2.134v1.067H2.133V9.6ZM0 10.667h5.333v1.066H0v-1.066Z" fill="#fff" fill-opacity=".9"/></g><defs><clipPath id="a"><path fill="#fff" d="M0 0h16v16H0z"/></clipPath></defs></svg>