<svg width="14" height="13" viewBox="0 0 14 13" fill="none" xmlns="http://www.w3.org/2000/svg"><path d="M6.258.281 3.675 3.272H.712c-.385 0-.696.361-.696.807v4.842c0 .446.311.807.696.807h2.963l2.583 2.99c.437.506 1.19.151 1.19-.57V.852c0-.722-.754-1.075-1.19-.57Zm7.693 6.22c0-2.137-.93-4.101-2.49-5.254-.325-.24-.756-.129-.962.25-.206.38-.11.882.215 1.122 1.154.854 1.843 2.305 1.843 3.881 0 1.577-.689 3.027-1.843 3.881-.325.24-.42.742-.215 1.122.19.348.613.509.962.25 1.56-1.153 2.49-3.116 2.49-5.253ZM9.835 3.914c-.336-.212-.76-.072-.947.318-.185.39-.062.881.275 1.097.374.238.607.687.607 1.17 0 .484-.233.932-.607 1.17-.337.216-.46.707-.274 1.097.186.392.61.531.946.318.82-.523 1.33-1.513 1.33-2.585s-.51-2.062-1.33-2.585Z" fill="#fff"/><defs><clipPath id="a"><path fill="#fff" d="M0 0h14v13H0z"/></clipPath></defs></svg>