<svg width="196" height="19" viewBox="0 0 196 19" fill="none" xmlns="http://www.w3.org/2000/svg"><path d="M1.51 16V4.48h4.345c.112 0 .232.005.36.016.133.005.272.021.416.048.576.09 1.069.299 1.48.624a3.1 3.1 0 0 1 .952 1.216 3.87 3.87 0 0 1 .328 1.608c0 .848-.227 1.587-.68 2.216-.454.63-1.086 1.03-1.896 1.2l-.264.104H2.43V16h-.92Zm7.097 0-2.272-4.688.856-.432L9.687 16h-1.08ZM2.43 10.608h3.408a4.748 4.748 0 0 0 .712-.064 2.164 2.164 0 0 0 1.04-.504c.277-.256.485-.563.624-.92a3.09 3.09 0 0 0 .208-1.128c0-.395-.07-.768-.208-1.12a2.363 2.363 0 0 0-.624-.912 2.128 2.128 0 0 0-1.04-.512 3.828 3.828 0 0 0-.712-.072H2.43v5.232Zm12.577 5.632c-.826 0-1.541-.184-2.144-.552a3.73 3.73 0 0 1-1.4-1.576c-.33-.683-.496-1.488-.496-2.416 0-.944.163-1.757.488-2.44.33-.688.795-1.216 1.392-1.584.603-.368 1.317-.552 2.144-.552.837 0 1.552.192 2.144.576.598.379 1.05.928 1.36 1.648.315.72.464 1.587.448 2.6h-.96v-.32c-.027-1.184-.293-2.085-.8-2.704-.507-.619-1.232-.928-2.176-.928-.976 0-1.73.323-2.264.968-.528.64-.792 1.547-.792 2.72 0 1.163.264 2.064.792 2.704.534.64 1.283.96 2.248.96.667 0 1.248-.155 1.744-.464.502-.315.899-.763 1.192-1.344l.832.368c-.347.747-.848 1.323-1.504 1.728s-1.405.608-2.248.608ZM11.6 11.944v-.832h6.824v.832H11.6Zm11.454 4.296c-.667 0-1.222-.117-1.664-.352-.438-.235-.766-.544-.985-.928a2.538 2.538 0 0 1-.328-1.264c0-.49.102-.901.304-1.232.209-.33.483-.597.825-.8a4.24 4.24 0 0 1 1.143-.456c.475-.107.987-.197 1.537-.272.549-.08 1.072-.15 1.567-.208.502-.059.91-.11 1.224-.152l-.335.2c.02-.933-.155-1.627-.528-2.08-.369-.459-1.02-.688-1.953-.688-.655 0-1.197.15-1.623.448-.422.293-.718.75-.889 1.368l-.944-.264c.198-.784.595-1.387 1.192-1.808.598-.421 1.363-.632 2.296-.632.795 0 1.462.155 2 .464.544.31.923.744 1.136 1.304.091.23.152.499.184.808.032.304.049.61.049.92V16h-.84v-2.272l.311.08c-.26.779-.717 1.379-1.367 1.8-.651.421-1.422.632-2.313.632Zm.048-.848c.586 0 1.1-.104 1.543-.312.443-.213.8-.51 1.073-.888.277-.384.453-.835.527-1.352.054-.288.083-.6.088-.936.006-.336.009-.584.009-.744l.4.256c-.347.043-.763.088-1.248.136-.48.048-.971.107-1.473.176-.5.07-.954.157-1.36.264-.25.07-.504.17-.76.304-.25.128-.46.307-.631.536-.166.23-.248.52-.248.872 0 .261.064.523.192.784.133.261.352.477.655.648.305.17.715.256 1.233.256Zm9.765.848c-.864 0-1.592-.192-2.184-.576a3.706 3.706 0 0 1-1.352-1.608c-.304-.688-.462-1.48-.472-2.376.01-.912.17-1.71.48-2.392.314-.688.768-1.221 1.36-1.6.592-.379 1.317-.568 2.176-.568.837 0 1.573.203 2.208.608.64.4 1.082.952 1.328 1.656l-.896.328a2.567 2.567 0 0 0-1.032-1.248c-.47-.299-1.008-.448-1.616-.448-.683 0-1.246.157-1.688.472-.443.31-.774.739-.992 1.288-.219.55-.334 1.184-.344 1.904.016 1.104.274 1.992.776 2.664.506.667 1.256 1 2.248 1 .613 0 1.144-.141 1.592-.424.453-.283.8-.693 1.04-1.232l.912.312c-.336.73-.806 1.288-1.408 1.672-.603.379-1.315.568-2.136.568Zm9.806-.24a4.923 4.923 0 0 1-1.36.112 2.97 2.97 0 0 1-1.2-.296 1.75 1.75 0 0 1-.784-.832 2.43 2.43 0 0 1-.24-.92c-.016-.31-.024-.664-.024-1.064V4.96h.928v8.024c0 .363.002.664.008.904.01.235.066.45.168.648.192.368.496.592.912.672.416.075.946.061 1.592-.04V16Zm-5.544-7.8v-.84h5.544v.84h-5.544ZM47.526 16V4.48h6.504v.92h-5.584v4.376h4.624v.928h-4.624V16h-.92Zm7.938 0V7.36h.84v2.072l-.208-.272a3.31 3.31 0 0 1 .36-.68 2.81 2.81 0 0 1 .456-.52c.23-.213.498-.373.808-.48.31-.112.621-.176.936-.192.314-.021.6.003.856.072v.872a3.07 3.07 0 0 0-1.088-.048c-.384.048-.744.213-1.08.496a2.28 2.28 0 0 0-.64.896c-.134.336-.219.69-.256 1.064a10.68 10.68 0 0 0-.056 1.08V16h-.928Zm8.95.24c-.859 0-1.587-.195-2.184-.584a3.732 3.732 0 0 1-1.368-1.616c-.315-.688-.472-1.48-.472-2.376 0-.901.16-1.693.48-2.376.32-.688.779-1.221 1.376-1.6.603-.379 1.325-.568 2.168-.568.859 0 1.587.195 2.184.584a3.62 3.62 0 0 1 1.368 1.6c.315.683.472 1.47.472 2.36 0 .912-.157 1.712-.472 2.4a3.67 3.67 0 0 1-1.376 1.6c-.603.384-1.328.576-2.176.576Zm0-.896c1.019 0 1.779-.341 2.28-1.024.507-.683.76-1.568.76-2.656 0-1.11-.253-1.995-.76-2.656s-1.267-.992-2.28-.992c-.688 0-1.256.157-1.704.472-.448.31-.784.739-1.008 1.288-.219.544-.328 1.173-.328 1.888 0 1.11.256 2 .768 2.672.517.672 1.275 1.008 2.272 1.008ZM76.526 16v-4.496a5.75 5.75 0 0 0-.168-1.456 3.005 3.005 0 0 0-.496-1.088 2.106 2.106 0 0 0-.832-.68c-.33-.155-.722-.232-1.176-.232-.47 0-.877.083-1.224.248-.341.16-.624.387-.848.68a3.13 3.13 0 0 0-.496 1.048c-.106.4-.16.837-.16 1.312l-.728-.088c0-.933.157-1.701.472-2.304.32-.608.75-1.056 1.288-1.344a3.735 3.735 0 0 1 1.816-.44c.475 0 .899.07 1.272.208.379.139.707.336.984.592.277.25.507.55.688.896.181.341.315.717.4 1.128.09.41.136.84.136 1.288V16h-.928Zm-6.328 0V7.36h.84v1.944h.088V16h-.928Zm13.912 0a4.923 4.923 0 0 1-1.36.112 2.97 2.97 0 0 1-1.2-.296 1.75 1.75 0 0 1-.784-.832 2.43 2.43 0 0 1-.24-.92c-.016-.31-.024-.664-.024-1.064V4.96h.928v8.024c0 .363.003.664.008.904.01.235.067.45.168.648.192.368.496.592.912.672.416.075.947.061 1.592-.04V16Zm-5.544-7.8v-.84h5.544v.84h-5.544Zm7.035 3.176v-.84h4.8v.84h-4.8ZM92.479 16V4.48h7.12v.896h-6.2v4.376h5.24v.896H93.4v4.456h6.2V16h-7.12Zm15.375 0v-4.496a5.75 5.75 0 0 0-.168-1.456 2.995 2.995 0 0 0-.496-1.088 2.102 2.102 0 0 0-.832-.68c-.33-.155-.722-.232-1.176-.232-.469 0-.877.083-1.224.248-.341.16-.624.387-.848.68a3.14 3.14 0 0 0-.496 1.048c-.106.4-.16.837-.16 1.312l-.728-.088c0-.933.158-1.701.472-2.304.32-.608.75-1.056 1.288-1.344a3.736 3.736 0 0 1 1.816-.44c.475 0 .899.07 1.272.208.379.139.707.336.984.592.278.25.507.55.688.896.182.341.315.717.4 1.128.091.41.136.84.136 1.288V16h-.928Zm-6.328 0V7.36h.84v1.944h.088V16h-.928Zm12.617.24c-.816 0-1.507-.2-2.072-.6-.56-.405-.989-.952-1.288-1.64-.293-.693-.44-1.472-.44-2.336 0-.853.147-1.624.44-2.312.293-.688.715-1.232 1.264-1.632.555-.4 1.224-.6 2.008-.6.805 0 1.485.197 2.04.592.555.395.973.936 1.256 1.624.283.683.424 1.459.424 2.328 0 .864-.141 1.64-.424 2.328-.283.688-.693 1.235-1.232 1.64-.539.405-1.197.608-1.976.608Zm.056-.88c.645 0 1.181-.16 1.608-.48.432-.325.752-.765.96-1.32.213-.56.32-1.192.32-1.896 0-.71-.107-1.341-.32-1.896-.213-.555-.533-.987-.96-1.296-.427-.315-.957-.472-1.592-.472-.656 0-1.197.163-1.624.488-.427.32-.744.757-.952 1.312-.208.55-.312 1.17-.312 1.864 0 .699.107 1.328.32 1.888.219.555.539.995.96 1.32.427.325.957.488 1.592.488Zm2.888.64V9.344h-.08V4.48h.92V16h-.84Zm6.283 0V4.48h3.432c.133 0 .349.003.648.008.304.005.592.03.864.072.864.117 1.581.443 2.152.976.571.528.997 1.2 1.28 2.016.283.81.424 1.707.424 2.688 0 .987-.141 1.888-.424 2.704-.283.81-.709 1.48-1.28 2.008-.571.528-1.288.85-2.152.968a8.632 8.632 0 0 1-.872.072c-.304.005-.517.008-.64.008h-3.432Zm.968-.904h2.464c.24 0 .488-.005.744-.016a5.99 5.99 0 0 0 .656-.072c.715-.128 1.291-.41 1.728-.848.437-.443.755-1 .952-1.672.203-.677.304-1.427.304-2.248 0-.827-.101-1.576-.304-2.248-.203-.677-.523-1.235-.96-1.672-.437-.443-1.011-.725-1.72-.848a5.13 5.13 0 0 0-.672-.064 11.957 11.957 0 0 0-.728-.024h-2.464v9.712Zm13.17 1.144c-.827 0-1.541-.184-2.144-.552-.603-.373-1.069-.899-1.4-1.576-.331-.683-.496-1.488-.496-2.416 0-.944.163-1.757.488-2.44.331-.688.795-1.216 1.392-1.584.603-.368 1.317-.552 2.144-.552.837 0 1.552.192 2.144.576.597.379 1.051.928 1.36 1.648.315.72.464 1.587.448 2.6h-.96v-.32c-.027-1.184-.293-2.085-.8-2.704-.507-.619-1.232-.928-2.176-.928-.976 0-1.731.323-2.264.968-.528.64-.792 1.547-.792 2.72 0 1.163.264 2.064.792 2.704.533.64 1.283.96 2.248.96.667 0 1.248-.155 1.744-.464.501-.315.899-.763 1.192-1.344l.832.368c-.347.747-.848 1.323-1.504 1.728s-1.405.608-2.248.608Zm-3.408-4.296v-.832h6.824v.832H134.1ZM145.237 16l-3.136-8.64h.952l2.672 7.384 2.664-7.384h.96L146.213 16h-.976Zm8.802.24c-.826 0-1.541-.184-2.144-.552a3.737 3.737 0 0 1-1.4-1.576c-.33-.683-.496-1.488-.496-2.416 0-.944.163-1.757.488-2.44.331-.688.795-1.216 1.392-1.584.603-.368 1.318-.552 2.144-.552.838 0 1.552.192 2.144.576.598.379 1.051.928 1.36 1.648.315.72.464 1.587.448 2.6h-.96v-.32c-.026-1.184-.293-2.085-.8-2.704-.506-.619-1.232-.928-2.176-.928-.976 0-1.73.323-2.264.968-.528.64-.792 1.547-.792 2.72 0 1.163.264 2.064.792 2.704.534.64 1.283.96 2.248.96.667 0 1.248-.155 1.744-.464.502-.315.899-.763 1.192-1.344l.832.368c-.346.747-.848 1.323-1.504 1.728s-1.405.608-2.248.608Zm-3.408-4.296v-.832h6.824v.832h-6.824ZM159.905 16V4.24h.92V16h-.92Zm6.868.24c-.858 0-1.586-.195-2.184-.584a3.736 3.736 0 0 1-1.368-1.616c-.314-.688-.472-1.48-.472-2.376 0-.901.16-1.693.48-2.376.32-.688.779-1.221 1.376-1.6.603-.379 1.326-.568 2.168-.568.859 0 1.587.195 2.184.584a3.615 3.615 0 0 1 1.368 1.6c.315.683.472 1.47.472 2.36 0 .912-.157 1.712-.472 2.4a3.664 3.664 0 0 1-1.376 1.6c-.602.384-1.328.576-2.176.576Zm0-.896c1.019 0 1.779-.341 2.28-1.024.507-.683.76-1.568.76-2.656 0-1.11-.253-1.995-.76-2.656-.506-.661-1.266-.992-2.28-.992-.688 0-1.256.157-1.704.472-.448.31-.784.739-1.008 1.288-.218.544-.328 1.173-.328 1.888 0 1.11.256 2 .768 2.672.518.672 1.275 1.008 2.272 1.008Zm9.569.896c-.779 0-1.438-.203-1.976-.608-.539-.405-.95-.952-1.232-1.64-.283-.688-.424-1.464-.424-2.328 0-.87.141-1.645.424-2.328.282-.688.701-1.23 1.256-1.624.554-.395 1.234-.592 2.04-.592.784 0 1.453.2 2.008.6.554.4.976.944 1.263 1.632.294.688.441 1.459.441 2.312 0 .864-.15 1.643-.448 2.336-.294.688-.723 1.235-1.288 1.64-.56.4-1.248.6-2.064.6Zm-3.784 3.6V7.36h.84v6.656h.08v5.824h-.92Zm3.728-4.48c.634 0 1.162-.163 1.584-.488.426-.325.746-.765.96-1.32.218-.56.328-1.19.328-1.888 0-.693-.107-1.315-.32-1.864-.208-.555-.526-.992-.952-1.312-.422-.325-.96-.488-1.616-.488-.635 0-1.166.157-1.592.472-.427.31-.747.741-.96 1.296-.214.555-.32 1.187-.32 1.896 0 .704.104 1.336.312 1.896.213.555.533.995.96 1.32.432.32.97.48 1.616.48Zm9.175.88c-.826 0-1.541-.184-2.144-.552a3.737 3.737 0 0 1-1.4-1.576c-.33-.683-.496-1.488-.496-2.416 0-.944.163-1.757.488-2.44.331-.688.795-1.216 1.392-1.584.603-.368 1.318-.552 2.144-.552.838 0 1.552.192 2.144.576.598.379 1.051.928 1.36 1.648.315.72.464 1.587.448 2.6h-.96v-.32c-.026-1.184-.293-2.085-.8-2.704-.506-.619-1.232-.928-2.176-.928-.976 0-1.73.323-2.264.968-.528.64-.792 1.547-.792 2.72 0 1.163.264 2.064.792 2.704.534.64 1.283.96 2.248.96.667 0 1.248-.155 1.744-.464.502-.315.899-.763 1.192-1.344l.832.368c-.346.747-.848 1.323-1.504 1.728s-1.405.608-2.248.608Zm-3.408-4.296v-.832h6.824v.832h-6.824ZM191.167 16V7.36h.84v2.072l-.208-.272c.096-.245.216-.472.36-.68.149-.213.301-.387.456-.52.229-.213.499-.373.808-.48.309-.112.621-.176.936-.192.315-.021.6.003.856.072v.872a3.069 3.069 0 0 0-1.088-.048c-.384.048-.744.213-1.08.496a2.28 2.28 0 0 0-.64.896 3.93 3.93 0 0 0-.256 1.064c-.037.368-.056.728-.056 1.08V16h-.928Z" fill="#fff"/></svg>