<?xml version="1.0" standalone="no"?>
<!DOCTYPE svg PUBLIC "-//W3C//DTD SVG 20010904//EN"
 "http://www.w3.org/TR/2001/REC-SVG-20010904/DTD/svg10.dtd">
<svg version="1.0" xmlns="http://www.w3.org/2000/svg"
 width="700.000000pt" height="700.000000pt" viewBox="0 0 700.000000 700.000000"
 preserveAspectRatio="xMidYMid meet">
<metadata>
Created by potrace 1.14, written by Peter Selinger 2001-2017
</metadata>
<g transform="translate(0.000000,700.000000) scale(0.100000,-0.100000)"
fill="#000000" stroke="none">
<path d="M887 6984 c-413 -75 -741 -379 -855 -792 l-27 -97 0 -2595 0 -2595
27 -97 c106 -383 393 -670 777 -776 l96 -27 2595 0 2595 0 97 27 c384 106 670
392 776 776 l27 97 0 2595 0 2595 -27 97 c-106 384 -392 670 -776 776 l-97 27
-2565 2 c-2181 1 -2577 -1 -2643 -13z m2096 -1441 c18 -60 262 -863 543 -1785
280 -923 511 -1678 514 -1678 3 0 253 802 556 1783 l551 1782 422 3 423 2 -7
-27 c-3 -16 -302 -995 -663 -2178 l-658 -2150 -614 0 -615 0 -660 2160 c-364
1188 -664 2167 -667 2175 -4 8 -7 -965 -7 -2162 l-1 -2178 -410 0 -410 0 0
2180 0 2180 835 0 834 0 34 -107z"/>
</g>
</svg>
