<svg width="18" height="18" viewBox="0 0 18 18" fill="none" xmlns="http://www.w3.org/2000/svg"><path d="M16.765 6.934v6.76c0 .374-.134.695-.4.961-.267.267-.588.4-.962.4H2.87c-.375 0-.696-.133-.962-.4a1.312 1.312 0 0 1-.4-.961v-6.76c.25.278.536.525.86.74 2.054 1.397 3.464 2.376 4.23 2.938.324.238.587.424.788.557.202.134.47.27.805.409.334.139.647.209.936.209h.017c.29 0 .602-.07.937-.21.334-.138.603-.274.804-.408.202-.133.464-.319.788-.557.965-.698 2.378-1.678 4.24-2.938.323-.22.607-.468.85-.74Zm0-2.503c0 .448-.14.877-.417 1.285a4.048 4.048 0 0 1-1.04 1.047 6821.612 6821.612 0 0 0-3.983 2.767l-.362.26c-.185.133-.338.241-.46.324-.122.082-.27.174-.443.276a2.583 2.583 0 0 1-.49.23 1.352 1.352 0 0 1-.425.077h-.017c-.13 0-.272-.026-.426-.077a2.583 2.583 0 0 1-.49-.23 8.858 8.858 0 0 1-.442-.276 17.85 17.85 0 0 1-.46-.324 37.7 37.7 0 0 0-.361-.26c-.517-.363-1.26-.88-2.23-1.553-.971-.673-1.553-1.077-1.746-1.214a4.227 4.227 0 0 1-.996-.983c-.312-.417-.469-.804-.469-1.162 0-.443.118-.812.354-1.107.235-.295.572-.442 1.009-.442h12.532c.368 0 .688.133.957.4.27.267.405.587.405.962Z" fill="#fff"/></svg>