<svg width="18" height="18" viewBox="0 0 18 18" fill="none" xmlns="http://www.w3.org/2000/svg"><path d="M15.75 1.125H2.246a1.13 1.13 0 0 0-1.121 1.136v13.478a1.13 1.13 0 0 0 1.121 1.136H15.75c.619 0 1.125-.51 1.125-1.136V2.261c0-.626-.506-1.136-1.125-1.136Zm-9.865 13.5H3.551V7.109h2.338v7.516h-.004ZM4.718 6.082a1.354 1.354 0 0 1 0-2.707c.745 0 1.353.608 1.353 1.354 0 .748-.604 1.353-1.353 1.353Zm9.918 8.543H12.3v-3.656c0-.872-.017-1.994-1.213-1.994-1.216 0-1.402.95-1.402 1.93v3.72H7.35V7.109h2.24v1.026h.031c.313-.59 1.076-1.213 2.212-1.213 2.362 0 2.802 1.558 2.802 3.583v4.12Z" fill="#fff"/></svg>