<svg width="18" height="18" viewBox="0 0 18 18" fill="none" xmlns="http://www.w3.org/2000/svg"><path d="M2.186 8.856C6.9 6.783 12.998 4.255 13.84 3.905c2.209-.916 2.886-.74 2.548 1.288-.242 1.457-.943 6.283-1.5 9.287-.332 1.781-1.075 1.992-2.243 1.222-.561-.371-3.397-2.246-4.012-2.687-.562-.4-1.337-.883-.365-1.834.346-.339 2.612-2.503 4.378-4.187.231-.221-.06-.585-.326-.407-2.38 1.578-5.68 3.769-6.1 4.054-.635.43-1.244.629-2.338.314-.826-.237-1.634-.52-1.948-.628-1.21-.416-.923-.954.252-1.471Z" fill="#fff"/></svg>