<svg width="18" height="18" viewBox="0 0 18 18" fill="none" xmlns="http://www.w3.org/2000/svg"><path d="M17.161 13.2c-.674-1.212-2.41-2.67-3.126-3.303a.466.466 0 0 1-.039-.666c1.368-1.47 2.462-3.159 2.838-4.179.166-.45-.178-.927-.662-.927h-1.408c-.463 0-.735.167-.864.432-1.137 2.329-2.112 3.337-2.794 3.926a.592.592 0 0 1-.978-.446V4.932a.782.782 0 0 0-.786-.778l-2.571-.029a.39.39 0 0 0-.314.623l.424.61c.16.21.246.468.246.731l-.002 2.745c0 .477-.579.71-.922.376-1.162-1.132-2.17-3.443-2.534-4.548a.783.783 0 0 0-.744-.537l-1.386-.003c-.52 0-.9.493-.76.99 1.267 4.446 3.867 8.676 8.499 9.134a.78.78 0 0 0 .85-.777v-1.442c0-.414.324-.77.741-.78h.044c1.225 0 2.597 1.783 3.077 2.617.138.24.396.386.675.386h1.865c.544 0 .893-.577.631-1.05Z" fill="#fff"/></svg>