<svg width="18" height="18" viewBox="0 0 18 18" fill="none" xmlns="http://www.w3.org/2000/svg"><path d="M9 1.8A7.2 7.2 0 0 0 1.8 9c0 1.35.38 2.61 1.027 3.69l-.963 3.51 3.585-.941A7.162 7.162 0 0 0 9 16.2 7.2 7.2 0 0 0 9 1.8ZM6.536 5.641c.117 0 .237 0 .34.005.129.003.269.013.402.308.16.352.506 1.234.55 1.323.045.09.076.195.014.312-.059.12-.09.193-.176.299-.089.103-.187.231-.268.31-.09.089-.182.187-.078.365.103.178.461.762.99 1.234.682.608 1.256.795 1.435.885.18.089.283.075.386-.045.106-.117.446-.518.566-.697.117-.179.236-.148.398-.09.165.06 1.041.492 1.22.58.179.09.296.135.341.207.046.075.046.432-.102.848s-.876.818-1.202.847c-.33.03-.637.148-2.141-.445-1.814-.714-2.959-2.572-3.048-2.692-.09-.117-.727-.967-.727-1.843 0-.879.461-1.31.623-1.488a.655.655 0 0 1 .477-.223Z" fill="#fff"/></svg>