<svg width="134" height="23" viewBox="0 0 134 23" fill="none" xmlns="http://www.w3.org/2000/svg"><path d="M18.624 6.8V18h1.36V6.8h-1.36Zm3.922 0V18h5.76v-1.28h-4.4V6.8h-1.36Zm7.203 0V18h1.36V6.8h-1.36Zm4.994 7.84h5.92l-.48-1.28h-4.96l-.48 1.28Zm2.928-5.312 1.92 4.512.128.32L41.35 18h1.52l-5.2-11.76L32.47 18h1.52l1.664-3.936.128-.288 1.888-4.448Zm6.402 5.472h12v-1.2h-12v1.2Zm18.395.672L58.788 6.8h-1.52l5.2 11.76 5.2-11.76h-1.52l-3.68 8.672ZM69.781 18h5.648v-1.28h-5.648V18Zm0-9.92h5.648V6.8h-5.648v1.28Zm0 4.48h5.328v-1.28h-5.328v1.28ZM69.03 6.8V18h1.36V6.8h-1.36Zm7.677 1.28h2.88V18h1.36V8.08h2.88V6.8h-7.12v1.28Zm10.557 4.4 3.84 5.52h1.68l-4-5.52h-1.52Zm-2-5.68V18h1.36V6.8h-1.36Zm.752 1.2h2.288c.48 0 .902.085 1.264.256.374.17.662.416.864.736.214.32.32.71.32 1.168 0 .459-.106.848-.32 1.168-.202.32-.49.565-.864.736-.362.17-.784.256-1.264.256h-2.288v1.2h2.288c.726 0 1.371-.133 1.936-.4a3.31 3.31 0 0 0 1.36-1.168c.342-.512.512-1.11.512-1.792 0-.693-.17-1.29-.512-1.792a3.2 3.2 0 0 0-1.36-1.152c-.565-.277-1.21-.416-1.936-.416h-2.288V8Zm9.001 4.4c0-.843.182-1.595.544-2.256a4.206 4.206 0 0 1 1.52-1.568c.64-.384 1.366-.576 2.176-.576.822 0 1.547.192 2.177.576.64.384 1.141.907 1.504 1.568.373.661.56 1.413.56 2.256 0 .843-.187 1.595-.56 2.256a4.089 4.089 0 0 1-1.504 1.568c-.63.384-1.355.576-2.177.576-.81 0-1.535-.192-2.175-.576a4.206 4.206 0 0 1-1.52-1.568c-.363-.661-.544-1.413-.544-2.256Zm-1.44 0c0 .81.14 1.568.416 2.272a5.664 5.664 0 0 0 1.2 1.84 5.74 5.74 0 0 0 1.808 1.216 5.822 5.822 0 0 0 2.256.432c.822 0 1.574-.144 2.257-.432a5.744 5.744 0 0 0 1.808-1.216 5.467 5.467 0 0 0 1.184-1.84 5.942 5.942 0 0 0 .432-2.272c0-.821-.144-1.579-.432-2.272a5.296 5.296 0 0 0-1.184-1.824 5.406 5.406 0 0 0-1.808-1.216c-.683-.299-1.435-.448-2.257-.448-.81 0-1.562.15-2.256.448a5.403 5.403 0 0 0-1.808 1.216 5.483 5.483 0 0 0-1.2 1.824 6.063 6.063 0 0 0-.415 2.272Zm16.797 3.072-3.68-8.672h-1.52l5.2 11.76 5.2-11.76h-1.52l-3.68 8.672ZM119.2 5.69l-.63.39c.086.18.213.357.38.53.173.173.383.317.63.43.246.107.523.16.83.16.473 0 .853-.133 1.14-.4.293-.267.44-.6.44-1 0-.273-.067-.497-.2-.67-.127-.173-.3-.32-.52-.44a5.761 5.761 0 0 0-.73-.35 7.18 7.18 0 0 1-.46-.21 1.36 1.36 0 0 1-.36-.25.438.438 0 0 1-.14-.32.37.37 0 0 1 .18-.34.808.808 0 0 1 .43-.11c.24 0 .453.057.64.17.193.113.353.257.48.43l.64-.41a1.515 1.515 0 0 0-.39-.46 2.035 2.035 0 0 0-.58-.32 2.05 2.05 0 0 0-1.41.01c-.227.087-.414.22-.56.4-.14.18-.21.407-.21.68 0 .267.066.49.2.67.14.173.31.317.51.43.206.107.41.2.61.28.18.067.35.14.51.22.16.073.29.167.39.28.106.107.16.24.16.4 0 .18-.067.323-.2.43-.127.1-.304.15-.53.15-.187 0-.36-.033-.52-.1a1.467 1.467 0 0 1-.41-.29c-.12-.12-.227-.25-.32-.39ZM123.043.6c0 .147.053.277.16.39.113.107.243.16.39.16a.532.532 0 0 0 .39-.16.551.551 0 0 0 .16-.39.53.53 0 0 0-.16-.39.532.532 0 0 0-.39-.16.552.552 0 0 0-.39.16.53.53 0 0 0-.16.39Zm.15 1.9v4.6h.8V2.5h-.8Zm1.748 0v.75h2.3V2.5h-2.3Zm.75-1.6v6.2h.8V.9h-.8Zm4.132 6.3c.493 0 .92-.097 1.28-.29.367-.2.67-.493.91-.88l-.65-.41c-.167.28-.37.49-.61.63-.24.133-.517.2-.83.2-.313 0-.58-.067-.8-.2a1.256 1.256 0 0 1-.5-.58c-.113-.253-.17-.56-.17-.92.007-.353.067-.65.18-.89.12-.247.287-.433.5-.56.22-.133.483-.2.79-.2.26 0 .487.057.68.17.193.113.343.27.45.47.113.2.17.437.17.71 0 .047-.01.107-.03.18a.691.691 0 0 1-.06.15l.32-.46h-3.3V5h3.93v-.09c.007-.053.01-.103.01-.15 0-.487-.087-.907-.26-1.26a1.838 1.838 0 0 0-.75-.81c-.32-.193-.707-.29-1.16-.29-.453 0-.853.1-1.2.3-.34.2-.607.48-.8.84-.187.36-.28.78-.28 1.26 0 .473.09.89.27 1.25.187.36.443.643.77.85.333.2.713.3 1.14.3Z" fill="#fff"/></svg>