<svg width="151" height="23" viewBox="0 0 151 23" fill="none" xmlns="http://www.w3.org/2000/svg"><path d="m31.352 8.32.08-2.08-9.76 10.24-.08 2.08 9.76-10.24Zm-8.4-1.52h-1.36v11.76l1.36-1.76v-10Zm8.48-.56L30.073 8v10h1.36V6.24Zm10.535.56h-7.6v7.04c0 .427-.032.821-.096 1.184s-.16.683-.288.96a1.801 1.801 0 0 1-.464.624.976.976 0 0 1-.64.224V18c.608 0 1.114-.176 1.52-.528.416-.352.725-.821.928-1.408.213-.587.32-1.221.32-1.904V8.08h4.96V18h1.36V6.8Zm2.563 0V18h1.36V6.8h-1.36Zm.752 5.76h2.288c.48 0 .901.08 1.264.24a1.8 1.8 0 0 1 .864.688c.213.31.32.693.32 1.152 0 .459-.107.843-.32 1.152-.203.31-.49.544-.864.704-.363.15-.784.224-1.264.224h-2.288V18h2.288c.725 0 1.37-.133 1.936-.4a3.31 3.31 0 0 0 1.36-1.168c.341-.512.512-1.11.512-1.792 0-.693-.17-1.29-.512-1.792a3.2 3.2 0 0 0-1.36-1.152c-.565-.277-1.21-.416-1.936-.416h-2.288v1.28Zm12.414-.08h-1.52l-4 5.52h1.68l3.84-5.52Zm2-5.68h-1.36V18h1.36V6.8ZM58.944 8V6.8h-2.288c-.715 0-1.36.139-1.936.416a3.31 3.31 0 0 0-1.376 1.152c-.331.501-.496 1.099-.496 1.792 0 .683.165 1.28.496 1.792.341.501.8.89 1.376 1.168.576.267 1.221.4 1.936.4h2.288v-1.2h-2.288c-.48 0-.907-.085-1.28-.256a2.08 2.08 0 0 1-.864-.736c-.203-.32-.304-.71-.304-1.168 0-.459.101-.848.304-1.168a2.08 2.08 0 0 1 .864-.736c.373-.17.8-.256 1.28-.256h2.288Zm3.145 6.8h12v-1.2h-12v1.2Zm15.466-2.72h1.808c.672 0 1.254-.096 1.744-.288.502-.192.89-.475 1.168-.848.277-.373.416-.821.416-1.344 0-.64-.139-1.163-.416-1.568a2.477 2.477 0 0 0-1.168-.928c-.49-.203-1.072-.304-1.744-.304h-2.88V18h3.04c.726 0 1.37-.117 1.936-.352a3.066 3.066 0 0 0 1.36-1.088c.341-.49.512-1.104.512-1.84 0-.512-.096-.955-.288-1.328a2.398 2.398 0 0 0-.816-.912 3.533 3.533 0 0 0-1.2-.544 6.062 6.062 0 0 0-1.504-.176h-1.968v.752h1.968c.363 0 .694.048.992.144.299.085.555.219.768.4.224.181.395.405.512.672.117.267.176.57.176.912 0 .459-.106.848-.32 1.168-.203.32-.49.565-.864.736-.363.17-.784.256-1.264.256h-1.68V8h1.52c.566 0 1.035.15 1.408.448.373.288.56.699.56 1.232 0 .352-.085.65-.256.896-.17.245-.405.432-.704.56a2.535 2.535 0 0 1-1.008.192h-1.808v.752ZM86.157 18h5.648v-1.28h-5.648V18Zm0-9.92h5.648V6.8h-5.648v1.28Zm0 4.48h5.328v-1.28h-5.328v1.28Zm-.752-5.76V18h1.36V6.8h-1.36Zm7.677 1.28h2.88V18h1.36V8.08h2.88V6.8h-7.12v1.28Zm8.557-1.28V18h1.36V6.8h-1.36Zm.752 1.28h2.288c.726 0 1.312.176 1.76.528.459.341.688.859.688 1.552 0 .683-.229 1.2-.688 1.552-.448.352-1.034.528-1.76.528h-2.288v1.28h2.288c.726 0 1.371-.133 1.936-.4a3.305 3.305 0 0 0 1.36-1.168c.342-.512.512-1.11.512-1.792 0-.693-.17-1.29-.512-1.792a3.195 3.195 0 0 0-1.36-1.152c-.565-.277-1.21-.416-1.936-.416h-2.288v1.28Zm8.814 4.32c0-.843.181-1.595.544-2.256a4.204 4.204 0 0 1 1.52-1.568c.64-.384 1.365-.576 2.176-.576.821 0 1.547.192 2.176.576.64.384 1.141.907 1.504 1.568.373.661.56 1.413.56 2.256 0 .843-.187 1.595-.56 2.256a4.089 4.089 0 0 1-1.504 1.568c-.629.384-1.355.576-2.176.576-.811 0-1.536-.192-2.176-.576a4.204 4.204 0 0 1-1.52-1.568c-.363-.661-.544-1.413-.544-2.256Zm-1.44 0c0 .81.139 1.568.416 2.272a5.664 5.664 0 0 0 1.2 1.84 5.744 5.744 0 0 0 1.808 1.216 5.82 5.82 0 0 0 2.256.432c.821 0 1.573-.144 2.256-.432a5.744 5.744 0 0 0 1.808-1.216 5.451 5.451 0 0 0 1.184-1.84 5.942 5.942 0 0 0 .432-2.272c0-.821-.144-1.579-.432-2.272a5.281 5.281 0 0 0-1.184-1.824 5.406 5.406 0 0 0-1.808-1.216 5.57 5.57 0 0 0-2.256-.448c-.811 0-1.563.15-2.256.448a5.406 5.406 0 0 0-1.808 1.216 5.483 5.483 0 0 0-1.2 1.824 6.07 6.07 0 0 0-.416 2.272Zm14.353-.32h1.808c.672 0 1.253-.096 1.744-.288.501-.192.89-.475 1.168-.848.277-.373.416-.821.416-1.344 0-.64-.139-1.163-.416-1.568a2.482 2.482 0 0 0-1.168-.928c-.491-.203-1.072-.304-1.744-.304h-2.88V18h3.04c.725 0 1.37-.117 1.936-.352a3.068 3.068 0 0 0 1.36-1.088c.341-.49.512-1.104.512-1.84 0-.512-.096-.955-.288-1.328a2.398 2.398 0 0 0-.816-.912 3.546 3.546 0 0 0-1.2-.544 6.064 6.064 0 0 0-1.504-.176h-1.968v.752h1.968c.362 0 .693.048.992.144.298.085.554.219.768.4.224.181.394.405.512.672.117.267.176.57.176.912 0 .459-.107.848-.32 1.168-.203.32-.491.565-.864.736-.363.17-.784.256-1.264.256h-1.68V8h1.52c.565 0 1.034.15 1.408.448.373.288.56.699.56 1.232 0 .352-.086.65-.256.896a1.61 1.61 0 0 1-.704.56 2.537 2.537 0 0 1-1.008.192h-1.808v.752ZM134.11 4.7c0-.32.067-.603.2-.85.14-.253.327-.45.56-.59.24-.14.51-.21.81-.21.247 0 .477.04.69.12.22.073.41.173.57.3.16.127.273.267.34.42v-1c-.16-.187-.39-.33-.69-.43a2.643 2.643 0 0 0-.91-.16c-.447 0-.85.103-1.21.31-.36.207-.647.49-.86.85-.207.36-.31.773-.31 1.24 0 .46.103.873.31 1.24.213.36.5.643.86.85.36.207.763.31 1.21.31.313 0 .617-.05.91-.15.3-.107.53-.253.69-.44v-1c-.067.147-.18.287-.34.42-.16.127-.35.23-.57.31-.213.073-.443.11-.69.11-.3 0-.57-.07-.81-.21a1.644 1.644 0 0 1-.56-.59c-.133-.247-.2-.53-.2-.85Zm4.775.95c0-.187.044-.347.13-.48a.84.84 0 0 1 .39-.31c.18-.073.404-.11.67-.11a2.479 2.479 0 0 1 1.48.47v-.47a1.36 1.36 0 0 0-.26-.23 1.713 1.713 0 0 0-.51-.26 2.076 2.076 0 0 0-.75-.12c-.4 0-.746.063-1.04.19-.293.12-.52.293-.68.52-.16.227-.24.503-.24.83 0 .313.07.577.21.79.147.207.34.363.58.47.24.107.504.16.79.16.32 0 .61-.053.87-.16.26-.113.467-.273.62-.48.16-.213.24-.467.24-.76l-.16-.5c0 .287-.06.517-.18.69a.974.974 0 0 1-.48.38c-.206.08-.443.12-.71.12-.18 0-.343-.027-.49-.08a.866.866 0 0 1-.35-.25.66.66 0 0 1-.13-.41Zm0-2.17c.074-.053.174-.117.3-.19.134-.08.29-.147.47-.2.18-.06.38-.09.6-.09.254 0 .477.06.67.18.2.113.3.287.3.52V7h.8V3.7c0-.3-.076-.553-.23-.76a1.348 1.348 0 0 0-.62-.47 2.287 2.287 0 0 0-.92-.17c-.413 0-.766.063-1.06.19a3.7 3.7 0 0 0-.7.38l.39.61Zm8.344-.28.05-1.15-3.8 4.15-.05 1.15 3.8-4.15Zm-3-.8h-.8v4.95l.8-1.1V2.4Zm3.05-.35-.8 1.1V7h.8V2.05Zm-3.48-2c0 .227.057.45.17.67.12.213.297.39.53.53.24.133.533.2.88.2.353 0 .647-.067.88-.2.233-.14.407-.317.52-.53.12-.22.18-.443.18-.67h-.71c0 .087-.023.19-.07.31a.747.747 0 0 1-.26.31c-.127.087-.307.13-.54.13-.233 0-.413-.043-.54-.13a.747.747 0 0 1-.26-.31.873.873 0 0 1-.07-.31h-.71Zm4.329 2.35v.75h2.7V2.4h-2.7Zm.95.2V7h.8V2.6h-.8Z" fill="#fff"/></svg>