<svg width="40" height="18" viewBox="0 0 40 18" fill="none" xmlns="http://www.w3.org/2000/svg"><path d="M0 5.004c0-1.52.204-2.644.612-3.372C1.028.904 1.8.54 2.928.54c.872 0 1.848.1 2.928.3v.708h-.108a6.877 6.877 0 0 0-.288-.024 55.63 55.63 0 0 0-.924-.048l-.552-.024c-.176-.008-.36-.012-.552-.012a11.683 11.683 0 0 0-.504-.012c-.52 0-.924.1-1.212.3-.28.192-.488.548-.624 1.068-.136.512-.204 1.256-.204 2.232 0 2.384.68 3.576 2.04 3.576l2.928-.084v.708c-.944.176-1.92.264-2.928.264C.976 9.492 0 7.996 0 5.004ZM6.697 9.42V.012h.888v3.78c.024-.008.112-.056.264-.144.152-.096.245-.152.277-.168.04-.016.128-.06.264-.132.135-.08.231-.128.287-.144.056-.016.149-.048.277-.096.127-.048.231-.08.311-.096.088-.016.192-.032.313-.048.12-.016.24-.024.36-.024.607 0 1.087.2 1.44.6.351.4.527.88.527 1.44v4.44h-.887V4.98c0-.384-.1-.672-.3-.864-.193-.192-.453-.288-.78-.288-.305 0-.593.032-.865.096a4.109 4.109 0 0 0-.66.204c-.16.064-.436.192-.828.384V9.42h-.888ZM12.805 2.016v-.648c0-.2.096-.3.288-.3h.6c.184 0 .276.1.276.3v.648c0 .184-.092.276-.276.276h-.6c-.192 0-.288-.092-.288-.276Zm.12 7.404V3.048h.888V9.42h-.888ZM14.992 7.152V.024h.888v7.128c0 .488.056.828.168 1.02a.792.792 0 0 0 .516.36c.656.168 1.012.252 1.068.252v.636h-1.056c-1.056 0-1.584-.756-1.584-2.268ZM18.17 6.264c0-.464.024-.868.072-1.212.056-.352.152-.696.288-1.032a1.68 1.68 0 0 1 .648-.792c.296-.184.66-.276 1.092-.276.296 0 .672.044 1.128.132.456.088.864.204 1.224.348V0h.876v9.42h-.636l-.24-.708c-.2.144-.552.312-1.056.504-.496.184-.928.276-1.296.276-.416 0-.768-.096-1.056-.288a1.771 1.771 0 0 1-.648-.78 4.824 4.824 0 0 1-.312-1.02 7.266 7.266 0 0 1-.084-1.14Zm.888 0c0 1.56.404 2.34 1.212 2.34.664 0 1.448-.184 2.352-.552v-3.9a9.325 9.325 0 0 0-2.352-.312c-.416 0-.724.172-.924.516-.192.344-.288.98-.288 1.908Z" fill="currentColor"/><path d="M22.864 17.5V8.716h3.744c1.352 0 2.028.88 2.028 2.64 0 1.536-.508 2.376-1.524 2.52L28.96 17.5H28l-1.848-3.588-2.4-.168V17.5h-.888Zm.888-4.548h2.856c.144 0 .256-.004.336-.012.08-.008.176-.036.288-.084a.554.554 0 0 0 .264-.24c.064-.112.12-.272.168-.48.048-.216.072-.476.072-.78 0-.704-.104-1.168-.312-1.392a1.044 1.044 0 0 0-.816-.348h-2.856v3.336ZM29.558 14.284c0-.704.048-1.268.144-1.692.096-.432.268-.756.516-.972a1.84 1.84 0 0 1 .84-.432c.312-.072.74-.108 1.284-.108.44 0 .784.02 1.032.06.248.04.492.132.732.276.24.144.412.372.516.684.104.312.156.724.156 1.236 0 .976-.548 1.464-1.644 1.464h-2.688c0 .744.084 1.244.252 1.5.168.248.488.372.96.372h.504c1.12 0 1.952-.04 2.496-.12v.672c-.792.224-1.792.336-3 .336-.808 0-1.36-.232-1.656-.696-.296-.464-.444-1.324-.444-2.58Zm.888-.36h2.688c.504 0 .756-.196.756-.588 0-.616-.092-.996-.276-1.14-.176-.152-.596-.228-1.26-.228-.28 0-.488.004-.624.012a3.209 3.209 0 0 0-.468.072c-.176.032-.304.088-.384.168-.072.08-.152.192-.24.336-.08.144-.132.328-.156.552a7.83 7.83 0 0 0-.036.816ZM35.202 12.016v-.684l1.164-.204V9.94c0-.176.004-.324.012-.444.008-.128.04-.288.096-.48.056-.2.132-.36.228-.48.096-.128.24-.236.432-.324.2-.096.436-.144.708-.144.496 0 1.056.096 1.68.288v.588l-1.476-.012h-.036c-.176 0-.32.024-.432.072a.452.452 0 0 0-.228.228c-.04.104-.068.204-.084.3a5.253 5.253 0 0 0-.012.408v1.188h1.776v.888h-1.776V17.5h-.888v-5.484h-1.164Z" fill="currentColor"/><path d="M8.269 14.5h10m0 0c0-1-2.5-2.5-2.5-2.5m2.5 2.5c0 1-2.5 2.5-2.5 2.5" stroke="currentColor" stroke-width=".7"/></svg>