<svg width="33" height="21" viewBox="0 0 33 21" fill="none" xmlns="http://www.w3.org/2000/svg"><path d="m5.864 9.152.035-.972-.633-.059.14-5.086L1.95 3a3.67 3.67 0 0 1 .111-.861 1.06 1.06 0 0 1 .31-.516 1.11 1.11 0 0 1 .546-.24c.226-.04.505-.055.837-.047L3.778.305a5.357 5.357 0 0 0-.48-.024c-.47 0-.858.063-1.167.188a1.753 1.753 0 0 0-.732.539c-.18.234-.309.52-.387.855A5.527 5.527 0 0 0 .895 3h-.82L.05 4.031h.856v3.89l-.774.024v1.032h2.473l.035-.973-.68.023V4.102l2.25-.047v3.949l-.492.035v1.02l2.145.093Z" fill="currentColor"/><path d="M5.348 1.916a.712.712 0 0 0 .059-.287.751.751 0 0 0-.451-.68.712.712 0 0 0-.288-.058.752.752 0 0 0-.68.451.712.712 0 0 0-.058.287.752.752 0 0 0 .451.68c.09.039.186.058.287.058.102 0 .198-.02.288-.058a.751.751 0 0 0 .392-.393ZM10.973 9.105l.117-.937-.597-.059.035-1.623c.015-.539.023-1.08.023-1.623 0-.136-.004-.279-.011-.427a3.308 3.308 0 0 0-.053-.446 2.235 2.235 0 0 0-.117-.416 1.11 1.11 0 0 0-.2-.351.92.92 0 0 0-.316-.24 1.056 1.056 0 0 0-.451-.088c-.149 0-.295.025-.44.076-.14.047-.275.111-.404.193a2.192 2.192 0 0 0-.633.621l-.035-.832-1.687.059-.024.996.856.058.035 3.809-.574.035v1.078l2.027-.023-.059-.95H7.95c.008-.44.013-.88.017-1.318.008-.437.022-.877.041-1.318.004-.137.024-.287.059-.451.035-.164.09-.317.164-.457.074-.14.17-.258.287-.352a.678.678 0 0 1 .44-.146c.117 0 .212.027.287.082a.558.558 0 0 1 .181.21c.043.087.073.18.088.282.02.101.03.2.03.293 0 .531-.006 1.06-.018 1.588-.008.527-.018 1.056-.03 1.588l-.515.058.023.95 1.97.081Z" fill="currentColor"/><path fill-rule="evenodd" clip-rule="evenodd" d="m16.047 9.012-1.57.047-.082-.68c-.129.21-.3.377-.516.498a1.385 1.385 0 0 1-.691.182c-.242 0-.451-.051-.627-.153a1.51 1.51 0 0 1-.445-.404 2.346 2.346 0 0 1-.3-.574 4.723 4.723 0 0 1-.175-.662 6.78 6.78 0 0 1-.082-.668A8.467 8.467 0 0 1 11.536 6a5.827 5.827 0 0 1 .152-1.29c.059-.23.133-.454.223-.673a2.68 2.68 0 0 1 .34-.586 1.6 1.6 0 0 1 .48-.41c.184-.105.395-.158.633-.158.183 0 .357.049.521.146.168.094.3.217.393.37v-1.91h-1.055V.48l2.145.036-.094 7.546.773-.023v.973Zm-1.804-4.325a1.836 1.836 0 0 0-.1-.234 1.218 1.218 0 0 0-.158-.24.802.802 0 0 0-.205-.193.397.397 0 0 0-.24-.082.546.546 0 0 0-.34.11.971.971 0 0 0-.24.288c-.067.117-.124.25-.17.398a3.408 3.408 0 0 0-.1.44 5.782 5.782 0 0 0-.053.416 5.568 5.568 0 0 0-.011.328v.322a5.093 5.093 0 0 0 .076.902c.03.157.074.3.129.428a.936.936 0 0 0 .21.317.461.461 0 0 0 .323.117.533.533 0 0 0 .281-.082c.09-.059.172-.129.246-.211.074-.086.139-.176.194-.27a1.65 1.65 0 0 0 .134-.257l.024-2.497ZM22.534 8.941l.023-.937h-.633a21.7 21.7 0 0 0 .082-1.588c.008-.527.012-1.057.012-1.588 0-.273-.016-.523-.047-.75a1.503 1.503 0 0 0-.193-.586.94.94 0 0 0-.416-.38c-.18-.09-.418-.135-.715-.135a.734.734 0 0 0-.352.087 1.186 1.186 0 0 0-.293.217 1.55 1.55 0 0 0-.228.293c-.067.11-.12.215-.158.317v-.856l-.973.024.035 2.18.996.046a4.552 4.552 0 0 1 .322-.768c.055-.101.114-.19.176-.269a.961.961 0 0 1 .2-.2.366.366 0 0 1 .216-.075c.067 0 .121.029.164.088a.665.665 0 0 1 .118.216c.035.086.062.184.082.293.02.106.033.21.04.31a3.794 3.794 0 0 1 .03.44v.188c0 .058-.004.12-.012.187a1.43 1.43 0 0 0-.31-.07 2.04 2.04 0 0 0-.31-.023c-.267 0-.51.043-.733.128a1.606 1.606 0 0 0-.575.358c-.156.152-.279.338-.369.557a1.97 1.97 0 0 0-.129.726c0 .211.022.418.065.621.043.203.113.385.21.545.102.156.235.283.4.381.167.094.372.14.614.14.125 0 .252-.019.381-.058.133-.035.26-.084.381-.146a2.74 2.74 0 0 0 .346-.217c.11-.082.205-.168.287-.258l.059.68 1.207-.118ZM21.045 6.75v.855c0 .086-.035.16-.105.223a.93.93 0 0 1-.252.147 1.473 1.473 0 0 1-.545.11c-.195 0-.342-.062-.44-.187a.754.754 0 0 1-.146-.468c0-.301.088-.52.264-.657.176-.14.404-.21.685-.21.09 0 .188.011.293.035.11.023.192.074.246.152Z" fill="currentColor"/><path d="m27.637 9.105-1.968-.082-.024-.949.516-.058c.011-.532.021-1.06.029-1.588a70.98 70.98 0 0 0 .017-1.588c0-.094-.01-.192-.029-.293a.945.945 0 0 0-.088-.281.558.558 0 0 0-.181-.211.472.472 0 0 0-.287-.082.678.678 0 0 0-.44.146c-.117.094-.213.211-.287.352-.074.14-.129.293-.164.457a2.506 2.506 0 0 0-.059.45c-.02.442-.033.882-.04 1.32-.005.437-.01.876-.018 1.318h.515l.059.949-2.027.023V7.91l.574-.035-.035-3.809-.856-.058.024-.996 1.687-.059.035.832a2.201 2.201 0 0 1 .633-.62 1.83 1.83 0 0 1 .404-.194c.145-.051.292-.076.44-.076.176 0 .326.029.451.087a.92.92 0 0 1 .316.24c.086.102.153.22.2.352.05.13.09.268.117.416.027.145.045.293.053.446.007.148.011.29.011.427 0 .543-.008 1.084-.023 1.623l-.035 1.623.597.059-.117.937Z" fill="currentColor"/><path fill-rule="evenodd" clip-rule="evenodd" d="m31.141 9.059 1.57-.047v-.973l-.773.024.094-7.547L29.887.48v1.008h1.055v1.91a1.052 1.052 0 0 0-.393-.369 1.003 1.003 0 0 0-.521-.146c-.238 0-.45.053-.633.158a1.6 1.6 0 0 0-.48.41 2.677 2.677 0 0 0-.34.586c-.09.219-.164.443-.223.674A5.8 5.8 0 0 0 28.2 6c0 .179.008.378.023.597.016.218.043.441.082.668.043.226.102.447.176.662.078.215.178.406.299.574.125.168.273.303.445.404.176.102.385.153.627.153.246 0 .477-.061.692-.182.214-.121.386-.287.515-.498l.082.68Zm-.334-4.606c.043.086.076.164.1.234l-.024 2.497a1.65 1.65 0 0 1-.134.257c-.055.094-.12.184-.194.27a1.258 1.258 0 0 1-.246.21.533.533 0 0 1-.281.083.46.46 0 0 1-.322-.117.934.934 0 0 1-.211-.317 2.2 2.2 0 0 1-.13-.427 5.128 5.128 0 0 1-.075-.903v-.322c0-.09.004-.2.011-.328.012-.133.03-.272.053-.416.023-.149.057-.295.1-.44.046-.148.103-.28.17-.398a.97.97 0 0 1 .24-.287.546.546 0 0 1 .34-.112c.086 0 .166.028.24.083a.8.8 0 0 1 .205.193c.062.074.115.154.158.24Z" fill="currentColor"/><path d="M7.645 17.64c0 .22-.043.42-.129.604-.082.18-.195.338-.34.475a1.582 1.582 0 0 1-.504.31 1.61 1.61 0 0 1-.597.112.949.949 0 0 1-.534-.159 1.89 1.89 0 0 1-.416-.369l-.128.504-.739-.058.059-1.946 1.125.012a1.67 1.67 0 0 0-.024.293c0 .094.012.186.036.275a.798.798 0 0 0 .105.235c.047.07.107.127.182.17a.61.61 0 0 0 .275.058.41.41 0 0 0 .205-.052.539.539 0 0 0 .164-.147.622.622 0 0 0 .106-.193.564.564 0 0 0 .04-.205.842.842 0 0 0-.116-.446 1.392 1.392 0 0 0-.288-.357 2.33 2.33 0 0 0-.386-.281 6.409 6.409 0 0 0-.405-.229 2.74 2.74 0 0 1-.527-.346 1.565 1.565 0 0 1-.328-.398 1.676 1.676 0 0 1-.176-.492 3.619 3.619 0 0 1-.047-.615c0-.215.041-.415.123-.598.086-.184.202-.342.346-.475.145-.136.31-.242.498-.316.192-.074.393-.111.604-.111a.95.95 0 0 1 .533.158c.16.105.299.228.416.369l.129-.504.738.059-.059 1.945-1.125-.012a1.67 1.67 0 0 0 .024-.293 1.02 1.02 0 0 0-.035-.27.788.788 0 0 0-.106-.24.477.477 0 0 0-.187-.164.53.53 0 0 0-.27-.064.38.38 0 0 0-.205.059.562.562 0 0 0-.164.14.733.733 0 0 0-.111.194.647.647 0 0 0-.035.205c0 .171.035.324.105.457.074.132.166.252.275.357a2.5 2.5 0 0 0 .375.287c.141.082.28.156.416.223.204.105.373.219.51.34.14.12.254.256.34.404a1.6 1.6 0 0 1 .193.492c.04.18.059.381.059.604Z" fill="currentColor"/><path fill-rule="evenodd" clip-rule="evenodd" d="M11.852 16.387c.024-.305.035-.617.035-.938 0-.355-.017-.687-.053-.996a2.09 2.09 0 0 0-.234-.808c-.121-.23-.3-.41-.539-.54-.238-.132-.564-.199-.979-.199-.242 0-.455.047-.638.14-.184.09-.342.212-.475.364a2.021 2.021 0 0 0-.334.522c-.086.199-.154.406-.205.62a5.264 5.264 0 0 0-.14 1.26c0 .208.007.432.023.674.016.242.045.485.088.727.047.238.113.47.2.697.085.223.196.42.333.592s.303.31.498.416c.2.102.436.152.71.152.26 0 .49-.056.685-.17.195-.117.361-.267.498-.45a2.38 2.38 0 0 0 .328-.616c.082-.227.14-.451.176-.674h-1.02a2.13 2.13 0 0 1-.064.322 1.263 1.263 0 0 1-.135.317.794.794 0 0 1-.217.24.514.514 0 0 1-.31.094.49.49 0 0 1-.293-.088.81.81 0 0 1-.2-.24 1.705 1.705 0 0 1-.134-.334 4.255 4.255 0 0 1-.077-.375 7.074 7.074 0 0 1-.035-.364 4.604 4.604 0 0 1-.011-.298l2.52-.047Zm-1.101-2.098c.05.133.082.274.093.422a3.386 3.386 0 0 1-.012.879H9.322c0-.098.002-.21.006-.334.007-.125.02-.252.035-.381.015-.133.04-.262.076-.387.035-.129.084-.242.146-.34a.746.746 0 0 1 .235-.234.61.61 0 0 1 .346-.094.52.52 0 0 1 .375.135c.093.09.164.201.21.334Z" fill="currentColor"/><path d="m15.502 13.035-.023 1.055h-1.031l-.035 1.57c-.008.524-.012 1.05-.012 1.582 0 .125.023.235.07.328a.79.79 0 0 0 .48.387c.106.031.215.047.329.047h.1a.461.461 0 0 0 .099-.012v1.043c-.188.047-.379.07-.574.07-.254 0-.483-.044-.686-.134a1.566 1.566 0 0 1-.515-.375c-.141-.16-.25-.346-.329-.557a2.034 2.034 0 0 1-.11-.68c0-.547.003-1.091.01-1.634l.036-1.635h-.89v-1.055h.914l.07-2.039h1.113l-.047 2.04h1.031ZM20.77 14.47a1.66 1.66 0 0 1 .434-.158v-1.347c-.11.023-.227.064-.352.123a4.355 4.355 0 0 0-.709.41 6.06 6.06 0 0 0-.287.217v-.809l-1.57.153.035 1.078.62-.024-.081 3.774-.774.035-.082 1.113 2.86-.058v-1.055l-.856-.035a118.666 118.666 0 0 0 .024-2.32c0-.165.033-.315.1-.452a1.25 1.25 0 0 1 .263-.369c.11-.11.234-.201.375-.275Z" fill="currentColor"/><path fill-rule="evenodd" clip-rule="evenodd" d="M25.294 15.45c0 .32-.012.632-.036.937l-2.52.047c0 .082.005.181.012.298.008.114.02.235.036.364.02.125.045.25.076.375.035.12.08.232.135.334a.81.81 0 0 0 .199.24.49.49 0 0 0 .293.088.513.513 0 0 0 .31-.094.793.793 0 0 0 .217-.24c.059-.098.104-.203.135-.317.031-.113.053-.22.064-.322h1.02a3.658 3.658 0 0 1-.176.674 2.38 2.38 0 0 1-.328.615 1.718 1.718 0 0 1-.498.451c-.195.114-.424.17-.686.17-.273 0-.51-.05-.709-.152a1.605 1.605 0 0 1-.498-.416 2.24 2.24 0 0 1-.334-.592 4.313 4.313 0 0 1-.199-.697 6.617 6.617 0 0 1-.088-.727 10.53 10.53 0 0 1-.023-.674 5.255 5.255 0 0 1 .14-1.26c.051-.214.12-.421.206-.62.09-.2.2-.373.333-.522.133-.152.291-.273.475-.363.184-.094.397-.14.639-.14.414 0 .74.066.978.198.239.13.418.31.54.54.124.226.202.496.234.808.035.309.053.64.053.996Zm-1.044-.74a1.505 1.505 0 0 0-.093-.42.84.84 0 0 0-.211-.335.519.519 0 0 0-.375-.135.61.61 0 0 0-.346.094.746.746 0 0 0-.234.234 1.226 1.226 0 0 0-.147.34c-.035.125-.06.254-.076.387a6.498 6.498 0 0 0-.035.38c-.004.126-.006.237-.006.335h1.512a3.4 3.4 0 0 0 .011-.88Z" fill="currentColor"/><path d="m29.524 11.336.023-1.031a5.368 5.368 0 0 0-.48-.024c-.469 0-.858.063-1.166.188a1.753 1.753 0 0 0-.732.539c-.18.234-.31.52-.387.855A5.528 5.528 0 0 0 26.665 13h-.82l-.024 1.031h.855v3.89l-.773.024v1.032h2.473l.035-.973-.68.023v-3.96l.715.046.058-1.113h-.785c.012-.355.05-.643.112-.861a1.06 1.06 0 0 1 .31-.516c.14-.121.322-.201.545-.24.227-.04.506-.055.838-.047ZM16.8 21h13v-1h-13v1Z" fill="currentColor"/></svg>