<svg width="112" height="96" viewBox="0 0 112 96" fill="none" xmlns="http://www.w3.org/2000/svg"><path d="M5.9 73.081c0-.242.013-.54.041-.889.055-.378.136-.863.244-1.455.109-.62.245-1.36.408-2.223.19-.863.42-1.9.692-3.113.055-.269.177-.7.367-1.293.19-.594.434-1.213.733-1.86.326-.673.706-1.32 1.14-1.94.462-.619 1.005-1.077 1.63-1.374.461.107 1.072.392 1.832.849a5.955 5.955 0 0 1 1.955 1.819 15.276 15.276 0 0 0-1.589 2.102 27.469 27.469 0 0 0-1.14 2.182 47.092 47.092 0 0 0-.937 2.345 50.469 50.469 0 0 1-.936 2.546c-.304.77-.576 1.552-.815 2.345-.244.782-.38 1.469-.407 2.061 0 .485-.013.822-.04 1.01 0 .217-.068.324-.205.324-.108 0-.325-.067-.651-.202a4.633 4.633 0 0 1-1.018-.606 5.232 5.232 0 0 1-.896-1.092c-.271-.43-.408-.943-.408-1.536Zm7.78-17.543c0-.161.04-.404.121-.727a1.796 1.796 0 0 1-.366-.606 2.541 2.541 0 0 1-.122-.728c0-.242.026-.566.081-.97.082-.43.177-.89.285-1.374.108-.485.245-.984.407-1.496.163-.54.326-1.023.49-1.455.325 0 .718.095 1.18.283.49.161.978.391 1.466.687.49.27.937.58 1.345.93.407.323.719.633.936.93-.299.296-.692.713-1.18 1.252a21.832 21.832 0 0 0-1.426 1.658 45.56 45.56 0 0 0-1.263 1.617c-.38.511-.625.875-.733 1.09a1.682 1.682 0 0 1-.855-.403c-.245-.243-.367-.471-.367-.688Zm24.938 7.842c-.435.027-.964.31-1.588.85-.625.51-1.303 1.185-2.036 2.02a70.482 70.482 0 0 0-2.24 2.708 215.18 215.18 0 0 0-2.24 2.992c-.707.97-1.372 1.885-1.996 2.748a35.432 35.432 0 0 1-1.588 2.062 4.356 4.356 0 0 1-1.548-1.051 4.295 4.295 0 0 1-.937-1.779c.135-.835.326-1.698.57-2.587.245-.916.557-1.86.937-2.83.407-.97.896-1.98 1.466-3.03a36.097 36.097 0 0 1 2.159-3.396c-.407.026-.965.323-1.67.889-.706.54-1.466 1.253-2.28 2.142-.887.946-1.73 1.93-2.527 2.951a77.396 77.396 0 0 0-2.442 3.193 92.42 92.42 0 0 0-2.526 3.679c-.652 1.05-1.127 1.67-1.425 1.859-.706-.512-1.195-1.065-1.467-1.657a8.515 8.515 0 0 1-.611-1.98 20.44 20.44 0 0 1 .285-2.426c.19-.97.448-1.967.774-2.991a39.82 39.82 0 0 1 2.402-5.861 148.611 148.611 0 0 1 2.893-5.336c.76.162 1.439.417 2.037.768.623.35 1.275.863 1.953 1.536-.27.835-.69 1.724-1.26 2.668-.571.916-1.17 1.886-1.793 2.91a35.466 35.466 0 0 0-1.712 3.153 11.428 11.428 0 0 0-1.017 3.274c.76-1.077 1.656-2.318 2.687-3.719a70.136 70.136 0 0 1 3.219-3.96c1.112-1.24 2.212-2.291 3.299-3.154 1.085-.862 2.063-1.293 2.932-1.293.326 0 .679.054 1.06.162.378.107.732.242 1.058.404a5.4 5.4 0 0 1 .815.485c.216.135.338.242.366.323-.136.54-.462 1.28-.977 2.223a178.46 178.46 0 0 1-1.59 2.91 83.058 83.058 0 0 0-1.587 2.992c-.489.943-.774 1.697-.855 2.263a150.072 150.072 0 0 1 3.745-4.89c1.169-1.482 2.268-2.75 3.3-3.8 1.031-1.051 1.982-1.86 2.851-2.425.896-.566 1.738-.85 2.525-.85.543 0 1.045.148 1.507.445.49.27.828.674 1.019 1.213-.245.808-.652 1.779-1.222 2.91-.544 1.132-1.1 2.33-1.67 3.598a58.752 58.752 0 0 0-1.548 3.678c-.435 1.213-.651 2.304-.651 3.274 0 .566.081.944.244 1.132.163.162.393.243.692.243.326 0 .624-.055.896-.162.298-.135.516-.202.652-.202a.605.605 0 0 1 .285.404c.027.162.04.31.04.445a8.615 8.615 0 0 1-1.669 1.05 4.085 4.085 0 0 1-1.914.445c-.652 0-1.195-.107-1.63-.323a2.921 2.921 0 0 1-1.017-.89 3.475 3.475 0 0 1-.57-1.293 7.159 7.159 0 0 1-.164-1.576c0-.916.123-1.82.367-2.709.244-.915.53-1.778.855-2.587.353-.834.72-1.604 1.1-2.304.38-.727.705-1.374.977-1.94Zm21.245-3.92c.272 0 .584.054.936.161.381.08.72.202 1.019.364.299.135.543.283.733.444.217.162.325.31.325.445a55.76 55.76 0 0 0-1.506 3.436 40.6 40.6 0 0 0-1.181 3.274 32.11 32.11 0 0 0-.774 2.95c-.163.916-.245 1.712-.245 2.386 0 .754.082 1.388.245 1.9.163.484.435.834.814 1.05-.326.216-.746.39-1.262.526a5.523 5.523 0 0 1-1.385.202c-1.466 0-2.2-.998-2.2-2.991 0-1.536.517-3.638 1.548-6.306a25.416 25.416 0 0 1-1.873 3.517 25.672 25.672 0 0 1-2.159 2.87 13.051 13.051 0 0 1-2.24 2.061c-.733.512-1.411.822-2.036.93-1.004-.055-1.819-.526-2.444-1.415-.623-.916-.936-2.075-.936-3.476 0-1.51.325-3.099.977-4.77a21.855 21.855 0 0 1 2.484-4.648c1.033-1.428 2.146-2.615 3.34-3.557 1.195-.97 2.35-1.482 3.462-1.536.272.08.57.242.896.485.354.242.68.525.977.849.326.323.599.66.815 1.01.218.323.34.606.366.849-1.085.162-2.212.687-3.38 1.576a17.028 17.028 0 0 0-3.136 3.234 18.913 18.913 0 0 0-2.28 4.002c-.598 1.427-.897 2.762-.897 4.001 0 .512.191.835.57.97.788-.161 1.698-.82 2.73-1.98 1.031-1.186 2.28-3.005 3.746-5.457.273-.485.57-1.023.896-1.617a64.636 64.636 0 0 0 2.077-3.8c.338-.64.663-1.287.978-1.94ZM56.07 87.834c0-.162.055-.31.163-.445a4.8 4.8 0 0 1 .366-.404c.326.297.611.526.856.687.217.162.434.297.651.404.19.108.394.176.611.203.218.026.475.04.774.04 1.412 0 2.755-.378 4.032-1.132 1.277-.727 2.47-1.792 3.584-3.193 1.14-1.4 2.173-3.113 3.095-5.133.923-2.022 1.738-4.312 2.444-6.872-.326.323-.733.687-1.222 1.091-.462.378-.95.742-1.466 1.092-.516.35-1.032.673-1.548.97-.4.252-.823.468-1.262.647a3.105 3.105 0 0 1-1.303-.566 5.388 5.388 0 0 1-1.019-1.173 5.648 5.648 0 0 1-.692-1.536 6.986 6.986 0 0 1-.244-1.859c0-1.05.19-2.128.57-3.234a17.829 17.829 0 0 1 1.588-3.233 18.87 18.87 0 0 1 2.28-3.032 19.775 19.775 0 0 1 2.811-2.466 15.21 15.21 0 0 1 3.014-1.657c1.032-.43 2.036-.647 3.014-.647.95 0 1.656.203 2.117.607.49.377.842 1.037 1.06 1.98-.3-.161-.679-.242-1.14-.242-.653 0-1.412.256-2.282.768-.84.511-1.71 1.186-2.606 2.02a27.013 27.013 0 0 0-2.607 2.83 28.34 28.34 0 0 0-2.321 3.234 25.701 25.701 0 0 0-1.63 3.234c-.407 1.05-.61 1.994-.61 2.83 0 .189.014.309.04.363.027.026.068.04.123.04.244 0 .57-.135.977-.404.434-.269.91-.606 1.426-1.01.543-.431 1.1-.916 1.67-1.456a46.672 46.672 0 0 0 1.629-1.697 27.496 27.496 0 0 0 3.176-4.325c.978-1.617 1.752-3.18 2.322-4.69.664.042 1.32.164 1.955.365.57.19.963.391 1.18.606a175.345 175.345 0 0 0-2.24 5.295 382.756 382.756 0 0 0-1.425 3.8c-.668 1.774-1.36 3.54-2.077 5.295a49.996 49.996 0 0 1-1.955 4.446 28.298 28.298 0 0 1-2.158 3.8 25.63 25.63 0 0 1-2.607 3.395c-.465.515-1 .963-1.588 1.334-.56.399-1.16.737-1.792 1.01a9.426 9.426 0 0 1-1.792.607 6.91 6.91 0 0 1-1.589.202 8.595 8.595 0 0 1-1.995-.242 8.073 8.073 0 0 1-1.874-.607 6.12 6.12 0 0 1-1.547-.89c-.434-.323-.747-.672-.937-1.05Zm40.735-28.78c-.108 1.671-.407 3.113-.896 4.325a9.495 9.495 0 0 1-2.118 3.153c-.896.89-1.996 1.698-3.299 2.425-1.303.728-2.823 1.428-4.561 2.102 0 .162-.013.337-.041.526v.525c0 .35.028.714.081 1.091.055.378.15.728.285 1.052.137.323.326.593.57.808.245.19.558.283.937.283.733 0 1.454-.162 2.159-.485a11.325 11.325 0 0 0 1.996-1.172 16.68 16.68 0 0 0 1.792-1.536 70.859 70.859 0 0 0 1.507-1.536c.272.242.502.47.692.687-1.222 1.617-2.566 2.964-4.032 4.042-1.438 1.05-2.81 1.724-4.114 2.02-1.873-.215-3.34-.888-4.398-2.02-1.031-1.159-1.548-2.547-1.548-4.163 0-1.106.15-2.224.448-3.356a17.61 17.61 0 0 1 1.303-3.314 20.745 20.745 0 0 1 1.955-3.032 17.469 17.469 0 0 1 2.403-2.465 12.286 12.286 0 0 1 2.648-1.657c.924-.405 1.832-.607 2.728-.607 1.25.162 2.417.93 3.503 2.304Zm-2.81 1.334c-.733.107-1.493.404-2.281.89-.787.484-1.534 1.131-2.24 1.94a16.09 16.09 0 0 0-1.874 2.829 16.2 16.2 0 0 0-1.343 3.476c2.172-1.077 3.978-2.398 5.416-3.961 1.44-1.59 2.213-3.315 2.322-5.174ZM5.819 36.571c0-1.186.285-2.842.855-4.972.57-2.156 1.37-4.66 2.403-7.518 1.684-4.554 3.258-8.34 4.724-11.358 1.493-3.045 2.947-5.417 4.358-7.115.326.055.72.19 1.181.405.49.214.964.458 1.426.727a8.6 8.6 0 0 1 1.222.768c.38.27.625.485.733.647a49.809 49.809 0 0 0-5.58 8.003c-1.602 2.856-3.068 6.13-4.398 9.823-1.14 3.179-2.01 6.05-2.607 8.61-.598 2.532-.896 4.648-.896 6.345v.85c0 .107.013.214.04.323a3.208 3.208 0 0 1-.977-.283c-.27-.136-.448-.297-.53-.485-.054-.136-.203-.338-.447-.607a5.398 5.398 0 0 0-.652-.566c-.244-.161-.448-.58-.61-1.253a10.37 10.37 0 0 1-.245-2.344Zm23.15-13.743c.272 0 .584.054.938.162.379.08.719.202 1.018.363.297.135.542.283.733.445.216.162.326.31.326.445a54.205 54.205 0 0 0-1.507 3.435 40.106 40.106 0 0 0-1.181 3.274 31.69 31.69 0 0 0-.774 2.951c-.163.916-.245 1.712-.245 2.385 0 .754.082 1.388.245 1.9.163.485.434.835.814 1.05-.325.215-.747.392-1.262.526a5.551 5.551 0 0 1-1.385.202c-1.466 0-2.2-.998-2.2-2.99 0-1.537.516-3.639 1.547-6.306a25.427 25.427 0 0 1-1.873 3.516 25.553 25.553 0 0 1-2.158 2.87 13.098 13.098 0 0 1-2.24 2.062c-.733.511-1.412.82-2.036.93-1.005-.055-1.82-.526-2.444-1.416-.624-.915-.938-2.075-.938-3.476 0-1.51.328-3.098.98-4.77a21.798 21.798 0 0 1 2.484-4.648c1.03-1.427 2.144-2.615 3.338-3.557 1.195-.97 2.35-1.482 3.463-1.536.271.08.57.243.896.485.352.243.678.526.977.849.326.323.597.66.815 1.01.216.324.338.607.366.85-1.086.161-2.213.687-3.38 1.576a17.032 17.032 0 0 0-3.137 3.233 18.847 18.847 0 0 0-2.28 4.002c-.598 1.428-.896 2.763-.896 4.002 0 .511.19.835.57.97.787-.162 1.697-.821 2.73-1.98 1.03-1.187 2.28-3.006 3.746-5.458.271-.485.57-1.023.896-1.616.353-.594.705-1.213 1.06-1.86.349-.641.688-1.288 1.017-1.94.353-.673.679-1.32.978-1.94Zm3.048 15.764c0-.43.379-1.118 1.14-2.061.76-.97 1.764-2.062 3.014-3.275a73.263 73.263 0 0 1 4.358-3.88 92.147 92.147 0 0 1 5.131-3.961 56.386 56.386 0 0 0-2.728-.526 10.173 10.173 0 0 0-1.589-.161c-.788 0-1.494.107-2.118.323a6.042 6.042 0 0 0-1.832 1.05c-1.25-1.077-1.874-2.317-1.874-3.718 0-.43.013-.687.041-.768a4.688 4.688 0 0 1 1.63-1.05 5.789 5.789 0 0 1 2.035-.365c.76 0 1.534.122 2.322.364.786.243 1.56.512 2.321.809.76.269 1.466.525 2.118.768.678.242 1.275.363 1.792.363.298 0 .624-.04.978-.12.326-.063.642-.172.936-.324.245.19.461.566.652 1.132.216.566.326 1.117.326 1.657-.843.323-1.86.89-3.055 1.698a43.354 43.354 0 0 0-3.584 2.789 59.21 59.21 0 0 0-3.584 3.355c-1.14 1.186-2.09 2.303-2.85 3.354.57.243 1.343.364 2.32.364.624 0 1.263-.054 1.915-.161.634-.104 1.26-.253 1.873-.445a12.76 12.76 0 0 0 1.711-.647c.464-.236.9-.52 1.303-.849 1.276.809 1.914 1.995 1.914 3.557 0 .215-.014.392-.04.526 0 .135-.014.297-.041.485a7.537 7.537 0 0 1-4.073 1.172c-.74 0-1.477-.082-2.199-.242a50.498 50.498 0 0 1-2.159-.445 96.573 96.573 0 0 0-1.955-.445 6.423 6.423 0 0 0-1.67-.242c-1.303 0-2.361.606-3.176 1.819a1.92 1.92 0 0 1-.896-.728 2.859 2.859 0 0 1-.407-1.172Zm20.07-2.142c.003-.297.017-.594.041-.89.055-.377.136-.862.245-1.455.108-.619.244-1.36.407-2.223.19-.863.421-1.9.692-3.112.055-.27.177-.701.367-1.294.19-.593.434-1.212.733-1.86a14.08 14.08 0 0 1 1.14-1.94c.462-.618 1.005-1.077 1.63-1.374.461.108 1.072.392 1.832.85a5.958 5.958 0 0 1 1.955 1.818 15.282 15.282 0 0 0-1.588 2.102 27.487 27.487 0 0 0-1.14 2.183 47.426 47.426 0 0 0-.937 2.344 50.6 50.6 0 0 1-.937 2.547 29.62 29.62 0 0 0-.815 2.344c-.244.782-.38 1.47-.407 2.062 0 .485-.014.82-.04 1.01 0 .215-.068.324-.204.324-.108 0-.326-.068-.652-.203a4.595 4.595 0 0 1-1.018-.606 5.22 5.22 0 0 1-.896-1.091c-.271-.431-.407-.944-.407-1.536Zm7.78-17.543c0-.162.04-.404.122-.728a1.786 1.786 0 0 1-.367-.606 2.545 2.545 0 0 1-.122-.727c0-.243.027-.566.081-.97.082-.431.177-.89.285-1.375.109-.485.245-.984.408-1.495.163-.54.326-1.024.489-1.456.325 0 .719.095 1.18.283.49.162.978.392 1.467.687.489.27.937.58 1.344.93.407.324.719.633.936.93-.299.297-.692.713-1.18 1.253a21.81 21.81 0 0 0-1.426 1.657 45.593 45.593 0 0 0-1.263 1.617c-.38.512-.624.875-.733 1.091a1.68 1.68 0 0 1-.855-.404c-.244-.242-.366-.471-.366-.687Zm15.979 3.517c-.11 1.67-.408 3.112-.896 4.325a9.514 9.514 0 0 1-2.118 3.152c-.896.89-1.996 1.698-3.3 2.426-1.302.727-2.823 1.427-4.56 2.102 0 .161-.015.337-.041.525v.526c0 .35.026.713.081 1.091.054.378.15.727.285 1.05.135.324.326.595.57.81.245.189.557.282.937.282a5.136 5.136 0 0 0 2.159-.485 11.415 11.415 0 0 0 1.995-1.172 16.776 16.776 0 0 0 1.792-1.536 72.7 72.7 0 0 0 1.507-1.536c.271.242.502.471.693.687-1.222 1.617-2.566 2.965-4.032 4.042-1.44 1.051-2.81 1.724-4.114 2.021-1.873-.214-3.34-.889-4.398-2.02-1.033-1.159-1.548-2.547-1.548-4.164 0-1.105.149-2.223.448-3.355.326-1.158.76-2.264 1.303-3.315a20.745 20.745 0 0 1 1.955-3.031c.717-.9 1.522-1.725 2.403-2.466a12.253 12.253 0 0 1 2.647-1.657c.923-.404 1.833-.606 2.73-.606 1.248.161 2.415.93 3.502 2.304Zm-2.81 1.334c-.734.107-1.495.404-2.281.889-.788.485-1.535 1.132-2.24 1.94a16.017 16.017 0 0 0-1.874 2.83 16.211 16.211 0 0 0-1.344 3.476c2.172-1.078 3.978-2.4 5.417-3.962 1.438-1.59 2.212-3.314 2.321-5.174Zm18.338-.688a7.222 7.222 0 0 1-.285 1.617 8.102 8.102 0 0 1-.53 1.496c-.217.43-.447.796-.692 1.091-.244.297-.475.445-.692.445-.3-.027-.475-.229-.53-.607 0-.08.027-.202.082-.363.081-.19.163-.392.244-.607.082-.214.15-.43.204-.646.081-.215.122-.405.122-.566 0-.378-.095-.688-.285-.93a.763.763 0 0 0-.692-.404c-1.086 0-1.915.673-2.485 2.02-.57 1.349-.855 3.33-.855 5.943 0 .269.014.43.04.485.57-.027 1.074-.04 1.508-.04.447-.027.895-.04 1.344-.041a.842.842 0 0 1 .04.323c0 .243-.054.417-.163.526-.624.135-1.126.256-1.506.364-.278.058-.55.139-.815.242-.19.081-.312.176-.367.283a1.233 1.233 0 0 0-.04.364v.647c.026.214.04.485.04.808 0 2.264-.625 4.082-1.873 5.457-1.222 1.374-2.932 2.169-5.132 2.385a3.38 3.38 0 0 1-1.18-.324 6.073 6.073 0 0 1-1.182-.727 5.538 5.538 0 0 1-.937-1.01 3.25 3.25 0 0 1-.57-1.092c0-1.023.218-1.995.652-2.91a8.009 8.009 0 0 1 1.751-2.466 8.825 8.825 0 0 1 2.647-1.738 9.791 9.791 0 0 1 3.34-.809c0-.673-.067-1.334-.204-1.98-.13-.624-.28-1.245-.448-1.86a94.547 94.547 0 0 0-.407-1.778 7.743 7.743 0 0 1-.204-1.738c0-.728.15-1.442.449-2.143a7.688 7.688 0 0 1 1.18-1.98 7.286 7.286 0 0 1 1.711-1.577 6.169 6.169 0 0 1 2.037-.889c.299.08.692.323 1.18.728a13.31 13.31 0 0 1 1.508 1.293c.488.485.922.984 1.303 1.496.38.485.61.889.692 1.212Zm-13.44 18.432a6.4 6.4 0 0 0 1.833-1.172 8.624 8.624 0 0 0 2.566-3.8c.263-.684.4-1.41.407-2.142-.543.081-1.14.337-1.792.768a9.486 9.486 0 0 0-1.833 1.496 9.56 9.56 0 0 0-1.425 1.778c-.38.62-.57 1.159-.57 1.617 0 .594.27 1.078.814 1.455ZM93.4 23.677c-.136-.162-.258-.5-.367-1.01a7.078 7.078 0 0 1-.162-1.375c.705.054 1.384.107 2.036.161.652.027 1.248.055 1.792.081.407-.808.841-1.604 1.303-2.384a53.59 53.59 0 0 1 1.385-2.183c.46-.673.882-1.24 1.263-1.698.407-.459.719-.754.936-.89.271 0 .611.055 1.018.162.434.081.868.203 1.304.364.434.135.827.283 1.181.445.352.162.597.323.733.485a44.131 44.131 0 0 0-2.118 2.87 80.437 80.437 0 0 0-1.873 2.991 36.353 36.353 0 0 0 3.339-.162c.135.136.245.31.326.526.082.19.122.391.122.606-1.331.485-2.946.754-4.846.808a49.386 49.386 0 0 0-1.833 3.881 50.382 50.382 0 0 0-1.344 3.678 39.967 39.967 0 0 0-.855 3.355c-.191 1.051-.285 1.995-.285 2.83 0 1.186.448 1.845 1.344 1.98a9.482 9.482 0 0 0 2.321-.606 7.721 7.721 0 0 0 1.955-1.132c.163.243.257.445.285.606-.163.243-.448.526-.855.85-.381.323-.802.632-1.263.93-.462.322-.91.593-1.344.808-.435.214-.76.337-.977.363a6.147 6.147 0 0 1-2.037-.444 8.878 8.878 0 0 1-1.873-1.01 6.257 6.257 0 0 1-1.344-1.335c-.354-.511-.53-1.01-.53-1.495 0-.647.082-1.455.245-2.426.19-.998.448-2.075.774-3.233a67.127 67.127 0 0 1 2.566-7.397h-2.322Z" fill="currentColor"/></svg>
