<svg width="42" height="44" viewBox="0 0 42 44" fill="none" xmlns="http://www.w3.org/2000/svg"><rect x=".4" y="14.4" width="41.2" height="17.2" rx="8.6" stroke="currentColor" stroke-width=".8"/><path d="M10.55 9.096c-.497 0-.864-.136-1.104-.408-.24-.272-.36-.632-.36-1.08V.12h.876V7.5c0 .264.056.464.168.6.111.136.295.204.551.204.12 0 .237-.016.349-.048.112-.04.2-.08.264-.12l.24.66c-.113.096-.26.168-.445.216a1.77 1.77 0 0 1-.54.084Zm4.257-6.168c.824 0 1.472.268 1.944.804.48.528.72 1.248.72 2.16 0 .608-.12 1.156-.36 1.644-.232.48-.56.86-.984 1.14-.424.28-.92.42-1.488.42-.84 0-1.5-.264-1.98-.792-.48-.536-.72-1.264-.72-2.184 0-.608.116-1.152.348-1.632.24-.48.576-.86 1.008-1.14.432-.28.936-.42 1.512-.42Zm-.168 5.364c.576 0 1.04-.22 1.392-.66.352-.44.528-1.02.528-1.74 0-.696-.156-1.232-.468-1.608-.304-.376-.728-.564-1.272-.564-.4 0-.748.104-1.044.312-.288.2-.516.48-.684.84-.16.36-.24.776-.24 1.248 0 .704.156 1.244.468 1.62.32.368.76.552 1.32.552Zm6.904.804c-.872 0-1.556-.26-2.052-.78-.496-.528-.744-1.26-.744-2.196 0-.632.124-1.188.372-1.668s.592-.852 1.032-1.116c.44-.272.952-.408 1.536-.408.96 0 1.664.384 2.112 1.152l-.672.504c-.32-.568-.808-.852-1.464-.852-.6 0-1.084.22-1.452.66-.36.432-.54 1.008-.54 1.728 0 .704.164 1.24.492 1.608.328.368.8.552 1.416.552.328 0 .628-.068.9-.204a1.63 1.63 0 0 0 .672-.648l.648.504c-.48.776-1.232 1.164-2.256 1.164Zm8.194-6.06V9h-.888l.036-1.404a2.87 2.87 0 0 1-.9 1.104 2.18 2.18 0 0 1-1.284.396c-.504 0-.928-.116-1.272-.348a2.306 2.306 0 0 1-.792-.984c-.184-.424-.276-.912-.276-1.464 0-.664.12-1.248.36-1.752.24-.512.576-.908 1.008-1.188.432-.288.932-.432 1.5-.432.4 0 .752.092 1.056.276.304.184.528.42.672.708l.12-.876h.66Zm-2.484.684c-.6 0-1.08.228-1.44.684-.36.456-.54 1.064-.54 1.824 0 .648.136 1.156.408 1.524.28.36.66.54 1.14.54.392 0 .744-.116 1.056-.348.312-.232.556-.552.732-.96.176-.408.264-.876.264-1.404 0-.576-.144-1.028-.432-1.356-.288-.336-.684-.504-1.188-.504Zm5.75 5.376c-.496 0-.864-.136-1.104-.408-.24-.272-.36-.632-.36-1.08V.12h.876V7.5c0 .264.056.464.168.6.112.136.296.204.552.204.12 0 .236-.016.348-.048.112-.04.2-.08.264-.12l.24.66c-.112.096-.26.168-.444.216a1.77 1.77 0 0 1-.54.084Zm-21.646 17c-.744 0-1.32-.152-1.728-.456-.408-.312-.644-.752-.708-1.32l.768-.18c.056.424.216.736.48.936.272.2.668.3 1.188.3.44 0 .772-.088.996-.264a.864.864 0 0 0 .348-.708.639.639 0 0 0-.348-.6c-.232-.136-.596-.252-1.092-.348a5.765 5.765 0 0 1-1.068-.3 1.591 1.591 0 0 1-.684-.528c-.16-.224-.24-.524-.24-.9 0-.336.092-.64.276-.912.184-.272.436-.484.756-.636.328-.16.696-.24 1.104-.24.56 0 1.016.136 1.368.408.36.264.58.632.66 1.104l-.744.192c-.12-.656-.552-.984-1.296-.984-.384 0-.692.096-.924.288-.224.184-.336.436-.336.756 0 .264.1.476.3.636.2.152.56.284 1.08.396.424.088.788.192 1.092.312.304.112.536.268.696.468.168.2.256.476.264.828 0 .336-.092.636-.276.9a1.855 1.855 0 0 1-.78.624c-.328.152-.712.228-1.152.228Zm5.498 2.424c-.344 0-.696-.036-1.056-.108a2.77 2.77 0 0 1-.9-.312l.24-.78c.256.128.536.224.84.288.304.072.604.108.9.108.768 0 1.312-.188 1.632-.564.328-.376.5-.984.516-1.824l.036-1.464c-.224.728-.544 1.264-.96 1.608a2.194 2.194 0 0 1-1.44.516c-.608 0-1.072-.208-1.392-.624-.32-.416-.48-.992-.48-1.728l.036-3.6h.876l-.036 3.492c-.008.52.084.924.276 1.212.192.28.5.42.924.42.424 0 .796-.16 1.116-.48.32-.32.572-.852.756-1.596.184-.752.276-1.768.276-3.048h.84v5.16c0 2.216-1 3.324-3 3.324ZM21.66 26v-5.964h.888l-.072 2.04c.2-.696.508-1.228.924-1.596a2.2 2.2 0 0 1 1.488-.552c.608 0 1.076.212 1.404.636.328.424.492 1.036.492 1.836L26.76 26h-.876l.024-3.492c0-.584-.1-1.024-.3-1.32-.192-.296-.504-.444-.936-.444-.408 0-.776.164-1.104.492-.32.32-.576.864-.768 1.632-.184.768-.276 1.812-.276 3.132h-.864Zm9.387.096c-.872 0-1.556-.26-2.052-.78-.496-.528-.744-1.26-.744-2.196 0-.632.124-1.188.372-1.668s.592-.852 1.032-1.116c.44-.272.952-.408 1.536-.408.96 0 1.664.384 2.112 1.152l-.672.504c-.32-.568-.808-.852-1.464-.852-.6 0-1.084.22-1.452.66-.36.432-.54 1.008-.54 1.728 0 .704.164 1.24.492 1.608.328.368.8.552 1.416.552.328 0 .628-.068.9-.204a1.63 1.63 0 0 0 .672-.648l.648.504c-.48.776-1.232 1.164-2.256 1.164Zm-20.85 17c-.744 0-1.32-.152-1.728-.456-.408-.312-.644-.752-.708-1.32l.768-.18c.056.424.216.736.48.936.272.2.668.3 1.188.3.44 0 .772-.088.996-.264a.864.864 0 0 0 .348-.708.639.639 0 0 0-.348-.6c-.232-.136-.596-.252-1.092-.348a5.765 5.765 0 0 1-1.068-.3 1.591 1.591 0 0 1-.684-.528c-.16-.224-.24-.524-.24-.9 0-.336.092-.64.276-.912.184-.272.436-.484.756-.636.328-.16.696-.24 1.104-.24.56 0 1.016.136 1.368.408.36.264.58.632.66 1.104l-.744.192c-.12-.656-.552-.984-1.296-.984-.384 0-.692.096-.924.288-.224.184-.336.436-.336.756 0 .264.1.476.3.636.2.152.56.284 1.08.396.424.088.788.192 1.092.312.304.112.536.268.696.468.168.2.256.476.264.828 0 .336-.092.636-.276.9a1.855 1.855 0 0 1-.78.624c-.328.152-.712.228-1.152.228Zm5.657 0c-.68 0-1.192-.18-1.536-.54-.345-.368-.512-.856-.505-1.464l.037-3.312h-1.056v-.744h1.067l.012-1.248h.877l-.012 1.248h2.076v.744h-2.088l-.037 3.252c0 .384.097.692.288.924.2.232.508.348.925.348.184 0 .356-.02.516-.06.16-.048.328-.14.504-.276l.287.696a1.68 1.68 0 0 1-.623.336c-.24.064-.484.096-.732.096Zm7.144-6.06V43h-.888l.036-1.404a2.87 2.87 0 0 1-.9 1.104 2.18 2.18 0 0 1-1.284.396c-.504 0-.928-.116-1.272-.348a2.306 2.306 0 0 1-.792-.984c-.184-.424-.276-.912-.276-1.464 0-.664.12-1.248.36-1.752.24-.512.576-.908 1.008-1.188.432-.288.932-.432 1.5-.432.4 0 .752.092 1.056.276.304.184.528.42.672.708l.12-.876h.66Zm-2.484.684c-.6 0-1.08.228-1.44.684-.36.456-.54 1.064-.54 1.824 0 .648.136 1.156.408 1.524.28.36.66.54 1.14.54.392 0 .744-.116 1.056-.348.312-.232.556-.552.732-.96.176-.408.264-.876.264-1.404 0-.576-.144-1.028-.432-1.356-.288-.336-.684-.504-1.188-.504Zm6.554 5.376c-.68 0-1.192-.18-1.536-.54-.344-.368-.512-.856-.504-1.464l.036-3.312h-1.056v-.744h1.068l.012-1.248h.876l-.012 1.248h2.076v.744H25.94l-.036 3.252c0 .384.096.692.288.924.2.232.508.348.924.348.184 0 .356-.02.516-.06.16-.048.328-.14.504-.276l.288.696A1.68 1.68 0 0 1 27.8 43c-.24.064-.484.096-.732.096Zm4.721 0c-.92 0-1.644-.264-2.172-.792-.52-.528-.78-1.264-.78-2.208 0-.616.124-1.164.372-1.644s.584-.852 1.008-1.116a2.69 2.69 0 0 1 1.464-.408c.816 0 1.444.284 1.884.852.448.568.608 1.416.48 2.544h-4.308c.024.64.216 1.128.576 1.464.368.336.88.504 1.536.504.32 0 .628-.068.924-.204.296-.144.548-.364.756-.66l.552.504c-.536.776-1.3 1.164-2.292 1.164Zm-.096-5.46c-.368 0-.692.088-.972.264a1.979 1.979 0 0 0-.66.72 2.553 2.553 0 0 0-.312.996h3.528c.032-.696-.104-1.2-.408-1.512-.304-.312-.696-.468-1.176-.468Z" fill="currentColor"/></svg>