<svg width="44" height="17" viewBox="0 0 44 17" fill="none" xmlns="http://www.w3.org/2000/svg"><path d="M.8.217C1.556.072 2.185 0 2.685 0c.504 0 .934.047 1.29.14.358.09.65.212.872.364.227.152.412.334.557.545.27.39.404.847.404 1.37 0 .716-.273 1.306-.82 1.77-.547.461-1.258.692-2.133.692H1.86v3.375H.8V.216ZM1.86.92v3.14h.387c.867 0 1.49-.126 1.869-.38.379-.258.568-.657.568-1.196 0-.543-.158-.957-.475-1.242C3.89.957 3.417.814 2.792.814c-.336 0-.647.036-.932.106ZM10.76 7.248c-.351.742-.924 1.113-1.717 1.113-.32 0-.609-.07-.867-.21a2.423 2.423 0 0 1-.603-.463 1.99 1.99 0 0 1-.364-.668 2.819 2.819 0 0 1-.152-.961v-3.3H8V5.73c0 1.254.45 1.881 1.348 1.881.23 0 .442-.062.633-.187.293-.188.523-.496.691-.926.059-.148.088-.266.088-.352V2.76h.944v5.496h-.944V7.248ZM13.35 8.256V2.76h.944v1.008c.14-.305.34-.567.597-.786.262-.218.557-.328.885-.328.332 0 .603.059.814.176.215.113.358.234.428.363l-.398.598a1.455 1.455 0 0 0-.159-.176c-.144-.14-.357-.21-.638-.21-.282 0-.535.09-.762.269a2.036 2.036 0 0 0-.539.668 2.068 2.068 0 0 0-.229.785v3.129h-.943ZM20.134 3.404c-.543 0-.95.164-1.219.492-.187.227-.31.547-.369.961h2.842c-.035-.425-.162-.775-.38-1.048a1.078 1.078 0 0 0-.874-.405Zm1.98 4.53c-.421.285-.992.427-1.71.427-.91 0-1.612-.26-2.104-.779-.492-.52-.738-1.21-.738-2.074 0-1.125.365-1.94 1.095-2.444a2.38 2.38 0 0 1 1.36-.41c.773 0 1.36.262 1.758.785.336.45.515 1.04.539 1.77l-.14.352h-3.669c.008.648.182 1.152.522 1.511.34.356.793.533 1.359.533.43 0 .922-.115 1.477-.345l.252.674Z" fill="currentColor"/><path d="M6.682 8.111v8.145h-1.06v-3.89H1.86v3.89H.8v-8.15h1.06v3.439h3.762V8.11h1.06ZM11.282 13.783c-1.438 0-2.157.358-2.157 1.072 0 .192.06.37.176.534.121.164.258.246.41.246h.229c.86 0 1.318-.451 1.377-1.354v-.498h-.035Zm-2.696-2.76c.704-.246 1.28-.369 1.729-.369.45 0 .842.112 1.178.334.336.223.56.553.673.99.063.247.094.749.094 1.506v1.834c0 .344.028.657.082.938h-.949a1.8 1.8 0 0 1-.076-.545v-.041a1.82 1.82 0 0 1-.322.305c-.368.27-.758.404-1.172.404-.696 0-1.174-.248-1.436-.744a1.539 1.539 0 0 1-.205-.756c0-.684.4-1.178 1.201-1.482.48-.184 1.09-.276 1.828-.276h.106v-.592c0-.43-.082-.722-.246-.879-.192-.18-.51-.27-.955-.27-.446 0-.94.126-1.483.376l-.047-.733ZM17.64 13.285c0-1.254-.45-1.88-1.349-1.88-.23 0-.44.062-.632.187-.293.187-.524.496-.692.926a1.033 1.033 0 0 0-.088.351v3.387h-.943V10.76h.943v1.008c.352-.743.924-1.114 1.717-1.114.32 0 .608.073.861.217.258.14.46.293.604.457.348.387.521.93.521 1.629v3.299h-.943v-2.97ZM22.274 16.361c-.453 0-.863-.125-1.23-.375a2.476 2.476 0 0 1-.844-.972 2.914 2.914 0 0 1-.293-1.29c0-.91.263-1.648.79-2.214a2.59 2.59 0 0 1 1.975-.856c.328 0 .721.063 1.178.188V2.654h.967v13.602h-.967v-.645c-.441.5-.967.75-1.576.75Zm1.576-4.699a2.04 2.04 0 0 0-.96-.258c-.548 0-1.02.207-1.419.621a2.225 2.225 0 0 0-.62 1.577c0 .609.144 1.095.433 1.458.293.364.652.545 1.078.545.289 0 .564-.097.826-.293.262-.199.482-.45.662-.755v-2.895ZM27.963 16.361c-.812 0-1.218-.515-1.218-1.546V2.655h.943v12.1c0 .302.059.518.176.651.12.13.232.194.334.194.101 0 .324-.016.668-.047l.076.685c-.39.082-.717.123-.979.123ZM32.194 11.404c-.543 0-.95.164-1.219.492-.187.227-.31.547-.369.961h2.842c-.035-.425-.162-.775-.381-1.048a1.078 1.078 0 0 0-.873-.405Zm1.98 4.53c-.422.285-.992.427-1.71.427-.91 0-1.612-.26-2.104-.779-.492-.52-.738-1.21-.738-2.074 0-1.125.365-1.94 1.095-2.443a2.38 2.38 0 0 1 1.36-.41c.773 0 1.359.261 1.758.785.335.449.515 1.039.538 1.769l-.14.351h-3.668c.008.649.182 1.153.521 1.512.34.356.793.534 1.36.534.43 0 .922-.116 1.476-.346l.252.674ZM35.733 16.256V10.76h.943v1.008c.14-.305.34-.567.598-.786.262-.218.557-.328.885-.328.332 0 .603.059.814.176.215.113.358.235.428.363l-.399.598a1.45 1.45 0 0 0-.158-.176c-.144-.14-.357-.21-.638-.21-.282 0-.536.09-.762.269a2.036 2.036 0 0 0-.54.668 2.067 2.067 0 0 0-.228.785v3.129h-.943ZM41.873 15.605c.676 0 1.014-.29 1.014-.873 0-.351-.322-.632-.967-.843l-.574-.2c-.41-.144-.715-.35-.914-.615a1.574 1.574 0 0 1-.293-.949c0-.367.17-.703.51-1.008.34-.308.775-.463 1.307-.463.351 0 .664.047.937.14.273.09.484.194.633.311l-.334.704a1.944 1.944 0 0 0-.516-.276 1.985 1.985 0 0 0-.72-.129.885.885 0 0 0-.627.229c-.164.152-.246.322-.246.51 0 .187.062.343.187.468s.377.254.756.387l.574.2c.418.144.729.333.932.568.199.238.299.582.299 1.03 0 .45-.172.823-.516 1.12-.344.297-.813.445-1.406.445-.317 0-.621-.033-.914-.1-.29-.062-.614-.197-.973-.404l.34-.726c.3.18.556.304.767.375.211.066.46.1.745.1Z" fill="currentColor"/></svg>