<svg width="56" height="22" viewBox="0 0 56 22" fill="none" xmlns="http://www.w3.org/2000/svg"><path d="M2.53 3.28h.25v.68h-.34c-.24 0-.457.063-.65.19-.06.04-.19.13-.39.27V9H.69V3.31h.68v.43c.02-.013.07-.05.15-.11a4.139 4.139 0 0 1 .28-.18.672.672 0 0 1 .16-.07l.16-.05c.1-.033.237-.05.41-.05Zm.592 4.27V4.77c0-.473.133-.85.4-1.13.273-.287.683-.43 1.23-.43.547 0 .95.143 1.21.43.267.28.4.657.4 1.13v1.74h-2.54v1.01c0 .3.093.523.28.67.187.147.477.22.87.22s.8-.06 1.22-.18v.66c-.333.107-.73.16-1.19.16-1.253 0-1.88-.5-1.88-1.5Zm.7-1.63h1.86V4.77c0-.627-.31-.94-.93-.94-.62 0-.93.313-.93.94v1.15Zm3.776 1.46v.3c0 .267.063.463.19.59.126.127.366.19.72.19.353 0 .686-.13 1-.39V6.2l-1.14.32c-.3.087-.504.193-.61.32-.107.127-.16.307-.16.54Zm.9-4.12c1.133 0 1.7.483 1.7 1.45V9h-.68v-.41c-.34.3-.747.45-1.22.45-.927 0-1.39-.457-1.39-1.37v-.32c0-.693.403-1.153 1.21-1.38l1.4-.39v-.87c-.007-.273-.084-.473-.23-.6-.147-.127-.444-.19-.89-.19-.44 0-.847.067-1.22.2v-.67c.38-.127.82-.19 1.32-.19Zm2.628 1.44c0-.96.56-1.44 1.68-1.44.413 0 .766.047 1.06.14v.65a3.967 3.967 0 0 0-1.04-.13c-.374 0-.634.067-.78.2-.14.127-.21.327-.21.6V7.6c0 .28.07.483.21.61.146.127.413.19.8.19.386 0 .733-.053 1.04-.16v.67c-.36.093-.72.14-1.08.14-1.12 0-1.68-.473-1.68-1.42V4.7Zm4.2-2.42v1.03h1.27v.63h-1.27v3.8c0 .233.057.403.17.51.114.1.287.15.52.15.234 0 .46-.037.68-.11v.65a3.1 3.1 0 0 1-.75.1c-.893 0-1.34-.423-1.34-1.27V3.94h-.62v-.63h.65l.2-1.03h.49Zm2.05 5.87c.234 0 .35.11.35.33 0 .293-.232.887-.7 1.78h-.42l.42-2.11h.35ZM1.969 11.84c0 .44-.22.66-.66.66-.44 0-.66-.22-.66-.66 0-.448.22-.672.66-.672.44 0 .66.224.66.672ZM.744 13.184h1.128V20H.744v-6.816Zm6.705.36h-.408a.942.942 0 0 0-.468.108c.224.28.336.652.336 1.116v.984c0 .56-.172.996-.516 1.308-.336.312-.848.472-1.536.48-.376 0-.564.176-.564.528 0 .168.048.288.144.36.104.072.284.108.54.108h.696c1.136 0 1.704.476 1.704 1.428v.204c0 1.08-.764 1.62-2.292 1.62h-.468c-.872 0-1.532-.14-1.98-.42v-1.056c.528.344 1.18.516 1.956.516h.384c.48 0 .82-.056 1.02-.168.2-.112.3-.28.3-.504v-.108c0-.192-.052-.332-.156-.42-.096-.096-.288-.144-.576-.144h-.732c-1.032 0-1.548-.348-1.548-1.044v-.192c0-.448.212-.72.636-.816-.808-.232-1.212-.792-1.212-1.68v-.984c0-.568.172-1.008.516-1.32.352-.312.84-.468 1.464-.468s1.104.096 1.44.288c.168-.512.548-.768 1.14-.768h.18v1.044ZM5.781 15.74v-.96c0-.296-.076-.512-.228-.648-.152-.144-.4-.216-.744-.216s-.592.072-.744.216c-.152.136-.228.352-.228.648v.96c0 .296.076.516.228.66.152.136.4.204.744.204s.592-.068.744-.204c.152-.144.228-.364.228-.66Zm3.327-2.328c.512-.224.988-.336 1.428-.336.448 0 .812.136 1.092.408.288.264.432.648.432 1.152V20h-1.152v-5.172c0-.472-.236-.708-.708-.708a2.32 2.32 0 0 0-1.044.264V20H8.028v-6.9h1.08v.312Zm6.865 1.476c0-.616-.308-.924-.924-.924-.616 0-.924.308-.924.924v3.324c0 .616.308.924.924.924.616 0 .924-.308.924-.924v-3.324Zm-2.964-.024c0-.576.168-1.032.504-1.368.336-.344.848-.516 1.536-.516.688 0 1.2.172 1.536.516.344.336.516.792.516 1.368v3.372c0 .576-.172 1.036-.516 1.38-.336.336-.848.504-1.536.504-.688 0-1.2-.168-1.536-.504-.336-.344-.504-.804-.504-1.38v-3.372Zm7.54-1.8h.276v1.068h-.36c-.376 0-.788.152-1.236.456V20H18.1v-6.9h1.08v.504c.024-.016.068-.048.132-.096.072-.048.116-.076.132-.084l.12-.084a.792.792 0 0 1 .132-.072.925.925 0 0 0 .108-.048.575.575 0 0 1 .132-.06c.032-.008.072-.02.12-.036a.398.398 0 0 1 .156-.036 3.25 3.25 0 0 1 .336-.024Zm.6 5.112v-3.312c0-.576.167-1.032.503-1.368.336-.344.848-.516 1.536-.516.688 0 1.196.172 1.524.516.328.336.492.792.492 1.368v2.196h-2.952v1.056c0 .32.096.556.288.708.2.152.544.228 1.032.228a4.83 4.83 0 0 0 1.44-.216v1.032a5.94 5.94 0 0 1-1.536.192c-1.552 0-2.328-.628-2.328-1.884Zm1.103-2.028h1.884v-1.272c0-.624-.316-.936-.948-.936-.624 0-.936.312-.936.936v1.272Zm8.22-3.084h.277v1.068h-.36c-.376 0-.788.152-1.236.456V20h-1.128v-6.9h1.08v.504c.024-.016.068-.048.132-.096.072-.048.116-.076.132-.084l.12-.084a.792.792 0 0 1 .132-.072.925.925 0 0 0 .108-.048.575.575 0 0 1 .132-.06c.032-.008.072-.02.12-.036a.398.398 0 0 1 .156-.036 3.25 3.25 0 0 1 .336-.024Zm.6 5.112v-3.312c0-.576.168-1.032.504-1.368.336-.344.848-.516 1.536-.516.688 0 1.196.172 1.524.516.328.336.492.792.492 1.368v2.196h-2.952v1.056c0 .32.096.556.288.708.2.152.544.228 1.032.228a4.83 4.83 0 0 0 1.44-.216v1.032a5.94 5.94 0 0 1-1.536.192c-1.552 0-2.328-.628-2.328-1.884Zm1.104-2.028h1.884v-1.272c0-.624-.316-.936-.948-.936-.624 0-.936.312-.936.936v1.272Zm4.951-2.736c.512-.224.988-.336 1.428-.336.448 0 .812.136 1.092.408.288.264.432.648.432 1.152V20h-1.152v-5.172c0-.472-.236-.708-.708-.708a2.32 2.32 0 0 0-1.044.264V20h-1.128v-6.9h1.08v.312Zm6.817.708h-.816c-.648 0-.972.304-.972.912v3.18c0 .536.264.804.792.804.424 0 .756-.112.996-.336v-4.56Zm0-2.856h1.14V20h-1.116v-.432c-.328.312-.76.468-1.296.468s-.944-.144-1.224-.432c-.28-.296-.42-.716-.42-1.26v-3.348c0-.592.172-1.056.516-1.392.344-.336.824-.504 1.44-.504h.96v-1.836Zm2.138 6.912v-3.312c0-.576.168-1.032.504-1.368.336-.344.848-.516 1.536-.516.688 0 1.196.172 1.524.516.328.336.492.792.492 1.368v2.196h-2.952v1.056c0 .32.096.556.288.708.2.152.544.228 1.032.228a4.83 4.83 0 0 0 1.44-.216v1.032a5.94 5.94 0 0 1-1.536.192c-1.552 0-2.328-.628-2.328-1.884Zm1.104-2.028h1.884v-1.272c0-.624-.316-.936-.948-.936-.624 0-.936.312-.936.936v1.272Zm6.319-3.084h.276v1.068h-.36c-.376 0-.788.152-1.236.456V20h-1.128v-6.9h1.08v.504c.024-.016.068-.048.132-.096.072-.048.116-.076.132-.084l.12-.084a.792.792 0 0 1 .132-.072.925.925 0 0 0 .108-.048.575.575 0 0 1 .132-.06c.032-.008.072-.02.12-.036a.398.398 0 0 1 .156-.036 3.25 3.25 0 0 1 .336-.024Zm1.043 7.02c-.44 0-.66-.22-.66-.66 0-.44.22-.66.66-.66.44 0 .66.22.66.66 0 .44-.22.66-.66.66Z" fill="currentColor"/></svg>