<svg width="59" height="13" viewBox="0 0 59 13" fill="none" xmlns="http://www.w3.org/2000/svg"><path d="M6.111 4.276c.488 0 .888.064 1.2.192.04.024.064.044.072.06.016.016.016.044 0 .084l-.216.456c-.016.04-.036.064-.06.072-.024.008-.052.004-.084-.012a1.734 1.734 0 0 0-.444-.096 3.153 3.153 0 0 0-.468-.036c-.128 0-.264.012-.408.036a4.583 4.583 0 0 0-.384.084c-.112.024-.2.048-.264.072l-.144.084c-.048.032-.084.104-.108.216l-.924 4.38c-.016.056-.036.092-.06.108-.016.016-.044.024-.084.024h-.648a.081.081 0 0 1-.06-.024c-.016-.016-.016-.044 0-.084l1.044-4.908c.024-.12.052-.2.084-.24.04-.04.1-.076.18-.108.256-.112.548-.2.876-.264.336-.064.636-.096.9-.096Zm1.422 2.88c.088-.376.204-.74.348-1.092.144-.352.336-.664.576-.936.24-.28.532-.5.876-.66.344-.16.752-.24 1.224-.24.496 0 .872.072 1.128.216.264.144.444.34.54.588.104.24.148.508.132.804-.008.288-.044.58-.108.876-.056.296-.124.48-.204.552a.416.416 0 0 1-.288.108H8.493a.193.193 0 0 0-.084.024c-.032.016-.056.06-.072.132-.064.36-.068.684-.012.972.056.288.188.512.396.672.208.152.504.228.888.228.288 0 .592-.032.912-.096.328-.072.6-.168.816-.288a.478.478 0 0 1 .156-.06c.048-.016.08.016.096.096l.096.3c.016.048.016.084 0 .108a.555.555 0 0 1-.12.072 2.968 2.968 0 0 1-1.044.408c-.392.08-.788.12-1.188.12-.496 0-.884-.072-1.164-.216a1.33 1.33 0 0 1-.6-.624 2.298 2.298 0 0 1-.18-.936c.008-.352.056-.728.144-1.128Zm3.876-.588c.048-.216.072-.42.072-.612.008-.2-.024-.376-.096-.528a.723.723 0 0 0-.336-.372c-.16-.096-.38-.144-.66-.144-.272 0-.516.056-.732.168-.208.104-.388.24-.54.408a2.308 2.308 0 0 0-.372.552c-.096.192-.168.38-.216.564-.024.08-.032.136-.024.168.008.024.04.036.096.036h2.568c.072 0 .124-.012.156-.036.04-.032.068-.1.084-.204Zm3.371 3.504c-.768 0-1.3-.228-1.596-.684-.288-.464-.328-1.18-.12-2.148.128-.608.304-1.1.528-1.476.232-.384.488-.68.768-.888.28-.216.564-.36.852-.432.296-.08.576-.12.84-.12s.52.044.768.132c.248.088.42.176.516.264l.06-.288c.008-.032.02-.052.036-.06a.129.129 0 0 1 .072-.024h.648c.064 0 .096.032.096.096-.024.152-.064.364-.12.636-.048.264-.112.568-.192.912-.072.336-.156.7-.252 1.092-.088.392-.188.792-.3 1.2-.104.408-.216.812-.336 1.212a.424.424 0 0 1-.084.156c-.032.04-.104.08-.216.12a6.445 6.445 0 0 1-1.968.3Zm.228-.684c.136 0 .28-.012.432-.036l.432-.084c.128-.032.216-.056.264-.072a.425.425 0 0 0 .132-.072.294.294 0 0 0 .108-.168l.168-.66a58.715 58.715 0 0 0 .516-2.256c.048-.2.08-.352.096-.456a.226.226 0 0 0-.012-.132c-.016-.032-.052-.06-.108-.084a3.462 3.462 0 0 0-.48-.204 1.865 1.865 0 0 0-1.14-.012 1.622 1.622 0 0 0-.576.288c-.184.144-.356.364-.516.66-.16.288-.292.672-.396 1.152-.168.8-.16 1.356.024 1.668.192.312.544.468 1.056.468Zm5.657.672c-.488 0-.876-.072-1.164-.216a1.33 1.33 0 0 1-.6-.624 2.298 2.298 0 0 1-.18-.936c.008-.352.056-.728.144-1.128.088-.376.204-.74.348-1.092.144-.352.336-.664.576-.936.24-.28.532-.5.876-.66.344-.16.752-.24 1.224-.24.336 0 .616.036.84.108.224.064.408.168.552.312.04.04.06.072.06.096.008.016.004.048-.012.096l-.108.516c-.008.048-.028.076-.06.084-.032 0-.06-.016-.084-.048a1.012 1.012 0 0 0-.54-.336 2.415 2.415 0 0 0-.72-.108 1.65 1.65 0 0 0-.828.204c-.232.128-.432.3-.6.516a3.205 3.205 0 0 0-.42.72 4.144 4.144 0 0 0-.336 1.956c.032.328.144.584.336.768.2.176.492.264.876.264.248 0 .48-.024.696-.072.216-.056.424-.128.624-.216.096-.048.148-.032.156.048l.096.384c.008.04.004.072-.012.096a.702.702 0 0 1-.072.06 2.559 2.559 0 0 1-.768.288 4.247 4.247 0 0 1-.9.096Zm4.577-.06c-.496 0-.84-.104-1.032-.312-.192-.216-.288-.516-.288-.9.008-.336.048-.688.12-1.056.08-.376.16-.76.24-1.152.064-.272.124-.532.18-.78.056-.248.12-.5.192-.756.016-.072-.012-.108-.084-.108h-.6c-.032 0-.056-.008-.072-.024-.008-.016-.008-.04 0-.072l.084-.408a.152.152 0 0 1 .036-.072c.016-.016.044-.024.084-.024h.612c.04 0 .068-.008.084-.024a.278.278 0 0 0 .06-.12l.276-1.02c.016-.056.044-.084.084-.084h.672c.024 0 .044.008.06.024.024.016.032.036.024.06l-.276 1.02c-.016.056-.02.096-.012.12.008.016.032.024.072.024h1.404c.04 0 .064.008.072.024.008.008.008.036 0 .084l-.084.384c0 .032-.012.06-.036.084-.016.016-.044.024-.084.024h-1.404c-.024 0-.052.012-.084.036-.024.016-.04.048-.048.096a22.192 22.192 0 0 0-.384 1.584c-.072.328-.14.664-.204 1.008a5.253 5.253 0 0 0-.096.984c0 .224.052.392.156.504.112.112.308.168.588.168a1.6 1.6 0 0 0 .336-.036l.36-.096c.064-.032.104-.044.12-.036s.028.036.036.084l.036.396c.016.072-.056.14-.216.204a4.612 4.612 0 0 1-.336.096 7.144 7.144 0 0 1-.372.06 4.02 4.02 0 0 1-.276.012Zm4.514-7.224a.668.668 0 0 1-.168.336c-.072.072-.208.108-.408.108-.192 0-.316-.036-.372-.108-.048-.08-.056-.192-.024-.336a.498.498 0 0 1 .168-.312c.088-.08.228-.12.42-.12.208 0 .328.04.36.12.04.072.048.176.024.312Zm-1.572 7.14c-.008.056-.044.084-.108.084h-.672c-.056 0-.08-.028-.072-.084l1.164-5.496c.016-.056.052-.084.108-.084h.672c.024 0 .044.008.06.024s.02.036.012.06l-1.164 5.496Zm2.882.084a.124.124 0 0 1-.12-.072 6.7 6.7 0 0 1-.288-1.068 66.722 66.722 0 0 1-.18-1.14c-.08-.64-.132-1.232-.156-1.776a15.503 15.503 0 0 1 .012-1.392.497.497 0 0 1 .036-.156c.016-.04.044-.06.084-.06h.648c.032 0 .06.012.084.036.024.016.036.044.036.084a7.16 7.16 0 0 0-.036.972c.008.368.024.764.048 1.188.016.312.036.608.06.888.032.28.064.528.096.744.04.216.072.384.096.504.032.096.072.14.12.132.048-.016.092-.056.132-.12.112-.144.26-.38.444-.708.184-.328.38-.704.588-1.128.232-.464.44-.924.624-1.38.192-.456.336-.832.432-1.128.024-.056.06-.084.108-.084h.708c.048 0 .064.028.048.084a19.26 19.26 0 0 1-.6 1.476c-.24.544-.516 1.092-.828 1.644-.224.424-.46.836-.708 1.236-.248.392-.512.776-.792 1.152-.032.048-.068.072-.108.072h-.588Zm3.772-2.844c.088-.376.204-.74.348-1.092.144-.352.336-.664.576-.936.24-.28.532-.5.876-.66.344-.16.752-.24 1.224-.24.496 0 .872.072 1.128.216.264.144.444.34.54.588.104.24.148.508.132.804-.008.288-.044.58-.108.876-.056.296-.124.48-.204.552a.416.416 0 0 1-.288.108h-3.264a.193.193 0 0 0-.084.024c-.032.016-.056.06-.072.132-.064.36-.068.684-.012.972.056.288.188.512.396.672.208.152.504.228.888.228.288 0 .592-.032.912-.096.328-.072.6-.168.816-.288a.478.478 0 0 1 .156-.06c.048-.016.08.016.096.096l.096.3c.016.048.016.084 0 .108a.555.555 0 0 1-.12.072 2.968 2.968 0 0 1-1.044.408c-.392.08-.788.12-1.188.12-.496 0-.884-.072-1.164-.216a1.33 1.33 0 0 1-.6-.624 2.298 2.298 0 0 1-.18-.936c.008-.352.056-.728.144-1.128Zm3.876-.588c.048-.216.072-.42.072-.612.008-.2-.024-.376-.096-.528a.723.723 0 0 0-.336-.372c-.16-.096-.38-.144-.66-.144-.272 0-.516.056-.732.168-.208.104-.388.24-.54.408a2.308 2.308 0 0 0-.372.552c-.096.192-.168.38-.216.564-.024.08-.032.136-.024.168.008.024.04.036.096.036h2.568c.072 0 .124-.012.156-.036.04-.032.068-.1.084-.204Zm7.405-2.292c.488 0 .888.064 1.2.192.04.024.064.044.072.06.016.016.016.044 0 .084l-.216.456c-.016.04-.036.064-.06.072-.024.008-.052.004-.084-.012a1.734 1.734 0 0 0-.444-.096 3.153 3.153 0 0 0-.468-.036c-.128 0-.264.012-.408.036a4.583 4.583 0 0 0-.384.084c-.112.024-.2.048-.264.072l-.144.084c-.048.032-.084.104-.108.216l-.924 4.38c-.016.056-.036.092-.06.108-.016.016-.044.024-.084.024h-.648a.081.081 0 0 1-.06-.024c-.016-.016-.016-.044 0-.084l1.044-4.908c.024-.12.052-.2.084-.24.04-.04.1-.076.18-.108.256-.112.548-.2.876-.264.336-.064.636-.096.9-.096Zm1.422 2.88c.088-.376.204-.74.348-1.092.144-.352.336-.664.576-.936.24-.28.532-.5.876-.66.344-.16.752-.24 1.224-.24.496 0 .872.072 1.128.216.264.144.444.34.54.588.104.24.148.508.132.804-.008.288-.044.58-.108.876-.056.296-.124.48-.204.552a.416.416 0 0 1-.288.108h-3.264a.193.193 0 0 0-.084.024c-.032.016-.056.06-.072.132-.064.36-.068.684-.012.972.056.288.188.512.396.672.208.152.504.228.888.228.288 0 .592-.032.912-.096.328-.072.6-.168.816-.288a.478.478 0 0 1 .156-.06c.048-.016.08.016.096.096l.096.3c.016.048.016.084 0 .108a.555.555 0 0 1-.12.072 2.968 2.968 0 0 1-1.044.408c-.392.08-.788.12-1.188.12-.496 0-.884-.072-1.164-.216a1.33 1.33 0 0 1-.6-.624 2.298 2.298 0 0 1-.18-.936c.008-.352.056-.728.144-1.128Zm3.876-.588c.048-.216.072-.42.072-.612.008-.2-.024-.376-.096-.528a.723.723 0 0 0-.336-.372c-.16-.096-.38-.144-.66-.144-.272 0-.516.056-.732.168-.208.104-.388.24-.54.408a2.308 2.308 0 0 0-.372.552c-.096.192-.168.38-.216.564-.024.08-.032.136-.024.168.008.024.04.036.096.036h2.568c.072 0 .124-.012.156-.036.04-.032.068-.1.084-.204Zm.191 6.252c-.272 0-.484-.028-.636-.084a2.77 2.77 0 0 1-.228-.072c-.04-.016-.052-.06-.036-.132l.036-.132c.016-.056.032-.116.048-.18a.767.767 0 0 1 .024-.12c.008-.04.02-.064.036-.072.008 0 .032.004.072.012.12.048.24.08.36.096.112.024.232.036.36.036.392 0 .7-.128.924-.384.224-.248.38-.592.468-1.032.104-.552.196-1.068.276-1.548l.252-1.404.24-1.332c.088-.44.18-.892.276-1.356.008-.072-.024-.108-.096-.108h-.696a.081.081 0 0 1-.06-.024.167.167 0 0 1-.012-.072c.024-.08.044-.16.06-.24l.048-.24a.08.08 0 0 1 .036-.072.148.148 0 0 1 .084-.024h.708c.064 0 .1-.032.108-.096.056-.344.136-.688.24-1.032.112-.352.3-.676.564-.972.224-.248.512-.44.864-.576.352-.136.772-.204 1.26-.204.232 0 .436.036.612.108.184.064.312.12.384.168.048.024.072.048.072.072a.08.08 0 0 1-.012.072l-.096.192-.096.192c-.024.04-.048.064-.072.072-.016.008-.036.004-.06-.012a.972.972 0 0 0-.36-.132 2.196 2.196 0 0 0-.552-.06c-.352 0-.648.06-.888.18a1.27 1.27 0 0 0-.564.576c-.12.2-.212.42-.276.66-.064.24-.12.468-.168.684-.016.072.008.108.072.108H56.984c.032 0 .052.008.06.024.008.008.008.036 0 .084-.008.04-.024.108-.048.204a8.37 8.37 0 0 1-.048.264.189.189 0 0 1-.048.072c-.016.016-.04.024-.072.024H55.052a.184.184 0 0 0-.072.024c-.024.016-.04.044-.048.084l-.036.132c-.008.056-.02.116-.036.18a2.683 2.683 0 0 1-.024.144l-.228 1.116-.228 1.236c-.072.424-.152.872-.24 1.344-.08.472-.168.968-.264 1.488-.12.648-.352 1.152-.696 1.512-.344.368-.868.552-1.572.552Z" fill="currentColor"/><path opacity=".2" d="M5.111 4.276c.488 0 .888.064 1.2.192.04.024.064.044.072.06.016.016.016.044 0 .084l-.216.456c-.016.04-.036.064-.06.072-.024.008-.052.004-.084-.012a1.734 1.734 0 0 0-.444-.096 3.153 3.153 0 0 0-.468-.036c-.128 0-.264.012-.408.036a4.583 4.583 0 0 0-.384.084c-.112.024-.2.048-.264.072l-.144.084c-.048.032-.084.104-.108.216l-.924 4.38c-.016.056-.036.092-.06.108-.016.016-.044.024-.084.024h-.648a.081.081 0 0 1-.06-.024c-.016-.016-.016-.044 0-.084l1.044-4.908c.024-.12.052-.2.084-.24.04-.04.1-.076.18-.108.256-.112.548-.2.876-.264.336-.064.636-.096.9-.096Zm1.41 2.88c.088-.376.205-.74.349-1.092.143-.352.335-.664.575-.936.24-.28.532-.5.877-.66.344-.16.752-.24 1.224-.24.495 0 .872.072 1.128.216.264.144.444.34.54.588.104.24.147.508.131.804-.008.288-.043.58-.107.876-.056.296-.124.48-.204.552a.416.416 0 0 1-.289.108H7.482a.193.193 0 0 0-.085.024c-.032.016-.056.06-.072.132-.064.36-.067.684-.011.972.056.288.188.512.396.672.208.152.503.228.888.228.287 0 .591-.032.911-.096.329-.072.6-.168.816-.288a.478.478 0 0 1 .157-.06c.048-.016.08.016.096.096l.096.3c.016.048.016.084 0 .108a.555.555 0 0 1-.12.072 2.968 2.968 0 0 1-1.045.408c-.392.08-.787.12-1.188.12-.495 0-.883-.072-1.163-.216a1.33 1.33 0 0 1-.6-.624 2.298 2.298 0 0 1-.18-.936c.008-.352.056-.728.143-1.128Zm3.877-.588c.047-.216.072-.42.072-.612.007-.2-.025-.376-.097-.528a.723.723 0 0 0-.335-.372c-.16-.096-.38-.144-.66-.144-.273 0-.517.056-.732.168-.209.104-.389.24-.54.408a2.308 2.308 0 0 0-.372.552c-.096.192-.168.38-.216.564-.024.08-.032.136-.024.168.008.024.04.036.096.036h2.567c.072 0 .124-.012.156-.036.04-.032.069-.1.085-.204Zm3.37 3.504c-.768 0-1.3-.228-1.596-.684-.288-.464-.328-1.18-.12-2.148.129-.608.305-1.1.529-1.476.232-.384.488-.68.768-.888.28-.216.563-.36.851-.432.296-.08.577-.12.84-.12.265 0 .52.044.769.132.248.088.42.176.516.264l.06-.288c.007-.032.02-.052.035-.06a.129.129 0 0 1 .072-.024h.648c.064 0 .096.032.096.096-.024.152-.064.364-.12.636-.047.264-.111.568-.192.912-.072.336-.155.7-.252 1.092-.088.392-.188.792-.3 1.2-.104.408-.215.812-.335 1.212a.424.424 0 0 1-.084.156c-.032.04-.104.08-.216.12a6.445 6.445 0 0 1-1.969.3Zm.228-.684c.136 0 .28-.012.432-.036l.432-.084c.129-.032.216-.056.264-.072a.425.425 0 0 0 .133-.072.294.294 0 0 0 .107-.168l.168-.66a58.715 58.715 0 0 0 .517-2.256c.047-.2.08-.352.096-.456a.226.226 0 0 0-.012-.132c-.017-.032-.052-.06-.108-.084a3.462 3.462 0 0 0-.48-.204 1.865 1.865 0 0 0-1.14-.012 1.622 1.622 0 0 0-.576.288c-.184.144-.357.364-.517.66-.16.288-.291.672-.396 1.152-.168.8-.16 1.356.024 1.668.193.312.545.468 1.056.468Zm5.658.672c-.488 0-.877-.072-1.165-.216a1.33 1.33 0 0 1-.6-.624 2.298 2.298 0 0 1-.18-.936c.009-.352.056-.728.145-1.128.088-.376.204-.74.348-1.092.143-.352.335-.664.575-.936.24-.28.532-.5.877-.66.343-.16.752-.24 1.224-.24.335 0 .616.036.84.108.224.064.407.168.552.312.04.04.06.072.06.096.008.016.004.048-.012.096l-.109.516c-.008.048-.027.076-.06.084-.032 0-.06-.016-.084-.048a1.012 1.012 0 0 0-.54-.336 2.415 2.415 0 0 0-.72-.108 1.65 1.65 0 0 0-.828.204c-.232.128-.431.3-.6.516a3.205 3.205 0 0 0-.42.72 4.144 4.144 0 0 0-.336 1.956c.033.328.145.584.337.768.2.176.492.264.876.264.247 0 .48-.024.695-.072.216-.056.424-.128.625-.216.096-.048.148-.032.155.048l.096.384c.008.04.005.072-.012.096a.702.702 0 0 1-.072.06 2.559 2.559 0 0 1-.768.288 4.247 4.247 0 0 1-.9.096ZM24.23 10c-.495 0-.84-.104-1.032-.312-.192-.216-.288-.516-.288-.9.009-.336.049-.688.12-1.056.08-.376.16-.76.24-1.152.064-.272.125-.532.18-.78.056-.248.12-.5.192-.756.017-.072-.011-.108-.084-.108h-.6c-.031 0-.055-.008-.071-.024-.009-.016-.009-.04 0-.072l.084-.408a.152.152 0 0 1 .035-.072c.017-.016.044-.024.084-.024h.613c.04 0 .067-.008.084-.024a.278.278 0 0 0 .06-.12l.275-1.02c.017-.056.044-.084.084-.084h.672c.024 0 .044.008.06.024.024.016.033.036.024.06l-.276 1.02c-.015.056-.02.096-.012.12.009.016.032.024.073.024h1.404c.04 0 .064.008.072.024.008.008.008.036 0 .084l-.084.384c0 .032-.012.06-.037.084-.015.016-.044.024-.084.024h-1.404c-.024 0-.052.012-.084.036-.024.016-.04.048-.047.096a22.192 22.192 0 0 0-.384 1.584c-.073.328-.14.664-.204 1.008a5.253 5.253 0 0 0-.096.984c0 .224.052.392.155.504.113.112.308.168.588.168a1.6 1.6 0 0 0 .336-.036l.36-.096c.064-.032.105-.044.12-.036.017.008.029.036.037.084l.035.396c.017.072-.055.14-.215.204a4.612 4.612 0 0 1-.337.096 7.144 7.144 0 0 1-.372.06 4.02 4.02 0 0 1-.276.012Zm4.514-7.224a.668.668 0 0 1-.168.336c-.072.072-.208.108-.408.108-.192 0-.316-.036-.372-.108-.048-.08-.056-.192-.024-.336a.498.498 0 0 1 .168-.312c.088-.08.228-.12.42-.12.208 0 .328.04.36.12.04.072.048.176.024.312Zm-1.572 7.14c-.008.056-.044.084-.108.084h-.672c-.056 0-.08-.028-.072-.084l1.164-5.496c.016-.056.052-.084.108-.084h.672c.024 0 .044.008.06.024s.02.036.012.06l-1.164 5.496Zm2.882.084a.124.124 0 0 1-.12-.072 6.7 6.7 0 0 1-.288-1.068 66.722 66.722 0 0 1-.18-1.14c-.08-.64-.132-1.232-.156-1.776a15.503 15.503 0 0 1 .012-1.392.497.497 0 0 1 .036-.156c.016-.04.044-.06.084-.06h.648c.032 0 .06.012.084.036.024.016.036.044.036.084a7.16 7.16 0 0 0-.036.972c.008.368.024.764.048 1.188.016.312.036.608.06.888.032.28.064.528.096.744.04.216.072.384.096.504.032.096.072.14.12.132.048-.016.092-.056.132-.12.112-.144.26-.38.444-.708.184-.328.38-.704.588-1.128.232-.464.44-.924.624-1.38.192-.456.336-.832.432-1.128.024-.056.06-.084.108-.084h.708c.048 0 .064.028.048.084a19.26 19.26 0 0 1-.6 1.476c-.24.544-.516 1.092-.828 1.644-.224.424-.46.836-.708 1.236-.248.392-.512.776-.792 1.152-.032.048-.068.072-.108.072h-.588Zm3.772-2.844c.088-.376.204-.74.348-1.092.144-.352.336-.664.576-.936.24-.28.532-.5.876-.66.344-.16.752-.24 1.224-.24.496 0 .872.072 1.128.216.264.144.444.34.54.588.104.24.148.508.132.804-.008.288-.044.58-.108.876-.056.296-.124.48-.204.552a.416.416 0 0 1-.288.108h-3.264a.193.193 0 0 0-.084.024c-.032.016-.056.06-.072.132-.064.36-.068.684-.012.972.056.288.188.512.396.672.208.152.504.228.888.228.288 0 .592-.032.912-.096.328-.072.6-.168.816-.288a.478.478 0 0 1 .156-.06c.048-.016.08.016.096.096l.096.3c.016.048.016.084 0 .108a.555.555 0 0 1-.12.072 2.968 2.968 0 0 1-1.044.408c-.392.08-.788.12-1.188.12-.496 0-.884-.072-1.164-.216a1.33 1.33 0 0 1-.6-.624 2.298 2.298 0 0 1-.18-.936c.008-.352.056-.728.144-1.128Zm3.876-.588c.048-.216.072-.42.072-.612.008-.2-.024-.376-.096-.528a.723.723 0 0 0-.336-.372c-.16-.096-.38-.144-.66-.144-.272 0-.516.056-.732.168-.208.104-.388.24-.54.408a2.308 2.308 0 0 0-.372.552c-.096.192-.168.38-.216.564-.024.08-.032.136-.024.168.008.024.04.036.096.036h2.568c.072 0 .124-.012.156-.036.04-.032.068-.1.084-.204Zm7.405-2.292c.488 0 .888.064 1.2.192.04.024.064.044.072.06.016.016.016.044 0 .084l-.216.456c-.016.04-.036.064-.06.072-.024.008-.052.004-.084-.012a1.734 1.734 0 0 0-.444-.096 3.153 3.153 0 0 0-.468-.036c-.128 0-.264.012-.408.036a4.583 4.583 0 0 0-.384.084c-.112.024-.2.048-.264.072l-.144.084c-.048.032-.084.104-.108.216l-.924 4.38c-.016.056-.036.092-.06.108-.016.016-.044.024-.084.024h-.648a.081.081 0 0 1-.06-.024c-.016-.016-.016-.044 0-.084l1.044-4.908c.024-.12.052-.2.084-.24.04-.04.1-.076.18-.108.256-.112.548-.2.876-.264.336-.064.636-.096.9-.096Zm1.41 2.88c.089-.376.205-.74.349-1.092.144-.352.336-.664.576-.936.24-.28.532-.5.876-.66.344-.16.752-.24 1.224-.24.496 0 .872.072 1.128.216.264.144.444.34.54.588.104.24.148.508.132.804-.008.288-.044.58-.108.876-.056.296-.124.48-.204.552a.416.416 0 0 1-.288.108h-3.264a.193.193 0 0 0-.084.024c-.032.016-.056.06-.072.132-.064.36-.068.684-.012.972.056.288.188.512.396.672.208.152.504.228.888.228.288 0 .592-.032.912-.096.328-.072.6-.168.816-.288a.478.478 0 0 1 .156-.06c.048-.016.08.016.096.096l.096.3c.016.048.016.084 0 .108a.555.555 0 0 1-.12.072 2.968 2.968 0 0 1-1.044.408c-.392.08-.788.12-1.188.12-.496 0-.884-.072-1.164-.216a1.33 1.33 0 0 1-.6-.624 2.298 2.298 0 0 1-.18-.936c.008-.352.056-.728.144-1.128Zm3.877-.588c.048-.216.072-.42.072-.612.008-.2-.024-.376-.096-.528a.723.723 0 0 0-.336-.372c-.16-.096-.38-.144-.66-.144-.272 0-.516.056-.732.168-.208.104-.388.24-.54.408a2.308 2.308 0 0 0-.372.552c-.096.192-.168.38-.216.564-.024.08-.032.136-.024.168.008.024.04.036.096.036h2.568c.072 0 .124-.012.156-.036.04-.032.068-.1.084-.204Zm.19 6.252c-.271 0-.483-.028-.635-.084a2.77 2.77 0 0 1-.228-.072c-.04-.016-.052-.06-.036-.132l.036-.132c.016-.056.032-.116.048-.18a.767.767 0 0 1 .024-.12c.008-.04.02-.064.036-.072.008 0 .032.004.072.012.12.048.24.08.36.096.112.024.232.036.36.036.392 0 .7-.128.924-.384.224-.248.38-.592.468-1.032.104-.552.196-1.068.276-1.548l.252-1.404.24-1.332c.088-.44.18-.892.276-1.356.008-.072-.024-.108-.096-.108h-.696a.081.081 0 0 1-.06-.024.167.167 0 0 1-.012-.072c.024-.08.044-.16.06-.24l.048-.24a.08.08 0 0 1 .036-.072.148.148 0 0 1 .084-.024h.708c.064 0 .1-.032.108-.096.056-.344.136-.688.24-1.032.112-.352.3-.676.564-.972.224-.248.512-.44.864-.576.352-.136.772-.204 1.26-.204.232 0 .436.036.612.108.184.064.312.12.384.168.048.024.072.048.072.072a.08.08 0 0 1-.012.072l-.096.192-.096.192c-.024.04-.048.064-.072.072-.016.008-.036.004-.06-.012a.972.972 0 0 0-.36-.132 2.196 2.196 0 0 0-.552-.06c-.352 0-.648.06-.888.18a1.27 1.27 0 0 0-.564.576c-.12.2-.212.42-.276.66-.064.24-.12.468-.168.684-.016.072.008.108.072.108H55.96c.032 0 .052.008.06.024.008.008.008.036 0 .084-.008.04-.024.108-.048.204a8.37 8.37 0 0 1-.048.264.189.189 0 0 1-.048.072c-.016.016-.04.024-.072.024H54.029a.184.184 0 0 0-.072.024c-.024.016-.04.044-.048.084l-.036.132c-.008.056-.02.116-.036.18a2.683 2.683 0 0 1-.024.144l-.228 1.116-.228 1.236c-.072.424-.152.872-.24 1.344-.08.472-.168.968-.264 1.488-.12.648-.352 1.152-.696 1.512-.344.368-.868.552-1.572.552Z" fill="currentColor"/><path opacity=".05" d="M4.111 4.276c.488 0 .888.064 1.2.192.04.024.064.044.072.06.016.016.016.044 0 .084l-.216.456c-.016.04-.036.064-.06.072-.024.008-.052.004-.084-.012a1.734 1.734 0 0 0-.444-.096 3.153 3.153 0 0 0-.468-.036c-.128 0-.264.012-.408.036a4.583 4.583 0 0 0-.384.084c-.112.024-.2.048-.264.072l-.144.084c-.048.032-.084.104-.108.216l-.924 4.38c-.016.056-.036.092-.06.108-.016.016-.044.024-.084.024h-.648a.081.081 0 0 1-.06-.024c-.016-.016-.016-.044 0-.084l1.044-4.908c.024-.12.052-.2.084-.24.04-.04.1-.076.18-.108.256-.112.548-.2.876-.264.336-.064.636-.096.9-.096Zm1.41 2.88c.088-.376.205-.74.349-1.092.143-.352.335-.664.575-.936.24-.28.532-.5.877-.66.343-.16.751-.24 1.224-.24.495 0 .872.072 1.128.216.264.144.444.34.54.588.104.24.147.508.131.804-.008.288-.043.58-.107.876-.056.296-.124.48-.204.552a.416.416 0 0 1-.289.108H6.482a.193.193 0 0 0-.085.024c-.032.016-.056.06-.072.132-.064.36-.067.684-.011.972.056.288.188.512.396.672.208.152.503.228.888.228.288 0 .592-.032.911-.096.329-.072.6-.168.816-.288a.478.478 0 0 1 .157-.06c.048-.016.08.016.096.096l.096.3c.016.048.016.084 0 .108a.555.555 0 0 1-.12.072 2.968 2.968 0 0 1-1.045.408c-.392.08-.788.12-1.188.12-.495 0-.883-.072-1.163-.216a1.33 1.33 0 0 1-.6-.624 2.298 2.298 0 0 1-.18-.936c.008-.352.056-.728.143-1.128Zm3.877-.588c.047-.216.072-.42.072-.612.007-.2-.025-.376-.097-.528a.723.723 0 0 0-.335-.372c-.16-.096-.38-.144-.66-.144-.273 0-.516.056-.732.168-.208.104-.388.24-.54.408a2.308 2.308 0 0 0-.372.552c-.096.192-.168.38-.216.564-.024.08-.032.136-.024.168.008.024.04.036.096.036h2.568c.072 0 .123-.012.155-.036.04-.032.069-.1.085-.204Zm3.37 3.504c-.768 0-1.3-.228-1.596-.684-.288-.464-.328-1.18-.12-2.148.129-.608.305-1.1.529-1.476.232-.384.488-.68.768-.888.28-.216.563-.36.851-.432.296-.08.577-.12.84-.12.265 0 .52.044.769.132.248.088.42.176.516.264l.06-.288c.008-.032.02-.052.036-.06a.129.129 0 0 1 .072-.024h.647c.064 0 .096.032.096.096-.024.152-.064.364-.12.636-.047.264-.111.568-.191.912-.073.336-.157.7-.253 1.092-.088.392-.188.792-.3 1.2-.104.408-.216.812-.335 1.212a.424.424 0 0 1-.085.156c-.031.04-.104.08-.216.12a6.445 6.445 0 0 1-1.968.3Zm.228-.684c.136 0 .28-.012.432-.036l.432-.084c.129-.032.216-.056.264-.072a.425.425 0 0 0 .133-.072.294.294 0 0 0 .107-.168l.168-.66a58.715 58.715 0 0 0 .517-2.256c.048-.2.08-.352.096-.456a.226.226 0 0 0-.012-.132c-.016-.032-.052-.06-.108-.084a3.462 3.462 0 0 0-.48-.204 1.865 1.865 0 0 0-1.14-.012 1.622 1.622 0 0 0-.576.288c-.184.144-.357.364-.517.66-.16.288-.291.672-.396 1.152-.168.8-.16 1.356.024 1.668.193.312.545.468 1.056.468Zm5.658.672c-.488 0-.877-.072-1.165-.216a1.33 1.33 0 0 1-.6-.624 2.298 2.298 0 0 1-.18-.936c.009-.352.056-.728.145-1.128.088-.376.204-.74.348-1.092.143-.352.335-.664.575-.936.24-.28.532-.5.877-.66.343-.16.752-.24 1.224-.24.335 0 .616.036.84.108.224.064.407.168.552.312.04.04.06.072.06.096.008.016.004.048-.012.096l-.109.516c-.008.048-.027.076-.06.084-.032 0-.06-.016-.084-.048a1.012 1.012 0 0 0-.54-.336 2.415 2.415 0 0 0-.72-.108 1.65 1.65 0 0 0-.828.204c-.232.128-.431.3-.6.516a3.205 3.205 0 0 0-.42.72 4.144 4.144 0 0 0-.336 1.956c.033.328.145.584.337.768.2.176.492.264.876.264.247 0 .48-.024.695-.072.216-.056.424-.128.625-.216.096-.048.148-.032.155.048l.096.384c.008.04.005.072-.012.096a.702.702 0 0 1-.072.06 2.559 2.559 0 0 1-.768.288 4.247 4.247 0 0 1-.9.096ZM23.23 10c-.495 0-.84-.104-1.032-.312-.192-.216-.288-.516-.288-.9.009-.336.049-.688.12-1.056.08-.376.16-.76.24-1.152.064-.272.125-.532.18-.78.056-.248.12-.5.192-.756.017-.072-.011-.108-.084-.108h-.6c-.031 0-.055-.008-.071-.024-.009-.016-.009-.04 0-.072l.084-.408a.152.152 0 0 1 .035-.072c.017-.016.044-.024.084-.024h.613c.04 0 .067-.008.084-.024a.278.278 0 0 0 .06-.12l.275-1.02c.017-.056.044-.084.084-.084h.672c.024 0 .044.008.06.024.024.016.033.036.024.06l-.276 1.02c-.015.056-.02.096-.012.12.009.016.032.024.073.024h1.404c.04 0 .064.008.072.024.008.008.008.036 0 .084l-.084.384c0 .032-.012.06-.037.084-.015.016-.044.024-.084.024h-1.404c-.024 0-.052.012-.084.036-.024.016-.04.048-.047.096a22.192 22.192 0 0 0-.384 1.584c-.073.328-.14.664-.204 1.008a5.253 5.253 0 0 0-.096.984c0 .224.052.392.155.504.113.112.308.168.588.168a1.6 1.6 0 0 0 .336-.036l.36-.096c.064-.032.105-.044.12-.036.017.008.029.036.037.084l.035.396c.017.072-.055.14-.215.204a4.612 4.612 0 0 1-.337.096 7.144 7.144 0 0 1-.372.06 4.02 4.02 0 0 1-.276.012Zm4.514-7.224a.668.668 0 0 1-.168.336c-.072.072-.208.108-.408.108-.192 0-.316-.036-.372-.108-.048-.08-.056-.192-.024-.336a.498.498 0 0 1 .168-.312c.088-.08.228-.12.42-.12.208 0 .328.04.36.12.04.072.048.176.024.312Zm-1.572 7.14c-.008.056-.044.084-.108.084h-.672c-.056 0-.08-.028-.072-.084l1.164-5.496c.016-.056.052-.084.108-.084h.672c.024 0 .044.008.06.024s.02.036.012.06l-1.164 5.496Zm2.882.084a.124.124 0 0 1-.12-.072 6.7 6.7 0 0 1-.288-1.068 66.722 66.722 0 0 1-.18-1.14c-.08-.64-.132-1.232-.156-1.776a15.503 15.503 0 0 1 .012-1.392.497.497 0 0 1 .036-.156c.016-.04.044-.06.084-.06h.648c.032 0 .06.012.084.036.024.016.036.044.036.084a7.16 7.16 0 0 0-.036.972c.008.368.024.764.048 1.188.016.312.036.608.06.888.032.28.064.528.096.744.04.216.072.384.096.504.032.096.072.14.12.132.048-.016.092-.056.132-.12.112-.144.26-.38.444-.708.184-.328.38-.704.588-1.128.232-.464.44-.924.624-1.38.192-.456.336-.832.432-1.128.024-.056.06-.084.108-.084h.708c.048 0 .064.028.048.084a19.26 19.26 0 0 1-.6 1.476c-.24.544-.516 1.092-.828 1.644-.224.424-.46.836-.708 1.236-.248.392-.512.776-.792 1.152-.032.048-.068.072-.108.072h-.588Zm3.772-2.844c.088-.376.204-.74.348-1.092.144-.352.336-.664.576-.936.24-.28.532-.5.876-.66.344-.16.752-.24 1.224-.24.496 0 .872.072 1.128.216.264.144.444.34.54.588.104.24.148.508.132.804-.008.288-.044.58-.108.876-.056.296-.124.48-.204.552a.416.416 0 0 1-.288.108h-3.264a.193.193 0 0 0-.084.024c-.032.016-.056.06-.072.132-.064.36-.068.684-.012.972.056.288.188.512.396.672.208.152.504.228.888.228.288 0 .592-.032.912-.096.328-.072.6-.168.816-.288a.478.478 0 0 1 .156-.06c.048-.016.08.016.096.096l.096.3c.016.048.016.084 0 .108a.555.555 0 0 1-.12.072 2.968 2.968 0 0 1-1.044.408c-.392.08-.788.12-1.188.12-.496 0-.884-.072-1.164-.216a1.33 1.33 0 0 1-.6-.624 2.298 2.298 0 0 1-.18-.936c.008-.352.056-.728.144-1.128Zm3.876-.588c.048-.216.072-.42.072-.612.008-.2-.024-.376-.096-.528a.723.723 0 0 0-.336-.372c-.16-.096-.38-.144-.66-.144-.272 0-.516.056-.732.168-.208.104-.388.24-.54.408a2.308 2.308 0 0 0-.372.552c-.096.192-.168.38-.216.564-.024.08-.032.136-.024.168.008.024.04.036.096.036h2.568c.072 0 .124-.012.156-.036.04-.032.068-.1.084-.204Zm7.405-2.292c.488 0 .888.064 1.2.192.04.024.064.044.072.06.016.016.016.044 0 .084l-.216.456c-.016.04-.036.064-.06.072-.024.008-.052.004-.084-.012a1.734 1.734 0 0 0-.444-.096 3.153 3.153 0 0 0-.468-.036c-.128 0-.264.012-.408.036a4.583 4.583 0 0 0-.384.084c-.112.024-.2.048-.264.072l-.144.084c-.048.032-.084.104-.108.216l-.924 4.38c-.016.056-.036.092-.06.108-.016.016-.044.024-.084.024h-.648a.081.081 0 0 1-.06-.024c-.016-.016-.016-.044 0-.084l1.044-4.908c.024-.12.052-.2.084-.24.04-.04.1-.076.18-.108.256-.112.548-.2.876-.264.336-.064.636-.096.9-.096Zm1.41 2.88c.089-.376.205-.74.349-1.092.144-.352.336-.664.576-.936.24-.28.532-.5.876-.66.344-.16.752-.24 1.224-.24.496 0 .872.072 1.128.216.264.144.444.34.54.588.104.24.148.508.132.804-.008.288-.044.58-.108.876-.056.296-.124.48-.204.552a.416.416 0 0 1-.288.108h-3.264a.193.193 0 0 0-.084.024c-.032.016-.056.06-.072.132-.064.36-.068.684-.012.972.056.288.188.512.396.672.208.152.504.228.888.228.288 0 .592-.032.912-.096.328-.072.6-.168.816-.288a.478.478 0 0 1 .156-.06c.048-.016.08.016.096.096l.096.3c.016.048.016.084 0 .108a.555.555 0 0 1-.12.072 2.968 2.968 0 0 1-1.044.408c-.392.08-.788.12-1.188.12-.496 0-.884-.072-1.164-.216a1.33 1.33 0 0 1-.6-.624 2.298 2.298 0 0 1-.18-.936c.008-.352.056-.728.144-1.128Zm3.877-.588c.048-.216.072-.42.072-.612.008-.2-.024-.376-.096-.528a.723.723 0 0 0-.336-.372c-.16-.096-.38-.144-.66-.144-.272 0-.516.056-.732.168-.208.104-.388.24-.54.408a2.308 2.308 0 0 0-.372.552c-.096.192-.168.38-.216.564-.024.08-.032.136-.024.168.008.024.04.036.096.036h2.568c.072 0 .124-.012.156-.036.04-.032.068-.1.084-.204Zm.19 6.252c-.271 0-.483-.028-.635-.084a2.77 2.77 0 0 1-.228-.072c-.04-.016-.052-.06-.036-.132l.036-.132c.016-.056.032-.116.048-.18a.767.767 0 0 1 .024-.12c.008-.04.02-.064.036-.072.008 0 .032.004.072.012.12.048.24.08.36.096.112.024.232.036.36.036.392 0 .7-.128.924-.384.224-.248.38-.592.468-1.032.104-.552.196-1.068.276-1.548l.252-1.404.24-1.332c.088-.44.18-.892.276-1.356.008-.072-.024-.108-.096-.108h-.696a.081.081 0 0 1-.06-.024.167.167 0 0 1-.012-.072c.024-.08.044-.16.06-.24l.048-.24a.08.08 0 0 1 .036-.072.148.148 0 0 1 .084-.024h.708c.064 0 .1-.032.108-.096.056-.344.136-.688.24-1.032.112-.352.3-.676.564-.972.224-.248.512-.44.864-.576.352-.136.772-.204 1.26-.204.232 0 .436.036.612.108.184.064.312.12.384.168.048.024.072.048.072.072a.08.08 0 0 1-.012.072l-.096.192-.096.192c-.024.04-.048.064-.072.072-.016.008-.036.004-.06-.012a.972.972 0 0 0-.36-.132 2.196 2.196 0 0 0-.552-.06c-.352 0-.648.06-.888.18a1.27 1.27 0 0 0-.564.576c-.12.2-.212.42-.276.66-.064.24-.12.468-.168.684-.016.072.008.108.072.108H54.96c.032 0 .052.008.06.024.008.008.008.036 0 .084-.008.04-.024.108-.048.204a8.37 8.37 0 0 1-.048.264.189.189 0 0 1-.048.072c-.016.016-.04.024-.072.024H53.029a.184.184 0 0 0-.072.024c-.024.016-.04.044-.048.084l-.036.132c-.008.056-.02.116-.036.18a2.683 2.683 0 0 1-.024.144l-.228 1.116-.228 1.236c-.072.424-.152.872-.24 1.344-.08.472-.168.968-.264 1.488-.12.648-.352 1.152-.696 1.512-.344.368-.868.552-1.572.552Z" fill="currentColor"/></svg>