<svg width="61" height="50" viewBox="0 0 61 50" fill="none" xmlns="http://www.w3.org/2000/svg"><path d="M14.42 15.08c-.46 0-.82-.117-1.08-.35-.254-.24-.38-.58-.38-1.02v-2.99l-.84-.13v-.33l1.27-.29.26.14v3.15c0 .467.08.79.24.97.166.173.47.26.91.26.14 0 .306-.03.5-.09.193-.06.366-.137.52-.23v-3.45l-.82-.13v-.33l1.27-.29.26.14v4.22l.69.16v.33l-1.28.19-.12-.51-.01.01a1.62 1.62 0 0 1-.6.41c-.254.107-.517.16-.79.16Zm5.128 0c-.24 0-.466-.027-.68-.08a3.777 3.777 0 0 1-.54-.16 1.621 1.621 0 0 1-.32-.17l.13-1.16h.36l.11.79c.094.067.227.13.4.19.174.06.377.09.61.09.434 0 .72-.087.86-.26.147-.173.22-.393.22-.66 0-.213-.056-.377-.17-.49a.972.972 0 0 0-.43-.27 6.336 6.336 0 0 0-.57-.18c-.18-.047-.356-.1-.53-.16a2.056 2.056 0 0 1-.47-.23 1.045 1.045 0 0 1-.34-.38 1.272 1.272 0 0 1-.13-.61c0-.307.08-.56.24-.76.16-.207.374-.36.64-.46.274-.1.57-.15.89-.15.214 0 .414.017.6.05.194.033.36.073.5.12.14.04.24.08.3.12l-.15 1.2h-.35l-.13-.82a2.384 2.384 0 0 0-.31-.08 2.106 2.106 0 0 0-.55-.07c-.386 0-.656.06-.81.18-.146.12-.22.32-.22.6 0 .16.05.29.15.39.1.093.234.17.4.23.167.06.347.12.54.18.18.053.364.113.55.18.187.067.357.153.51.26.154.107.277.243.37.41.094.16.14.367.14.62 0 .387-.086.693-.26.92-.166.22-.39.38-.67.48-.273.093-.57.14-.89.14Zm4.47 0c-.493 0-.896-.11-1.21-.33a2.01 2.01 0 0 1-.68-.89 3.28 3.28 0 0 1-.21-1.18c0-.54.094-1.013.28-1.42.187-.407.447-.723.78-.95.334-.227.717-.34 1.15-.34.267 0 .497.05.69.15.194.093.354.223.48.39.127.167.22.357.28.57.067.207.1.427.1.66 0 .367-.033.61-.1.73-.06.12-.186.18-.38.18h-2.53c0 .313.05.607.15.88.107.267.28.483.52.65.24.167.564.25.97.25.354 0 .63-.037.83-.11.207-.073.32-.117.34-.13l.13.24c-.02.02-.096.083-.23.19-.133.107-.316.21-.55.31-.226.1-.496.15-.81.15Zm-1.33-2.84 2.3-.08c.02-.12.03-.26.03-.42 0-.393-.073-.7-.22-.92-.146-.22-.426-.33-.84-.33-.28 0-.516.067-.71.2-.186.133-.326.33-.42.59-.093.26-.14.58-.14.96ZM26.684 15v-.4l.84-.16V9.08l-.84-.16v-.4h4.48v1.58h-.44l-.2-1.08h-1.17l-1.12.05v2.37h1.73l.13-.56h.39v1.58h-.39l-.13-.55h-1.73v2.44c.14.04.326.073.56.1.233.02.456.03.67.03h1.14l.2-1.03h.45V15h-4.57Zm5.243 0v-.37l.66-.14v-3.92h-.57v-.4l.56-.11c.02-.393.113-.74.28-1.04.166-.307.386-.547.66-.72.28-.173.593-.26.94-.26.18 0 .313.043.4.13.086.08.13.17.13.27 0 .107-.03.2-.09.28a.452.452 0 0 1-.16.16 3.843 3.843 0 0 0-.41-.09 2.31 2.31 0 0 0-.38-.03c-.114 0-.234.007-.36.02a.846.846 0 0 0-.31.09v1.21h2.18c.02-.4.113-.753.28-1.06.166-.307.386-.547.66-.72.28-.173.593-.26.94-.26.18 0 .313.043.4.13.086.08.13.17.13.27 0 .107-.03.2-.09.28a.452.452 0 0 1-.16.16 3.843 3.843 0 0 0-.41-.09 2.31 2.31 0 0 0-.38-.03c-.114 0-.234.007-.36.02a.846.846 0 0 0-.31.09v1.21h1.27v.26l-.13.23h-1.14v3.9l1.04.16V15h-2.5v-.37l.77-.14v-3.92h-2.19v3.9l.84.16V15h-2.19Zm7.962.08c-.494 0-.897-.11-1.21-.33a2.01 2.01 0 0 1-.68-.89 3.28 3.28 0 0 1-.21-1.18c0-.54.093-1.013.28-1.42.186-.407.446-.723.78-.95.333-.227.716-.34 1.15-.34.266 0 .496.05.69.15.193.093.353.223.48.39.126.167.22.357.28.57.066.207.1.427.1.66 0 .367-.034.61-.1.73-.06.12-.187.18-.38.18h-2.53c0 .313.05.607.15.88.106.267.28.483.52.65.24.167.563.25.97.25.353 0 .63-.037.83-.11a3.48 3.48 0 0 0 .34-.13l.13.24c-.02.02-.097.083-.23.19-.134.107-.317.21-.55.31-.227.1-.497.15-.81.15Zm-1.33-2.84 2.3-.08c.02-.12.03-.26.03-.42 0-.393-.074-.7-.22-.92-.147-.22-.427-.33-.84-.33-.28 0-.517.067-.71.2-.187.133-.327.33-.42.59-.094.26-.14.58-.14.96Zm5.685 2.84a2.19 2.19 0 0 1-1.06-.26 1.925 1.925 0 0 1-.75-.81c-.187-.36-.28-.807-.28-1.34 0-.32.04-.64.12-.96a2.8 2.8 0 0 1 .4-.87c.18-.267.41-.477.69-.63.287-.16.627-.24 1.02-.24.34 0 .617.063.83.19.22.12.38.273.48.46.107.187.16.383.16.59 0 .073-.02.143-.06.21a.495.495 0 0 1-.16.15.405.405 0 0 1-.2.05.672.672 0 0 1-.18-.02.896.896 0 0 1-.09-.05l-.15-.92a.89.89 0 0 0-.23-.08 1.58 1.58 0 0 0-.47-.06c-.367 0-.653.08-.86.24-.2.153-.34.387-.42.7-.08.307-.12.693-.12 1.16 0 .46.067.827.2 1.1.133.267.323.457.57.57.253.113.553.17.9.17.313 0 .57-.033.77-.1.207-.067.323-.107.35-.12l.12.26c-.02.02-.09.08-.21.18-.12.1-.293.197-.52.29-.227.093-.51.14-.85.14Zm3.906-.05c-.267 0-.474-.047-.62-.14a.703.703 0 0 1-.3-.38 1.667 1.667 0 0 1-.08-.53v-3.44h-.74v-.37l.74-.21.19-1h.5v1.1h1.41v.24l-.14.24h-1.27v3.4c0 .193.04.32.12.38.08.053.203.08.37.08.193 0 .37-.017.53-.05l.28-.07.08.27c-.16.14-.34.257-.54.35-.2.087-.377.13-.53.13ZM11.203 29.084 9.5 23.876l-.72-.156v-.672h3.204v.72l-.828.108.013.084.948 3.3.12.48.071-.444 1.08-4.248H14.9l1.117 4.212.12.48.084-.444.995-3.312.012-.108-.9-.108v-.72h2.748v.684l-.791.144-1.644 5.208h-1.572l-1.176-4.068-1.092 4.068h-1.597ZM18.976 29v-.66l.948-.168v-4.08l-.972-.192v-.696l2.112-.276.444.168v5.076l.84.168V29h-3.372Zm1.5-6.732a.895.895 0 0 1-.66-.264.967.967 0 0 1-.264-.696c0-.272.1-.512.3-.72.2-.208.44-.312.72-.312.264 0 .484.08.66.24.184.16.276.392.276.696 0 .28-.096.528-.288.744-.184.208-.432.312-.744.312Zm4.757 6.84c-.416 0-.748-.06-.996-.18a1.058 1.058 0 0 1-.504-.552c-.096-.24-.144-.536-.144-.888v-3.576h-1.152v-.768l1.152-.252.528-1.452h1.056v1.572h1.692v.552l-.168.348h-1.524v3.36c0 .32.056.528.168.624.12.096.28.144.48.144.176 0 .344-.016.504-.048.16-.04.296-.088.408-.144l.204.612c-.2.2-.456.36-.768.48a2.754 2.754 0 0 1-.936.168ZM27.328 29v-.66l.948-.168v-6.396l-.972-.192v-.696l2.112-.276.444.168v2.58l-.12.084.036.072a2.96 2.96 0 0 1 .432-.252c.2-.096.42-.18.66-.252.248-.08.496-.12.744-.12.352 0 .656.056.912.168.256.112.452.296.588.552.136.248.204.576.204.984v3.576l.888.168V29H30.94v-.66l.792-.168v-3.276c0-.216-.02-.392-.06-.528a.469.469 0 0 0-.264-.312c-.136-.072-.344-.108-.624-.108-.144 0-.304.008-.48.024s-.324.04-.444.072v4.128l.792.168V29h-3.324Zm10.065.168c-.68 0-1.224-.12-1.632-.36a2.074 2.074 0 0 1-.888-1.044c-.176-.464-.264-1.012-.264-1.644 0-.416.056-.816.168-1.2.112-.392.288-.74.528-1.044a2.42 2.42 0 0 1 .948-.732c.392-.184.864-.276 1.416-.276.64 0 1.156.128 1.548.384.4.248.692.596.876 1.044.184.448.276.964.276 1.548 0 .424-.052.836-.156 1.236-.096.4-.26.76-.492 1.08-.224.312-.528.56-.912.744-.376.176-.848.264-1.416.264Zm.204-.96c.328 0 .564-.1.708-.3.152-.208.248-.48.288-.816.048-.336.072-.7.072-1.092 0-.52-.028-.936-.084-1.248-.056-.32-.164-.552-.324-.696-.16-.152-.4-.228-.72-.228-.352 0-.616.076-.792.228-.176.144-.292.376-.348.696A7.5 7.5 0 0 0 36.313 26c0 .48.028.884.084 1.212.056.328.176.576.36.744.184.168.464.252.84.252Zm5.907.936c-.616 0-1.068-.136-1.356-.408-.288-.28-.432-.708-.432-1.284v-3.36l-.96-.192v-.696l2.1-.276.444.168v3.924c0 .384.072.66.216.828.144.168.42.252.828.252.16 0 .324-.02.492-.06.168-.048.3-.096.396-.144v-3.804l-.972-.192v-.696l2.1-.276.456.168v4.848l.948.192v.696l-2.088.276-.36-.552-.096.012a2.952 2.952 0 0 1-1.716.576Zm7.112-.036c-.416 0-.748-.06-.996-.18a1.058 1.058 0 0 1-.504-.552c-.096-.24-.144-.536-.144-.888v-3.576H47.82v-.768l1.152-.252.528-1.452h1.056v1.572h1.692v.552l-.168.348h-1.524v3.36c0 .32.056.528.168.624.12.096.28.144.48.144.176 0 .344-.016.504-.048.16-.04.296-.088.408-.144l.204.612c-.2.2-.456.36-.768.48a2.754 2.754 0 0 1-.936.168ZM17.226 41v-.37l.8-.14v-3.62l-.8-.16v-.33l1.25-.29.24.36c.234-.133.49-.243.77-.33.28-.093.524-.14.73-.14.28 0 .504.05.67.15.174.1.31.227.41.38a5.814 5.814 0 0 1 1.14-.44c.22-.06.43-.09.63-.09.347 0 .63.117.85.35.22.227.33.527.33.9v3.26l.82.14V41h-2.31v-.37l.8-.14v-3.05c0-.287-.08-.493-.24-.62-.16-.127-.423-.19-.79-.19-.126 0-.293.01-.5.03-.206.02-.393.053-.56.1v3.73l.61.15V41h-1.93v-.36l.63-.15v-3.05c0-.293-.076-.5-.23-.62-.153-.127-.413-.19-.78-.19-.12 0-.28.01-.48.03-.2.013-.39.047-.57.1v3.73l.81.14V41h-2.3Zm10.38.08c-.44 0-.813-.1-1.12-.3-.306-.2-.54-.487-.7-.86-.16-.373-.24-.813-.24-1.32 0-.36.054-.697.16-1.01.107-.32.257-.6.45-.84.194-.24.427-.427.7-.56.274-.14.574-.21.9-.21.467 0 .857.097 1.17.29.32.193.56.47.72.83.16.353.24.777.24 1.27 0 .393-.053.757-.16 1.09-.1.327-.246.613-.44.86-.193.24-.433.427-.72.56-.28.133-.6.2-.96.2Zm.19-.52c.334 0 .597-.077.79-.23.194-.153.33-.38.41-.68.087-.3.13-.663.13-1.09 0-.473-.043-.86-.13-1.16-.086-.307-.233-.533-.44-.68-.2-.147-.476-.22-.83-.22-.4 0-.703.08-.91.24-.2.153-.336.383-.41.69-.066.3-.1.677-.1 1.13 0 .42.044.78.13 1.08.094.293.247.52.46.68.22.16.52.24.9.24Zm4.753.52c-.46 0-.82-.117-1.08-.35-.253-.24-.38-.58-.38-1.02v-2.99l-.84-.13v-.33l1.27-.29.26.14v3.15c0 .467.08.79.24.97.167.173.47.26.91.26.14 0 .307-.03.5-.09.194-.06.367-.137.52-.23v-3.45l-.82-.13v-.33l1.27-.29.26.14v4.22l.69.16v.33l-1.28.19-.12-.51-.01.01a1.62 1.62 0 0 1-.6.41c-.253.107-.517.16-.79.16Zm3.36-.08v-.37l.81-.14v-3.61l-.81-.13v-.37l1.4-.29.05.37h.03c.28-.14.57-.253.87-.34.306-.093.553-.14.74-.14.412 0 .73.117.95.35.226.233.34.567.34 1v3.16l.81.14V41h-2.31v-.37l.81-.14v-3.04c0-.293-.084-.503-.25-.63-.167-.127-.457-.19-.87-.19-.188 0-.387.013-.6.04a2.67 2.67 0 0 0-.47.09v3.73l.8.14V41h-2.3Zm7.333.03c-.267 0-.474-.047-.62-.14a.704.704 0 0 1-.3-.38 1.67 1.67 0 0 1-.08-.53v-3.44h-.74v-.37l.74-.21.19-1h.5v1.1h1.41v.24l-.14.24h-1.27v3.4c0 .193.04.32.12.38.08.053.203.08.37.08.193 0 .37-.017.53-.05l.28-.07.08.27c-.16.14-.34.257-.54.35-.2.087-.377.13-.53.13ZM.799 24.5h3v3h-3zM29.799 0h2v2h-2zM57.299 24.5h3v3h-3zM29.799 48h2v2h-2z" fill="currentColor"/></svg>