<?xml version="1.0" standalone="no"?>
<!DOCTYPE svg PUBLIC "-//W3C//DTD SVG 20010904//EN"
 "http://www.w3.org/TR/2001/REC-SVG-20010904/DTD/svg10.dtd">
<svg version="1.0" xmlns="http://www.w3.org/2000/svg"
 width="700.000000pt" height="700.000000pt" viewBox="0 0 700.000000 700.000000"
 preserveAspectRatio="xMidYMid meet">
<metadata>
Created by potrace 1.14, written by Peter Selinger 2001-2017
</metadata>
<g transform="translate(0.000000,700.000000) scale(0.100000,-0.100000)"
fill="#000000" stroke="none">
<path d="M3185 6989 c-1393 -129 -2583 -1078 -3015 -2404 -255 -785 -223
-1653 90 -2414 389 -947 1184 -1685 2155 -2001 519 -169 1089 -214 1630 -129
1454 228 2618 1354 2894 2799 54 287 75 650 52 935 -126 1573 -1280 2862
-2831 3164 -210 41 -330 52 -605 56 -148 2 -315 -1 -370 -6z m-968 -1331 c52
-24 106 -85 121 -137 9 -28 12 -264 12 -855 0 -901 3 -855 -63 -924 -99 -103
-253 -106 -352 -7 -79 78 -76 36 -73 956 3 811 3 814 24 854 68 126 204 173
331 113z m887 -7 c50 -26 85 -64 108 -116 10 -23 14 -160 18 -605 l5 -575 27
-56 c36 -72 105 -141 176 -176 l57 -28 805 -5 805 -5 42 -22 c65 -35 113 -113
113 -182 0 -86 -68 -179 -147 -200 -30 -8 -331 -11 -1065 -9 l-1023 3 -67 32
c-81 38 -142 97 -177 172 l-26 56 -3 775 c-2 546 0 786 8 813 13 44 70 111
113 133 72 38 155 36 231 -5z m-870 -2285 c26 -15 58 -44 71 -64 14 -21 95
-208 180 -417 86 -209 163 -390 171 -403 23 -36 96 -64 141 -56 76 14 89 38
258 454 86 212 168 402 181 422 48 75 159 113 251 87 64 -17 137 -90 153 -150
25 -91 25 -90 -389 -970 -238 -504 -403 -843 -418 -856 -33 -31 -93 -31 -127
0 -15 13 -189 354 -433 847 l-408 825 0 70 c1 107 47 179 145 225 63 29 160
23 224 -14z m2925 4 c109 -55 142 -191 70 -290 -55 -76 -74 -80 -389 -80 -158
0 -291 -5 -312 -10 -79 -22 -131 -91 -131 -175 0 -84 52 -153 131 -175 21 -6
154 -10 314 -10 171 0 287 -4 305 -11 64 -24 122 -109 123 -180 0 -56 -45
-135 -93 -163 -41 -24 -48 -25 -322 -28 -226 -3 -287 -7 -315 -19 -188 -84
-191 -345 -5 -430 35 -16 69 -19 295 -19 148 0 271 -5 293 -11 52 -14 112 -71
133 -125 31 -81 0 -176 -75 -229 l-43 -30 -467 0 -466 0 -66 32 c-79 39 -140
102 -177 181 l-27 57 0 725 c0 688 1 728 19 775 39 101 106 171 205 212 56 22
60 23 509 23 430 0 455 -1 491 -20z"/>
</g>
</svg>
