<svg width="218" height="19" viewBox="0 0 218 19" fill="none" xmlns="http://www.w3.org/2000/svg"><path d="M1.245 16V4.48h4.344c.112 0 .232.005.36.016.133.005.272.021.416.048.576.09 1.07.299 1.48.624a3.1 3.1 0 0 1 .952 1.216 3.87 3.87 0 0 1 .328 1.608c0 .848-.227 1.587-.68 2.216-.453.63-1.085 1.03-1.896 1.2l-.264.104h-4.12V16h-.92Zm7.096 0-2.272-4.688.856-.432L9.421 16h-1.08Zm-6.176-5.392h3.408a4.748 4.748 0 0 0 .712-.064 2.164 2.164 0 0 0 1.04-.504c.277-.256.485-.563.624-.92a3.09 3.09 0 0 0 .208-1.128c0-.395-.07-.768-.208-1.12a2.363 2.363 0 0 0-.624-.912 2.128 2.128 0 0 0-1.04-.512 3.828 3.828 0 0 0-.712-.072H2.165v5.232Zm12.578 5.632c-.827 0-1.542-.184-2.145-.552a3.73 3.73 0 0 1-1.4-1.576c-.33-.683-.495-1.488-.495-2.416 0-.944.162-1.757.488-2.44.33-.688.794-1.216 1.391-1.584.603-.368 1.318-.552 2.144-.552.838 0 1.553.192 2.144.576.598.379 1.051.928 1.36 1.648.315.72.465 1.587.448 2.6h-.96v-.32c-.026-1.184-.293-2.085-.8-2.704-.506-.619-1.231-.928-2.175-.928-.976 0-1.731.323-2.264.968-.528.64-.792 1.547-.792 2.72 0 1.163.264 2.064.792 2.704.533.64 1.282.96 2.248.96.666 0 1.248-.155 1.744-.464.5-.315.898-.763 1.192-1.344l.831.368c-.346.747-.848 1.323-1.503 1.728-.657.405-1.406.608-2.248.608Zm-3.409-4.296v-.832h6.825v.832h-6.824Zm11.454 4.296c-.667 0-1.221-.117-1.664-.352-.438-.235-.765-.544-.984-.928a2.538 2.538 0 0 1-.328-1.264c0-.49.101-.901.304-1.232.208-.33.483-.597.824-.8a4.238 4.238 0 0 1 1.144-.456c.474-.107.986-.197 1.536-.272.55-.08 1.072-.15 1.568-.208.501-.059.91-.11 1.224-.152l-.336.2c.021-.933-.155-1.627-.528-2.08-.368-.459-1.019-.688-1.952-.688-.656 0-1.198.15-1.624.448-.422.293-.718.75-.888 1.368l-.944-.264c.197-.784.595-1.387 1.192-1.808.597-.421 1.363-.632 2.296-.632.794 0 1.461.155 2 .464.544.31.922.744 1.136 1.304.09.23.152.499.184.808.032.304.048.61.048.92V16h-.84v-2.272l.312.08c-.262.779-.718 1.379-1.368 1.8-.65.421-1.422.632-2.312.632Zm.048-.848c.587 0 1.101-.104 1.544-.312.443-.213.8-.51 1.072-.888.277-.384.453-.835.528-1.352.053-.288.082-.6.088-.936.005-.336.008-.584.008-.744l.4.256c-.347.043-.763.088-1.248.136-.48.048-.97.107-1.472.176-.502.07-.955.157-1.36.264-.25.07-.504.17-.76.304-.25.128-.462.307-.632.536-.166.23-.248.52-.248.872 0 .261.064.523.192.784.133.261.352.477.656.648.304.17.715.256 1.232.256Zm9.765.848c-.864 0-1.592-.192-2.184-.576a3.707 3.707 0 0 1-1.352-1.608c-.304-.688-.461-1.48-.472-2.376.01-.912.17-1.71.48-2.392.315-.688.768-1.221 1.36-1.6.592-.379 1.317-.568 2.176-.568.837 0 1.573.203 2.208.608.64.4 1.083.952 1.328 1.656l-.896.328a2.565 2.565 0 0 0-1.032-1.248c-.47-.299-1.008-.448-1.616-.448-.682 0-1.245.157-1.688.472-.442.31-.773.739-.992 1.288-.218.55-.333 1.184-.344 1.904.016 1.104.275 1.992.776 2.664.507.667 1.256 1 2.248 1 .614 0 1.144-.141 1.592-.424.454-.283.8-.693 1.04-1.232l.912.312c-.336.73-.805 1.288-1.408 1.672-.602.379-1.315.568-2.136.568Zm9.806-.24a4.922 4.922 0 0 1-1.36.112 2.97 2.97 0 0 1-1.2-.296 1.75 1.75 0 0 1-.784-.832 2.43 2.43 0 0 1-.24-.92c-.016-.31-.024-.664-.024-1.064V4.96h.928v8.024c0 .363.003.664.008.904.01.235.067.45.168.648.192.368.496.592.912.672.416.075.947.061 1.592-.04V16Zm-5.544-7.8v-.84h5.544v.84h-5.544ZM47.261 16V4.48h6.504v.92H48.18v4.376h4.624v.928H48.18V16h-.92Zm7.937 0V7.36h.84v2.072l-.208-.272c.096-.245.216-.472.36-.68.15-.213.302-.387.456-.52.23-.213.499-.373.808-.48.31-.112.621-.176.936-.192.315-.021.6.003.856.072v.872a3.07 3.07 0 0 0-1.088-.048c-.384.048-.744.213-1.08.496a2.282 2.282 0 0 0-.64.896c-.133.336-.219.69-.256 1.064-.037.368-.056.728-.056 1.08V16h-.928Zm8.95.24c-.858 0-1.586-.195-2.184-.584a3.73 3.73 0 0 1-1.368-1.616c-.314-.688-.472-1.48-.472-2.376 0-.901.16-1.693.48-2.376.32-.688.779-1.221 1.376-1.6.603-.379 1.326-.568 2.168-.568.859 0 1.587.195 2.184.584a3.62 3.62 0 0 1 1.368 1.6c.315.683.472 1.47.472 2.36 0 .912-.157 1.712-.472 2.4a3.67 3.67 0 0 1-1.376 1.6c-.602.384-1.328.576-2.176.576Zm0-.896c1.019 0 1.779-.341 2.28-1.024.507-.683.76-1.568.76-2.656 0-1.11-.253-1.995-.76-2.656-.506-.661-1.266-.992-2.28-.992-.688 0-1.256.157-1.704.472-.448.31-.784.739-1.008 1.288-.218.544-.328 1.173-.328 1.888 0 1.11.256 2 .768 2.672.518.672 1.275 1.008 2.272 1.008ZM76.26 16v-4.496a5.75 5.75 0 0 0-.168-1.456 3.007 3.007 0 0 0-.495-1.088 2.107 2.107 0 0 0-.832-.68c-.331-.155-.723-.232-1.177-.232-.469 0-.877.083-1.223.248-.342.16-.624.387-.849.68a3.127 3.127 0 0 0-.496 1.048c-.106.4-.16.837-.16 1.312l-.728-.088c0-.933.158-1.701.472-2.304.32-.608.75-1.056 1.288-1.344a3.735 3.735 0 0 1 1.817-.44c.474 0 .898.07 1.272.208.378.139.706.336.984.592.277.25.506.55.688.896.18.341.314.717.4 1.128.09.41.136.84.136 1.288V16h-.928Zm-6.328 0V7.36h.84v1.944h.088V16h-.927Zm13.913 0a4.922 4.922 0 0 1-1.36.112 2.97 2.97 0 0 1-1.2-.296 1.75 1.75 0 0 1-.784-.832 2.43 2.43 0 0 1-.24-.92c-.016-.31-.024-.664-.024-1.064V4.96h.928v8.024c0 .363.002.664.008.904.01.235.066.45.168.648.192.368.496.592.912.672.416.075.946.061 1.592-.04V16ZM78.3 8.2v-.84h5.544v.84H78.3Zm7.034 3.176v-.84h4.8v.84h-4.8ZM92.214 16V4.48h7.12v.896h-6.2v4.376h5.24v.896h-5.24v4.456h6.2V16h-7.12Zm15.375 0v-4.496a5.75 5.75 0 0 0-.168-1.456 3.012 3.012 0 0 0-.496-1.088 2.11 2.11 0 0 0-.832-.68c-.331-.155-.723-.232-1.176-.232-.47 0-.878.083-1.224.248-.342.16-.624.387-.848.68a3.122 3.122 0 0 0-.496 1.048c-.107.4-.16.837-.16 1.312l-.728-.088c0-.933.157-1.701.472-2.304.32-.608.749-1.056 1.288-1.344.538-.293 1.144-.44 1.816-.44.474 0 .898.07 1.272.208.378.139.706.336.984.592.277.25.506.55.688.896.181.341.314.717.4 1.128.09.41.136.84.136 1.288V16h-.928Zm-6.328 0V7.36h.84v1.944h.088V16h-.928Zm12.617.24c-.816 0-1.507-.2-2.072-.6-.56-.405-.99-.952-1.288-1.64-.294-.693-.44-1.472-.44-2.336 0-.853.146-1.624.44-2.312.293-.688.714-1.232 1.264-1.632.554-.4 1.224-.6 2.008-.6.805 0 1.485.197 2.04.592.554.395.973.936 1.256 1.624.282.683.424 1.459.424 2.328 0 .864-.142 1.64-.424 2.328-.283.688-.694 1.235-1.232 1.64-.539.405-1.198.608-1.976.608Zm.056-.88c.645 0 1.181-.16 1.608-.48.432-.325.752-.765.96-1.32.213-.56.32-1.192.32-1.896 0-.71-.107-1.341-.32-1.896-.214-.555-.534-.987-.96-1.296-.427-.315-.958-.472-1.592-.472-.656 0-1.198.163-1.624.488-.427.32-.744.757-.952 1.312-.208.55-.312 1.17-.312 1.864 0 .699.106 1.328.32 1.888.218.555.538.995.96 1.32.426.325.957.488 1.592.488Zm2.888.64V9.344h-.08V4.48h.919V16h-.839Zm6.282 0V4.48h4.344c.112 0 .232.005.36.016.134.005.272.021.416.048.576.09 1.07.299 1.48.624.416.32.734.725.952 1.216.219.485.328 1.021.328 1.608a3.94 3.94 0 0 1-.328 1.624c-.218.485-.536.89-.952 1.216-.41.32-.904.525-1.48.616a6.228 6.228 0 0 1-.416.048c-.128.01-.248.016-.36.016h-3.424V16h-.92Zm.92-5.392h3.408a4.748 4.748 0 0 0 .712-.064 2.162 2.162 0 0 0 1.04-.504c.278-.256.486-.563.624-.92.139-.357.208-.733.208-1.128 0-.395-.069-.768-.208-1.12a2.349 2.349 0 0 0-.624-.912 2.126 2.126 0 0 0-1.04-.512 3.816 3.816 0 0 0-.712-.072h-3.408v5.232Zm11.061 5.632c-.667 0-1.222-.117-1.664-.352-.438-.235-.766-.544-.984-.928a2.535 2.535 0 0 1-.328-1.264c0-.49.101-.901.304-1.232.208-.33.482-.597.824-.8a4.23 4.23 0 0 1 1.144-.456c.474-.107.986-.197 1.536-.272.549-.08 1.072-.15 1.568-.208.501-.059.909-.11 1.224-.152l-.336.2c.021-.933-.155-1.627-.528-2.08-.368-.459-1.019-.688-1.952-.688-.656 0-1.198.15-1.624.448-.422.293-.718.75-.888 1.368l-.944-.264c.197-.784.594-1.387 1.192-1.808.597-.421 1.362-.632 2.296-.632.794 0 1.461.155 2 .464.544.31.922.744 1.136 1.304.09.23.152.499.184.808.032.304.048.61.048.92V16h-.84v-2.272l.312.08c-.262.779-.718 1.379-1.368 1.8-.651.421-1.422.632-2.312.632Zm.048-.848c.586 0 1.101-.104 1.544-.312.442-.213.8-.51 1.072-.888a3.01 3.01 0 0 0 .528-1.352c.053-.288.082-.6.088-.936.005-.336.008-.584.008-.744l.4.256c-.347.043-.763.088-1.248.136-.48.048-.971.107-1.472.176-.502.07-.955.157-1.36.264-.251.07-.504.17-.76.304a1.79 1.79 0 0 0-.632.536c-.166.23-.248.52-.248.872 0 .261.064.523.192.784.133.261.352.477.656.648.304.17.714.256 1.232.256Zm9.357.848c-.885 0-1.645-.195-2.28-.584a4.165 4.165 0 0 1-1.504-1.648l.752-.456c.315.581.72 1.027 1.216 1.336.501.304 1.08.456 1.736.456.683 0 1.232-.16 1.648-.48.421-.325.632-.77.632-1.336 0-.363-.077-.661-.232-.896-.155-.235-.4-.408-.736-.52-.336-.112-.773-.168-1.312-.168h-1.152v-.824h1.144c.635 0 1.139-.125 1.512-.376.379-.25.568-.621.568-1.112 0-.544-.2-.95-.6-1.216-.4-.267-.883-.4-1.448-.4-.544 0-1.053.112-1.528.336a3.449 3.449 0 0 0-1.16.872l-.64-.624c.411-.49.904-.859 1.48-1.104.576-.25 1.219-.376 1.928-.376.555 0 1.051.099 1.488.296.443.197.789.48 1.04.848.256.368.384.808.384 1.32 0 .517-.128.955-.384 1.312-.256.357-.608.64-1.056.848l-.088-.384c.405.048.736.19.992.424.261.235.451.517.568.848.117.325.176.656.176.992 0 .528-.136.99-.408 1.384-.272.39-.645.693-1.12.912-.475.213-1.013.32-1.616.32Zm8.695 0c-.778 0-1.437-.203-1.976-.608-.538-.405-.949-.952-1.232-1.64-.282-.688-.424-1.464-.424-2.328 0-.87.142-1.645.424-2.328.283-.688.702-1.23 1.256-1.624.555-.395 1.235-.592 2.04-.592.784 0 1.454.2 2.008.6.555.4.976.944 1.264 1.632.294.688.44 1.459.44 2.312 0 .864-.149 1.643-.448 2.336-.293.688-.722 1.235-1.288 1.64-.56.4-1.248.6-2.064.6Zm-3.784 3.6V7.36h.84v6.656h.08v5.824h-.92Zm3.728-4.48c.635 0 1.163-.163 1.584-.488.427-.325.747-.765.96-1.32.219-.56.328-1.19.328-1.888 0-.693-.106-1.315-.32-1.864-.208-.555-.525-.992-.952-1.312-.421-.325-.96-.488-1.616-.488-.634 0-1.165.157-1.592.472-.426.31-.746.741-.96 1.296-.213.555-.32 1.187-.32 1.896 0 .704.104 1.336.312 1.896.214.555.534.995.96 1.32.432.32.971.48 1.616.48Zm8.112.88c-.667 0-1.221-.117-1.664-.352-.437-.235-.765-.544-.984-.928a2.535 2.535 0 0 1-.328-1.264c0-.49.101-.901.304-1.232.208-.33.483-.597.824-.8a4.243 4.243 0 0 1 1.144-.456c.475-.107.987-.197 1.536-.272.549-.08 1.072-.15 1.568-.208.501-.059.909-.11 1.224-.152l-.336.2c.021-.933-.155-1.627-.528-2.08-.368-.459-1.019-.688-1.952-.688-.656 0-1.197.15-1.624.448-.421.293-.717.75-.888 1.368l-.944-.264c.197-.784.595-1.387 1.192-1.808.597-.421 1.363-.632 2.296-.632.795 0 1.461.155 2 .464.544.31.923.744 1.136 1.304.091.23.152.499.184.808.032.304.048.61.048.92V16h-.84v-2.272l.312.08c-.261.779-.717 1.379-1.368 1.8-.651.421-1.421.632-2.312.632Zm.048-.848c.587 0 1.101-.104 1.544-.312.443-.213.8-.51 1.072-.888a3.01 3.01 0 0 0 .528-1.352c.053-.288.083-.6.088-.936.005-.336.008-.584.008-.744l.4.256c-.347.043-.763.088-1.248.136-.48.048-.971.107-1.472.176-.501.07-.955.157-1.36.264-.251.07-.504.17-.76.304a1.799 1.799 0 0 0-.632.536c-.165.23-.248.52-.248.872 0 .261.064.523.192.784.133.261.352.477.656.648.304.17.715.256 1.232.256Zm9.661.848c-.805 0-1.496-.17-2.072-.512-.576-.341-1.021-.861-1.336-1.56-.314-.704-.477-1.597-.488-2.68-.01-.453.006-.944.048-1.472.043-.528.102-1.027.176-1.496.08-.47.166-.843.256-1.12.128-.405.32-.781.576-1.128.262-.352.568-.64.92-.864.32-.213.691-.381 1.112-.504.422-.123.862-.219 1.32-.288.459-.075.907-.136 1.344-.184.438-.053.835-.117 1.192-.192l.112.856a20.43 20.43 0 0 1-1.04.16c-.405.048-.829.11-1.272.184-.442.07-.866.163-1.272.28a4.076 4.076 0 0 0-1.04.448c-.448.272-.792.688-1.032 1.248s-.389 1.213-.448 1.96a3.294 3.294 0 0 1 1.344-1.216 4.13 4.13 0 0 1 1.872-.424c.779 0 1.451.179 2.016.536a3.481 3.481 0 0 1 1.312 1.496c.31.635.464 1.376.464 2.224 0 .859-.162 1.608-.488 2.248a3.535 3.535 0 0 1-1.4 1.48c-.608.352-1.333.525-2.176.52Zm.08-.896c.982 0 1.726-.304 2.232-.912.512-.613.768-1.427.768-2.44 0-1.04-.264-1.859-.792-2.456s-1.269-.896-2.224-.896c-.954 0-1.69.299-2.208.896-.512.597-.768 1.416-.768 2.456 0 1.035.256 1.853.768 2.456.512.597 1.254.896 2.224.896Zm9.29.896c-.858 0-1.586-.195-2.184-.584a3.736 3.736 0 0 1-1.368-1.616c-.314-.688-.472-1.48-.472-2.376 0-.901.16-1.693.48-2.376.32-.688.779-1.221 1.376-1.6.603-.379 1.326-.568 2.168-.568.859 0 1.587.195 2.184.584a3.615 3.615 0 0 1 1.368 1.6c.315.683.472 1.47.472 2.36 0 .912-.157 1.712-.472 2.4a3.664 3.664 0 0 1-1.376 1.6c-.602.384-1.328.576-2.176.576Zm0-.896c1.019 0 1.779-.341 2.28-1.024.507-.683.76-1.568.76-2.656 0-1.11-.253-1.995-.76-2.656-.506-.661-1.266-.992-2.28-.992-.688 0-1.256.157-1.704.472-.448.31-.784.739-1.008 1.288-.218.544-.328 1.173-.328 1.888 0 1.11.256 2 .768 2.672.518.672 1.275 1.008 2.272 1.008Zm7.974.656V8.24h-3.128v-.88h7.176v.88h-3.128V16h-.92Zm10.928 0v-3.32a5.588 5.588 0 0 1-2.488.56c-.869 0-1.578-.192-2.128-.576-.549-.39-.909-.947-1.08-1.672a5.858 5.858 0 0 1-.104-.704 12.167 12.167 0 0 1-.048-1.088V7.36h.928V9.2c0 .197.006.408.016.632.011.224.035.437.072.64.107.635.366 1.12.776 1.456.416.33.995.496 1.736.496.443 0 .87-.056 1.28-.168a3.328 3.328 0 0 0 1.04-.464V7.36h.928V16h-.928Zm9.82-8.64V16h-.904V8.904L203.194 16h-.808V7.36h.904v7.064l4.944-7.064h.808Zm2.234 8.64V7.36h.928v4.16l4.088-4.16h1.288l-4.28 4.32 4.888 4.32h-1.432l-4.552-4.16V16h-.928Z" fill="#fff"/></svg>